{"glyphs":{"0":{"ha":797,"x_min":64,"x_max":732,"o":"m 732 357 q 641 85 732 184 q 399 -14 550 -14 q 156 85 248 -14 q 64 357 64 184 l 64 629 q 156 902 64 802 q 398 1002 247 1002 q 641 902 549 1002 q 732 629 732 802 l 732 357 m 535 650 q 499 797 535 745 q 398 849 463 849 q 297 797 333 849 q 262 650 262 745 l 262 338 q 298 190 262 241 q 399 138 334 138 q 499 190 464 138 q 535 338 535 241 l 535 650 z "},"1":{"ha":797,"x_min":138,"x_max":540,"o":"m 540 0 l 342 0 l 342 815 l 138 815 l 138 966 l 540 1002 l 540 0 z "},"2":{"ha":797,"x_min":57,"x_max":742,"o":"m 742 0 l 79 0 l 79 130 l 385 475 q 483 612 454 556 q 511 715 511 668 q 481 812 511 776 q 389 849 450 849 q 290 802 325 849 q 254 684 254 755 l 62 684 l 60 688 q 147 910 57 819 q 389 1002 237 1002 q 625 924 541 1002 q 709 715 709 846 q 662 553 709 627 q 500 351 615 480 l 337 155 l 338 152 l 742 152 l 742 0 z "},"3":{"ha":797,"x_min":58,"x_max":745,"o":"m 393 581 q 497 617 463 581 q 532 720 532 654 q 496 812 532 776 q 395 849 460 849 q 304 816 341 849 q 267 731 267 783 l 76 731 l 75 735 q 164 926 71 851 q 395 1002 258 1002 q 639 929 549 1002 q 729 722 729 857 q 690 598 729 654 q 583 509 651 541 q 703 420 661 479 q 745 277 745 361 q 647 63 745 141 q 395 -14 549 -14 q 159 59 260 -14 q 62 264 58 132 l 63 269 l 256 269 q 295 175 256 213 q 395 138 334 138 q 505 178 463 138 q 547 279 547 218 q 508 394 547 357 q 393 432 469 432 l 283 432 l 283 581 l 393 581 z "},"4":{"ha":797,"x_min":38,"x_max":759,"o":"m 648 368 l 759 368 l 759 214 l 648 214 l 648 0 l 450 0 l 450 214 l 47 214 l 38 333 l 448 987 l 648 987 l 648 368 m 218 368 l 450 368 l 450 726 l 446 727 l 425 683 l 218 368 z "},"5":{"ha":797,"x_min":73,"x_max":736,"o":"m 94 435 l 151 987 l 702 987 l 702 829 l 313 829 l 286 598 q 356 632 314 618 q 448 646 398 645 q 661 561 585 648 q 736 317 736 474 q 654 79 736 172 q 404 -14 572 -14 q 170 58 267 -14 q 77 256 73 130 l 78 260 l 269 269 q 306 172 269 207 q 404 138 343 138 q 506 184 474 138 q 538 315 538 230 q 503 451 538 401 q 399 502 468 502 q 312 481 342 502 q 269 424 281 460 l 94 435 z "},"6":{"ha":797,"x_min":64,"x_max":747,"o":"m 454 1002 q 561 991 511 1002 q 658 960 610 981 l 623 815 q 540 839 576 831 q 455 846 503 846 q 315 780 368 846 q 262 595 262 713 l 262 563 q 356 623 301 602 q 477 644 410 644 q 675 554 604 644 q 747 320 747 465 q 654 79 747 172 q 414 -14 562 -14 q 162 92 259 -14 q 64 381 64 197 l 64 588 q 175 889 64 776 q 454 1002 285 1002 m 412 494 q 320 477 358 494 q 262 429 283 460 l 262 376 q 303 200 262 262 q 414 138 345 138 q 512 190 475 138 q 549 320 549 241 q 512 448 549 401 q 412 494 475 494 z "},"7":{"ha":797,"x_min":48,"x_max":743,"o":"m 743 835 q 515 482 575 639 q 454 122 454 325 l 454 0 l 256 0 l 256 122 q 332 498 256 328 q 552 835 408 668 l 48 835 l 48 987 l 743 987 l 743 835 z "},"8":{"ha":797,"x_min":56,"x_max":749,"o":"m 716 731 q 678 601 716 658 q 574 513 640 545 q 702 417 654 479 q 749 275 749 355 q 654 62 749 138 q 410 -14 559 -14 q 155 62 255 -14 q 56 275 56 138 q 105 417 56 355 q 238 513 154 479 q 129 601 168 545 q 89 731 89 658 q 178 931 89 861 q 409 1002 267 1002 q 631 931 545 1002 q 716 731 716 861 m 551 285 q 510 393 551 351 q 409 435 469 435 q 298 393 342 435 q 254 285 254 351 q 298 178 254 218 q 410 138 342 138 q 511 178 471 138 q 551 285 551 218 m 519 722 q 488 815 519 781 q 409 849 458 849 q 320 815 353 849 q 287 722 287 782 q 321 625 287 662 q 410 588 355 588 q 489 625 459 588 q 519 722 519 661 z "},"9":{"ha":797,"x_min":57,"x_max":725,"o":"m 361 138 q 481 193 434 138 q 528 347 528 248 l 528 411 q 449 347 494 368 q 351 325 404 325 q 135 414 214 325 q 57 658 57 504 q 150 904 57 806 q 387 1002 243 1002 q 631 901 536 1002 q 725 623 725 801 l 725 357 q 622 86 725 186 q 361 -14 519 -14 q 255 -3 309 -14 q 152 28 200 8 l 185 172 q 269 146 228 154 q 361 138 309 138 m 385 470 q 469 490 433 470 q 528 543 506 509 l 528 658 q 490 800 528 751 q 388 849 452 849 q 292 794 328 849 q 255 658 255 739 q 288 522 255 573 q 385 470 321 470 z "},"\u0000":{"ha":0,"x_min":0,"x_max":0,"o":""},"\r":{"ha":346,"x_min":0,"x_max":0,"o":""}," ":{"ha":346,"x_min":0,"x_max":0,"o":""},"!":{"ha":378,"x_min":91,"x_max":289,"o":"m 289 340 l 91 340 l 91 987 l 289 987 l 289 340 m 289 0 l 91 0 l 91 174 l 289 174 l 289 0 z "},"\"":{"ha":564,"x_min":96,"x_max":484,"o":"m 252 801 l 183 632 l 96 632 l 96 987 l 252 987 l 252 801 m 484 801 l 414 632 l 328 632 l 328 987 l 484 987 l 484 801 z "},"#":{"ha":827,"x_min":33,"x_max":789,"o":"m 441 278 l 311 278 l 262 0 l 138 0 l 186 278 l 33 278 l 33 393 l 206 393 l 241 589 l 83 589 l 83 705 l 261 705 l 311 987 l 435 987 l 385 705 l 515 705 l 566 987 l 690 987 l 640 705 l 789 705 l 789 589 l 620 589 l 585 393 l 738 393 l 738 278 l 566 278 l 517 0 l 392 0 l 441 278 m 331 393 l 460 393 l 495 589 l 365 589 l 331 393 z "},"$":{"ha":825,"x_min":71,"x_max":751,"o":"m 553 260 q 522 349 553 315 q 408 414 490 382 q 181 534 255 465 q 107 726 107 602 q 181 914 107 841 q 382 1000 255 987 l 382 1145 l 490 1145 l 490 998 q 681 902 612 981 q 748 699 750 824 l 747 695 l 553 695 q 520 809 553 769 q 426 848 486 848 q 334 815 362 848 q 305 726 305 782 q 335 642 305 673 q 451 575 366 611 q 676 455 602 526 q 751 261 751 385 q 677 72 751 143 q 476 -12 604 1 l 476 -145 l 368 -145 l 368 -12 q 154 75 238 0 q 73 295 71 150 l 75 299 l 268 299 q 310 175 268 212 q 420 138 353 138 q 520 171 487 138 q 553 260 553 203 z "},"%":{"ha":1026,"x_min":64,"x_max":966,"o":"m 64 798 q 121 943 64 885 q 279 1002 178 1002 q 437 944 381 1002 q 494 798 494 886 l 494 745 q 437 600 494 658 q 280 543 381 543 q 121 600 178 543 q 64 745 64 658 l 64 798 m 196 745 q 218 679 196 706 q 280 652 239 652 q 341 679 319 652 q 362 745 362 706 l 362 798 q 340 864 362 837 q 279 892 319 892 q 217 864 239 892 q 196 798 196 837 l 196 745 m 536 242 q 593 387 536 329 q 751 446 650 446 q 910 388 853 446 q 966 242 966 330 l 966 190 q 910 44 966 102 q 753 -14 854 -14 q 594 44 651 -14 q 536 190 536 102 l 536 242 m 668 190 q 691 124 668 151 q 753 96 715 96 q 816 122 797 96 q 835 190 835 147 l 835 242 q 813 308 835 281 q 751 336 791 336 q 689 308 711 336 q 668 242 668 281 l 668 190 m 313 74 l 216 125 l 699 897 l 795 846 l 313 74 z "},"&":{"ha":913,"x_min":41,"x_max":887,"o":"m 216 530 q 150 641 172 591 q 128 744 128 692 q 200 935 128 867 q 397 1002 272 1002 q 573 935 505 1002 q 640 773 640 868 q 611 651 640 703 q 526 555 583 600 l 457 507 l 640 293 q 678 380 665 333 q 692 481 692 428 l 850 481 q 826 304 850 385 q 751 163 802 224 l 887 3 l 886 0 l 666 0 l 614 60 q 495 4 556 23 q 364 -14 434 -14 q 129 63 216 -14 q 41 266 41 141 q 84 406 41 348 q 216 530 127 464 m 374 138 q 446 147 410 138 q 515 174 482 156 l 315 406 l 309 401 q 254 338 269 369 q 239 276 239 307 q 277 177 239 216 q 374 138 314 138 m 305 746 q 319 688 305 718 q 360 623 332 658 l 412 656 q 463 706 450 680 q 476 762 476 732 q 454 823 476 797 q 392 849 431 849 q 328 819 351 849 q 305 746 305 789 z "},"'":{"ha":300,"x_min":62,"x_max":239,"o":"m 239 805 l 170 613 l 62 613 l 62 987 l 239 987 l 239 805 z "},"(":{"ha":482,"x_min":84,"x_max":460,"o":"m 84 401 q 187 853 84 667 q 420 1093 290 1038 l 425 1093 l 460 994 q 311 780 372 928 q 251 403 251 632 l 251 385 q 311 8 251 155 q 460 -208 372 -140 l 425 -305 l 420 -305 q 187 -65 290 -250 q 84 387 84 120 l 84 401 z "},")":{"ha":484,"x_min":21,"x_max":408,"o":"m 408 387 q 301 -62 408 127 q 62 -305 193 -251 l 58 -305 l 21 -208 q 170 7 109 -142 q 231 385 231 155 l 231 403 q 169 780 231 631 q 21 997 107 930 l 58 1093 l 62 1093 q 301 850 193 1039 q 408 401 408 661 l 408 387 z "},"*":{"ha":581,"x_min":33,"x_max":550,"o":"m 189 451 l 33 503 l 70 618 l 233 564 l 234 733 l 353 733 l 358 559 l 514 612 l 550 496 l 392 442 l 486 305 l 388 233 l 287 374 l 189 239 l 90 309 l 189 451 z "},"+":{"ha":758,"x_min":38,"x_max":715,"o":"m 471 551 l 715 551 l 715 380 l 471 380 l 471 99 l 283 99 l 283 380 l 38 380 l 38 551 l 283 551 l 283 818 l 471 818 l 471 551 z "},",":{"ha":358,"x_min":43,"x_max":283,"o":"m 283 9 l 175 -205 l 43 -205 l 90 15 l 90 170 l 283 170 l 283 9 z "},"-":{"ha":605,"x_min":99,"x_max":498,"o":"m 498 346 l 99 346 l 99 498 l 498 498 l 498 346 z "},".":{"ha":404,"x_min":98,"x_max":296,"o":"m 296 0 l 98 0 l 98 174 l 296 174 l 296 0 z "},"/":{"ha":559,"x_min":-9,"x_max":545,"o":"m 183 -85 l -9 -85 l 353 987 l 545 987 l 183 -85 z "},":":{"ha":395,"x_min":98,"x_max":296,"o":"m 296 0 l 98 0 l 98 174 l 296 174 l 296 0 m 296 594 l 98 594 l 98 768 l 296 768 l 296 594 z "},";":{"ha":381,"x_min":77,"x_max":317,"o":"m 296 594 l 98 594 l 98 768 l 296 768 l 296 594 m 317 9 l 210 -205 l 77 -205 l 125 15 l 125 170 l 317 170 l 317 9 z "},"<":{"ha":707,"x_min":37,"x_max":621,"o":"m 230 373 l 230 369 l 621 231 l 621 47 l 37 296 l 37 450 l 621 698 l 621 513 l 230 373 z "},"=":{"ha":801,"x_min":92,"x_max":700,"o":"m 700 517 l 92 517 l 92 673 l 700 673 l 700 517 m 700 225 l 92 225 l 92 380 l 700 380 l 700 225 z "},">":{"ha":718,"x_min":81,"x_max":672,"o":"m 478 366 l 478 370 l 81 509 l 81 692 l 672 444 l 672 290 l 81 41 l 81 224 l 478 366 z "},"?":{"ha":692,"x_min":20,"x_max":661,"o":"m 220 281 q 248 420 220 376 q 357 527 275 464 q 434 612 406 566 q 463 713 463 657 q 430 811 463 776 q 336 846 397 846 q 251 817 286 846 q 216 729 216 787 l 23 729 l 22 733 q 107 932 20 863 q 336 1002 195 1002 q 575 925 488 1002 q 661 715 661 848 q 611 556 661 629 q 484 433 560 483 q 430 369 443 401 q 417 281 417 337 l 220 281 m 418 0 l 219 0 l 219 170 l 418 170 l 418 0 z "},"@":{"ha":1232,"x_min":33,"x_max":1184,"o":"m 1173 348 q 1086 93 1167 200 q 845 -14 1006 -14 q 753 16 792 -14 q 699 99 715 45 q 624 16 669 43 q 520 -12 580 -12 q 373 68 425 -12 q 336 282 322 149 q 433 558 353 454 q 628 662 513 662 q 754 644 707 662 q 859 590 802 627 l 857 587 l 861 587 l 826 199 q 836 111 821 134 q 874 87 850 87 q 999 161 952 87 q 1052 348 1046 235 q 959 722 1063 587 q 640 856 856 856 q 311 711 434 856 q 178 324 189 567 q 277 -56 167 83 q 595 -195 388 -195 q 714 -181 653 -195 q 820 -147 776 -168 l 846 -247 q 730 -291 800 -275 q 593 -307 660 -307 q 179 -138 324 -307 q 45 324 33 31 q 218 788 57 614 q 642 962 379 962 q 1044 797 905 962 q 1173 348 1184 633 m 488 282 q 501 152 481 196 q 564 107 520 107 q 632 125 602 107 q 688 190 663 142 q 688 194 688 193 q 688 199 688 196 l 718 535 q 687 543 703 540 q 654 545 671 545 q 540 480 579 545 q 488 282 500 414 z "},"A":{"ha":884,"x_min":12,"x_max":880,"o":"m 606 213 l 286 213 l 219 0 l 12 0 l 345 987 l 548 987 l 880 0 l 673 0 l 606 213 m 334 368 l 557 368 l 448 716 l 444 716 l 334 368 z "},"B":{"ha":885,"x_min":91,"x_max":831,"o":"m 91 0 l 91 987 l 414 987 q 686 919 589 987 q 784 717 784 851 q 749 595 784 649 q 646 515 713 542 q 785 435 738 498 q 831 288 831 372 q 738 73 831 146 q 473 0 644 0 l 91 0 m 289 437 l 289 152 l 473 152 q 593 186 551 152 q 634 288 634 220 q 593 398 634 359 q 471 437 553 437 l 289 437 m 289 574 l 421 574 q 543 606 500 574 q 586 701 586 639 q 543 802 586 770 q 414 835 500 835 l 289 835 l 289 574 z "},"C":{"ha":884,"x_min":67,"x_max":837,"o":"m 831 327 l 833 323 q 736 75 836 165 q 463 -14 637 -14 q 176 100 286 -14 q 67 395 67 214 l 67 591 q 174 887 67 772 q 453 1002 280 1002 q 735 913 633 1002 q 834 665 837 825 l 833 661 l 640 661 q 594 803 640 756 q 453 849 549 849 q 314 778 364 849 q 264 593 264 706 l 264 395 q 317 210 264 281 q 463 138 370 138 q 596 184 552 138 q 640 327 640 231 l 831 327 z "},"D":{"ha":919,"x_min":91,"x_max":851,"o":"m 91 0 l 91 987 l 435 987 q 734 872 616 987 q 851 575 851 756 l 851 412 q 734 115 851 230 q 435 0 616 0 l 91 0 m 289 835 l 289 152 l 435 152 q 593 225 533 152 q 652 412 652 298 l 652 576 q 593 762 652 690 q 435 835 533 835 l 289 835 z "},"E":{"ha":772,"x_min":91,"x_max":724,"o":"m 655 434 l 289 434 l 289 152 l 724 152 l 724 0 l 91 0 l 91 987 l 723 987 l 723 835 l 289 835 l 289 587 l 655 587 l 655 434 z "},"F":{"ha":772,"x_min":91,"x_max":737,"o":"m 668 410 l 289 410 l 289 0 l 91 0 l 91 987 l 737 987 l 737 835 l 289 835 l 289 563 l 668 563 l 668 410 z "},"G":{"ha":925,"x_min":67,"x_max":848,"o":"m 848 135 q 710 30 802 75 q 474 -14 618 -14 q 181 98 295 -14 q 67 391 67 211 l 67 597 q 178 889 67 776 q 462 1002 288 1002 q 739 916 643 1002 q 832 687 836 830 l 831 683 l 644 683 q 599 805 644 762 q 467 849 553 849 q 320 779 376 849 q 264 598 264 709 l 264 391 q 321 208 264 279 q 474 138 378 138 q 586 152 545 138 q 649 188 627 166 l 649 379 l 459 379 l 459 516 l 848 516 l 848 135 z "},"H":{"ha":980,"x_min":91,"x_max":889,"o":"m 889 0 l 691 0 l 691 410 l 289 410 l 289 0 l 91 0 l 91 987 l 289 987 l 289 563 l 691 563 l 691 987 l 889 987 l 889 0 z "},"I":{"ha":408,"x_min":104,"x_max":302,"o":"m 302 0 l 104 0 l 104 987 l 302 987 l 302 0 z "},"J":{"ha":771,"x_min":21,"x_max":682,"o":"m 484 987 l 682 987 l 682 306 q 592 73 682 159 q 361 -14 502 -14 q 113 63 204 -14 q 24 288 21 140 l 26 292 l 218 292 q 257 175 218 213 q 361 138 296 138 q 450 183 415 138 q 484 306 484 228 l 484 987 z "},"K":{"ha":885,"x_min":91,"x_max":886,"o":"m 361 412 l 289 412 l 289 0 l 91 0 l 91 987 l 289 987 l 289 584 l 345 584 l 615 987 l 860 987 l 518 528 l 886 0 l 634 0 l 361 412 z "},"L":{"ha":772,"x_min":91,"x_max":731,"o":"m 289 152 l 731 152 l 731 0 l 91 0 l 91 987 l 289 987 l 289 152 z "},"M":{"ha":1208,"x_min":91,"x_max":1118,"o":"m 602 260 l 606 260 l 859 987 l 1118 987 l 1118 0 l 920 0 l 920 674 l 916 675 l 671 0 l 537 0 l 293 676 l 289 675 l 289 0 l 91 0 l 91 987 l 351 987 l 602 260 z "},"N":{"ha":980,"x_min":91,"x_max":889,"o":"m 889 0 l 691 0 l 293 666 l 289 665 l 289 0 l 91 0 l 91 987 l 289 987 l 687 322 l 691 323 l 691 987 l 889 987 l 889 0 z "},"O":{"ha":956,"x_min":66,"x_max":890,"o":"m 890 405 q 775 104 890 222 q 477 -14 661 -14 q 180 104 294 -14 q 66 405 66 223 l 66 583 q 179 883 66 764 q 475 1002 293 1002 q 774 883 659 1002 q 890 583 890 764 l 890 405 m 692 584 q 635 773 692 699 q 475 847 577 847 q 319 773 375 847 q 263 584 263 699 l 263 405 q 319 214 263 288 q 477 140 376 140 q 635 214 578 140 q 692 405 692 288 l 692 584 z "},"P":{"ha":885,"x_min":91,"x_max":834,"o":"m 289 358 l 289 0 l 91 0 l 91 987 l 469 987 q 736 901 639 987 q 834 672 834 814 q 736 444 834 530 q 469 358 639 358 l 289 358 m 289 511 l 469 511 q 594 556 551 511 q 637 671 637 601 q 594 788 637 742 q 469 835 552 835 l 289 835 l 289 511 z "},"Q":{"ha":977,"x_min":66,"x_max":958,"o":"m 890 405 q 869 264 890 330 q 810 146 848 199 l 958 -1 l 828 -107 l 684 35 q 586 -2 638 11 q 477 -14 534 -14 q 180 104 294 -14 q 66 405 66 223 l 66 583 q 179 883 66 764 q 475 1002 293 1002 q 774 883 659 1002 q 890 583 890 764 l 890 405 m 692 584 q 635 773 692 699 q 475 847 577 847 q 319 773 375 847 q 263 584 263 699 l 263 405 q 319 214 263 288 q 477 140 376 140 q 635 214 578 140 q 692 405 692 288 l 692 584 z "},"R":{"ha":885,"x_min":91,"x_max":848,"o":"m 289 395 l 289 0 l 91 0 l 91 987 l 433 987 q 697 910 602 987 q 792 696 792 833 q 752 565 792 620 q 634 475 711 509 q 760 389 722 450 q 798 240 798 329 l 798 168 q 809 81 798 126 q 848 14 821 36 l 848 0 l 644 0 q 609 72 616 22 q 601 169 601 122 l 601 239 q 561 354 601 313 q 446 395 520 395 l 289 395 m 289 547 l 429 547 q 553 583 513 547 q 594 687 594 618 q 553 795 594 755 q 433 835 512 835 l 289 835 l 289 547 z "},"S":{"ha":859,"x_min":55,"x_max":804,"o":"m 606 258 q 566 349 606 315 q 427 414 526 384 q 167 536 256 466 q 79 726 79 606 q 178 925 79 848 q 433 1002 278 1002 q 697 919 597 1002 q 793 702 797 836 l 792 698 l 600 698 q 555 811 600 772 q 430 851 511 851 q 317 816 357 851 q 277 726 277 781 q 320 643 277 675 q 470 575 363 611 q 718 455 633 529 q 804 259 804 380 q 705 59 804 132 q 443 -14 606 -14 q 169 65 283 -14 q 58 302 55 144 l 60 306 l 252 306 q 303 177 252 218 q 443 136 355 136 q 564 169 522 136 q 606 258 606 202 z "},"T":{"ha":797,"x_min":21,"x_max":779,"o":"m 779 835 l 497 835 l 497 0 l 299 0 l 299 835 l 21 835 l 21 987 l 779 987 l 779 835 z "},"U":{"ha":954,"x_min":81,"x_max":873,"o":"m 873 987 l 873 341 q 763 80 873 174 q 476 -14 652 -14 q 191 80 300 -14 q 81 341 81 174 l 81 987 l 280 987 l 280 341 q 333 190 280 242 q 476 138 386 138 q 621 190 568 138 q 675 341 675 242 l 675 987 l 873 987 z "},"V":{"ha":884,"x_min":5,"x_max":879,"o":"m 427 268 l 439 214 l 444 214 l 455 266 l 670 987 l 879 987 l 543 0 l 340 0 l 5 987 l 214 987 l 427 268 z "},"W":{"ha":1223,"x_min":14,"x_max":1209,"o":"m 870 317 l 874 317 l 1005 987 l 1209 987 l 979 0 l 795 0 l 613 650 l 609 650 l 428 0 l 244 0 l 14 987 l 218 987 l 349 318 l 353 318 l 531 987 l 691 987 l 870 317 z "},"X":{"ha":884,"x_min":21,"x_max":873,"o":"m 440 637 l 625 987 l 856 987 l 563 498 l 873 0 l 633 0 l 443 356 l 252 0 l 21 0 l 321 498 l 28 987 l 258 987 l 440 637 z "},"Y":{"ha":884,"x_min":7,"x_max":876,"o":"m 439 532 l 444 532 l 659 987 l 876 987 l 538 347 l 538 0 l 340 0 l 340 357 l 7 987 l 224 987 l 439 532 z "},"Z":{"ha":789,"x_min":52,"x_max":739,"o":"m 286 152 l 739 152 l 739 0 l 52 0 l 52 103 l 492 835 l 53 835 l 53 987 l 727 987 l 727 888 l 286 152 z "},"[":{"ha":387,"x_min":81,"x_max":375,"o":"m 375 1000 l 279 1000 l 279 -81 l 375 -81 l 375 -228 l 81 -228 l 81 1147 l 375 1147 l 375 1000 z "},"\\":{"ha":585,"x_min":1,"x_max":610,"o":"m 1 987 l 197 987 l 610 -85 l 414 -85 l 1 987 z "},"]":{"ha":387,"x_min":9,"x_max":303,"o":"m 9 1147 l 303 1147 l 303 -228 l 9 -228 l 9 -81 l 105 -81 l 105 1000 l 9 1000 l 9 1147 z "},"^":{"ha":608,"x_min":30,"x_max":579,"o":"m 186 494 l 30 494 l 233 987 l 376 987 l 579 494 l 422 494 l 311 774 l 305 798 l 301 798 l 296 774 l 186 494 z "},"_":{"ha":620,"x_min":1,"x_max":618,"o":"m 618 -149 l 1 -149 l 1 0 l 618 0 l 618 -149 z "},"`":{"ha":460,"x_min":37,"x_max":391,"o":"m 391 849 l 221 849 l 37 1025 l 38 1029 l 258 1029 l 391 849 z "},"a":{"ha":746,"x_min":39,"x_max":706,"o":"m 509 0 q 490 53 498 25 q 479 110 482 81 q 398 21 448 56 q 279 -14 348 -14 q 101 45 163 -14 q 39 207 39 104 q 122 374 39 315 q 364 433 205 433 l 475 433 l 475 492 q 448 574 475 545 q 365 603 420 603 q 291 579 317 603 q 264 515 264 556 l 74 515 l 73 519 q 154 680 68 612 q 378 747 239 747 q 592 681 510 747 q 673 490 673 614 l 673 187 q 681 90 673 136 q 706 0 689 45 l 509 0 m 328 132 q 420 158 379 132 q 475 218 460 184 l 475 321 l 364 321 q 269 290 301 321 q 237 214 237 259 q 261 154 237 176 q 328 132 285 132 z "},"b":{"ha":784,"x_min":76,"x_max":738,"o":"m 738 347 q 665 84 738 182 q 453 -14 591 -14 q 341 13 389 -14 q 260 92 293 40 l 243 0 l 76 0 l 76 1058 l 273 1058 l 273 656 q 350 724 305 700 q 452 747 394 747 q 665 642 591 747 q 738 361 738 536 l 738 347 m 541 361 q 509 531 541 468 q 401 593 477 593 q 323 574 355 593 q 273 519 292 555 l 273 208 q 324 157 292 175 q 403 140 356 140 q 510 194 479 140 q 541 347 541 248 l 541 361 z "},"c":{"ha":716,"x_min":42,"x_max":680,"o":"m 382 138 q 465 169 434 138 q 495 251 495 199 l 675 251 l 677 247 q 594 61 680 136 q 382 -14 509 -14 q 131 90 220 -14 q 42 356 42 194 l 42 376 q 131 643 42 538 q 381 747 219 747 q 597 670 515 747 q 677 467 680 593 l 675 463 l 495 463 q 465 557 495 519 q 381 595 435 595 q 272 533 304 595 q 240 376 240 472 l 240 356 q 272 198 240 258 q 382 138 304 138 z "},"d":{"ha":784,"x_min":45,"x_max":707,"o":"m 45 361 q 120 641 45 534 q 332 747 195 747 q 431 724 387 747 q 508 656 475 700 l 508 1058 l 707 1058 l 707 0 l 538 0 l 521 90 q 439 13 486 39 q 330 -14 391 -14 q 120 85 195 -14 q 45 347 45 184 l 45 361 m 243 347 q 275 195 243 250 q 381 140 308 140 q 456 157 424 140 q 508 208 488 174 l 508 520 q 456 574 488 555 q 382 593 425 593 q 276 529 310 593 q 243 361 243 465 l 243 347 z "},"e":{"ha":726,"x_min":45,"x_max":687,"o":"m 394 -14 q 138 86 230 -14 q 45 346 45 187 l 45 373 q 135 643 45 538 q 381 747 224 748 q 608 657 529 747 q 687 413 687 566 l 687 311 l 250 311 l 248 307 q 293 184 252 231 q 415 138 334 138 q 528 151 481 138 q 624 193 574 165 l 677 71 q 558 10 633 35 q 394 -14 483 -14 m 381 595 q 289 554 321 595 q 250 445 257 513 l 252 441 l 493 441 l 493 456 q 467 558 493 521 q 381 595 440 595 z "},"f":{"ha":484,"x_min":18,"x_max":507,"o":"m 127 0 l 127 595 l 18 595 l 18 734 l 127 734 l 127 815 q 199 1005 127 939 q 399 1072 270 1072 q 450 1068 424 1072 q 507 1058 476 1065 l 490 911 q 459 916 474 913 q 423 918 444 918 q 350 891 375 918 q 326 815 326 865 l 326 734 l 467 734 l 467 595 l 326 595 l 326 0 l 127 0 z "},"g":{"ha":784,"x_min":47,"x_max":708,"o":"m 47 361 q 122 641 47 534 q 334 747 197 747 q 442 720 395 747 q 522 640 489 692 l 538 734 l 708 734 l 708 3 q 614 -218 708 -140 q 353 -296 521 -296 q 235 -281 298 -296 q 120 -239 173 -266 l 153 -92 q 247 -124 199 -113 q 352 -136 296 -136 q 472 -102 433 -136 q 510 4 510 -68 l 510 71 q 433 7 477 29 q 332 -14 389 -14 q 122 85 197 -14 q 47 347 47 184 l 47 361 m 245 347 q 277 195 245 250 q 382 140 309 140 q 459 156 428 140 q 510 205 491 173 l 510 523 q 459 575 491 557 q 384 593 428 593 q 278 529 311 593 q 245 361 245 465 l 245 347 z "},"h":{"ha":784,"x_min":71,"x_max":711,"o":"m 269 641 q 354 719 304 691 q 465 747 404 747 q 645 671 580 747 q 711 435 711 595 l 711 0 l 513 0 l 513 437 q 485 558 513 522 q 403 593 458 593 q 324 579 357 593 q 269 537 290 564 l 269 0 l 71 0 l 71 1058 l 269 1058 l 269 641 z "},"i":{"ha":371,"x_min":86,"x_max":284,"o":"m 284 0 l 86 0 l 86 734 l 284 734 l 284 0 m 284 909 l 86 909 l 86 1058 l 284 1058 l 284 909 z "},"j":{"ha":368,"x_min":-66,"x_max":290,"o":"m 290 734 l 290 -27 q 221 -226 290 -156 q 31 -296 153 -296 q -19 -294 3 -296 q -66 -285 -41 -291 l -57 -134 q -26 -140 -41 -138 q 7 -142 -10 -142 q 69 -114 47 -142 q 91 -27 91 -85 l 91 734 l 290 734 m 286 911 l 87 911 l 87 1058 l 286 1058 l 286 911 z "},"k":{"ha":744,"x_min":76,"x_max":755,"o":"m 324 307 l 274 307 l 274 0 l 76 0 l 76 1058 l 274 1058 l 274 458 l 318 458 l 494 734 l 723 734 l 484 399 l 755 0 l 528 0 l 324 307 z "},"l":{"ha":371,"x_min":86,"x_max":284,"o":"m 284 0 l 86 0 l 86 1058 l 284 1058 l 284 0 z "},"m":{"ha":1202,"x_min":76,"x_max":1126,"o":"m 260 734 l 268 637 q 356 719 303 690 q 479 747 410 747 q 600 716 550 747 q 676 622 650 685 q 764 714 710 681 q 892 747 819 747 q 1063 670 1000 747 q 1126 435 1126 593 l 1126 0 l 928 0 l 928 436 q 901 559 928 524 q 820 593 873 593 q 747 575 778 593 q 698 523 716 556 q 699 501 698 510 q 699 482 699 492 l 699 0 l 502 0 l 502 436 q 475 558 502 522 q 393 593 448 593 q 323 578 353 593 q 273 535 293 563 l 273 0 l 76 0 l 76 734 l 260 734 z "},"n":{"ha":784,"x_min":73,"x_max":712,"o":"m 257 734 l 266 629 q 356 716 302 685 q 476 747 410 747 q 650 676 587 747 q 712 450 712 604 l 712 0 l 513 0 l 513 449 q 486 561 513 528 q 404 593 458 593 q 326 577 359 593 q 271 531 292 560 l 271 0 l 73 0 l 73 734 l 257 734 z "},"o":{"ha":784,"x_min":45,"x_max":738,"o":"m 45 374 q 137 643 45 538 q 391 747 229 747 q 646 643 553 747 q 738 374 738 538 l 738 359 q 646 90 738 194 q 392 -14 554 -14 q 137 90 229 -14 q 45 359 45 194 l 45 374 m 243 359 q 278 198 243 259 q 392 138 313 138 q 504 199 469 138 q 540 359 540 260 l 540 374 q 504 533 540 471 q 391 595 468 595 q 278 533 314 595 q 243 374 243 471 l 243 359 z "},"p":{"ha":784,"x_min":76,"x_max":738,"o":"m 738 347 q 663 85 738 184 q 452 -14 587 -14 q 350 7 395 -14 q 273 70 305 28 l 273 -282 l 76 -282 l 76 734 l 254 734 l 266 647 q 344 721 298 695 q 451 747 390 747 q 663 641 587 747 q 738 361 738 534 l 738 347 m 540 361 q 505 529 540 465 q 399 593 471 593 q 323 575 355 593 q 273 523 292 557 l 273 201 q 323 154 292 170 q 401 138 355 138 q 506 194 473 138 q 540 347 540 250 l 540 361 z "},"q":{"ha":784,"x_min":45,"x_max":705,"o":"m 45 361 q 120 641 45 534 q 332 747 195 747 q 439 721 393 747 q 518 644 485 694 l 536 734 l 705 734 l 705 -282 l 507 -282 l 507 68 q 430 7 474 28 q 330 -14 387 -14 q 120 85 195 -14 q 45 347 45 184 l 45 361 m 243 347 q 275 194 243 250 q 381 138 308 138 q 456 154 425 138 q 507 201 487 170 l 507 527 q 456 577 487 559 q 382 595 425 595 q 276 530 310 595 q 243 361 243 465 l 243 347 z "},"r":{"ha":489,"x_min":76,"x_max":483,"o":"m 462 564 l 389 566 q 317 547 345 566 q 273 496 288 529 l 273 0 l 76 0 l 76 734 l 260 734 l 269 625 q 335 715 294 683 q 430 747 376 747 q 457 745 445 747 q 483 739 470 743 l 462 564 z "},"s":{"ha":716,"x_min":39,"x_max":665,"o":"m 473 203 q 441 259 473 236 q 324 300 410 283 q 129 378 195 326 q 62 520 62 431 q 142 681 62 614 q 355 747 222 747 q 577 681 494 747 q 658 515 661 614 l 656 511 l 465 511 q 437 583 465 555 q 355 611 408 611 q 279 587 307 611 q 252 529 252 564 q 280 474 252 495 q 397 435 309 452 q 598 356 532 408 q 665 211 665 303 q 580 49 665 112 q 356 -14 495 -14 q 124 60 210 -14 q 43 229 39 134 l 45 233 l 226 233 q 264 148 228 174 q 360 121 301 121 q 444 143 415 121 q 473 203 473 165 z "},"t":{"ha":484,"x_min":9,"x_max":448,"o":"m 313 913 l 313 734 l 437 734 l 437 595 l 313 595 l 313 221 q 331 160 313 178 q 378 142 349 142 q 406 143 394 142 q 432 149 417 145 l 448 6 q 390 -9 418 -4 q 329 -14 362 -14 q 171 42 227 -14 q 116 220 116 98 l 116 595 l 9 595 l 9 734 l 116 734 l 116 913 l 313 913 z "},"u":{"ha":784,"x_min":71,"x_max":711,"o":"m 526 109 q 439 18 492 50 q 318 -14 387 -14 q 137 64 202 -14 q 71 309 71 143 l 71 734 l 269 734 l 269 307 q 295 175 269 211 q 376 140 321 140 q 457 155 423 140 q 513 200 491 170 l 513 734 l 711 734 l 711 0 l 547 0 l 526 109 z "},"v":{"ha":709,"x_min":11,"x_max":699,"o":"m 341 273 l 354 205 l 358 205 l 372 273 l 492 734 l 699 734 l 450 0 l 260 0 l 11 734 l 218 734 l 341 273 z "},"w":{"ha":1022,"x_min":20,"x_max":1000,"o":"m 714 273 l 718 273 l 807 734 l 1000 734 l 813 0 l 648 0 l 511 423 l 507 423 l 371 0 l 206 0 l 20 734 l 212 734 l 302 275 l 307 275 l 444 734 l 576 734 l 714 273 z "},"x":{"ha":709,"x_min":13,"x_max":700,"o":"m 352 500 l 356 500 l 469 734 l 692 734 l 471 371 l 700 0 l 477 0 l 357 243 l 237 0 l 13 0 l 241 371 l 20 734 l 242 734 l 352 500 z "},"y":{"ha":709,"x_min":3,"x_max":706,"o":"m 340 308 l 349 267 l 353 267 l 493 734 l 706 734 l 408 -110 q 323 -242 377 -189 q 163 -296 270 -296 q 116 -292 138 -296 q 64 -281 95 -288 l 87 -136 q 106 -139 96 -138 q 125 -140 117 -140 q 200 -116 174 -140 q 241 -56 227 -92 l 264 1 l 3 734 l 216 734 l 340 308 z "},"z":{"ha":709,"x_min":51,"x_max":661,"o":"m 297 152 l 661 152 l 661 0 l 51 0 l 51 117 l 400 581 l 62 581 l 62 734 l 649 734 l 649 621 l 297 152 z "},"{":{"ha":458,"x_min":33,"x_max":435,"o":"m 397 -244 q 209 -125 264 -207 q 153 72 153 -44 l 153 210 q 123 314 153 277 q 33 351 94 351 l 33 488 q 123 525 94 488 q 153 630 153 562 l 153 768 q 209 965 153 884 q 397 1083 264 1046 l 435 977 q 353 902 377 956 q 330 768 330 848 l 330 630 q 299 505 330 559 q 208 420 269 450 q 299 333 269 388 q 330 210 330 279 l 330 72 q 353 -62 330 -8 q 435 -137 377 -116 l 397 -244 z "},"|":{"ha":352,"x_min":97,"x_max":254,"o":"m 254 -183 l 97 -183 l 97 987 l 254 987 l 254 -183 z "},"}":{"ha":458,"x_min":23,"x_max":426,"o":"m 23 -137 q 104 -62 81 -116 q 128 72 128 -8 l 128 210 q 159 334 128 280 q 254 419 191 389 q 159 504 191 450 q 128 630 128 559 l 128 768 q 104 902 128 848 q 23 977 81 956 l 61 1083 q 249 965 193 1046 q 305 768 305 884 l 305 630 q 334 525 305 562 q 426 488 363 488 l 426 351 q 334 314 363 351 q 305 210 305 277 l 305 72 q 249 -125 305 -44 q 61 -244 193 -207 l 23 -137 z "},"~":{"ha":900,"x_min":71,"x_max":827,"o":"m 827 514 q 767 331 827 405 q 616 256 707 256 q 509 278 558 256 q 408 347 460 299 q 347 390 372 376 q 292 404 321 404 q 232 369 256 404 q 208 286 208 334 l 71 304 q 130 487 71 414 q 281 559 189 559 q 389 537 338 559 q 492 469 440 514 q 550 426 525 439 q 606 412 576 412 q 665 448 640 412 q 690 532 690 483 l 827 514 z "}," ":{"ha":346,"x_min":0,"x_max":0,"o":"z "},"¡":{"ha":393,"x_min":96,"x_max":294,"o":"m 294 -254 l 96 -254 l 96 393 l 294 393 l 294 -254 m 294 559 l 96 559 l 96 734 l 294 734 l 294 559 z "},"¢":{"ha":801,"x_min":42,"x_max":681,"o":"m 382 138 q 465 169 434 138 q 495 251 495 199 l 676 251 l 678 248 q 623 91 680 159 q 475 -2 567 22 l 475 -166 l 339 -166 l 339 -12 q 119 104 196 3 q 42 356 42 205 l 42 376 q 119 628 42 526 q 339 745 196 730 l 339 894 l 475 894 l 475 736 q 625 639 570 711 q 681 463 681 567 l 495 463 q 465 557 495 519 q 381 595 435 595 q 272 533 304 595 q 240 376 240 472 l 240 356 q 272 198 240 258 q 382 138 304 138 z "},"£":{"ha":825,"x_min":62,"x_max":781,"o":"m 374 399 l 376 341 q 356 239 376 288 q 298 152 336 191 l 781 152 l 781 0 l 106 0 l 106 152 l 113 152 q 160 216 144 160 q 176 332 176 273 l 174 399 l 62 399 l 62 551 l 168 551 l 162 696 q 244 920 162 839 q 463 1002 326 1002 q 689 926 608 1002 q 766 726 769 850 l 765 722 l 572 722 q 541 818 572 787 q 462 849 510 849 q 387 809 414 849 q 360 696 360 770 l 367 551 l 608 551 l 608 399 l 374 399 z "},"¤":{"ha":961,"x_min":54,"x_max":913,"o":"m 727 73 q 612 8 675 31 q 482 -14 550 -14 q 351 8 414 -14 q 237 72 288 31 l 150 -18 l 54 80 l 146 173 q 95 285 113 224 q 78 412 78 346 q 97 544 78 481 q 152 660 116 607 l 54 760 l 150 857 l 246 759 q 356 817 296 796 q 482 837 416 837 q 608 816 547 837 q 719 758 668 795 l 817 858 l 913 760 l 812 657 q 866 542 847 604 q 885 412 885 480 q 868 287 885 347 q 819 176 850 227 l 913 80 l 817 -18 l 727 73 m 204 412 q 285 201 204 287 q 482 115 366 115 q 679 201 597 115 q 760 412 760 288 q 679 623 760 536 q 482 709 597 709 q 285 623 366 709 q 204 412 204 536 z "},"¥":{"ha":850,"x_min":15,"x_max":834,"o":"m 422 575 l 427 575 l 617 987 l 834 987 l 575 503 l 741 503 l 741 391 l 521 391 l 521 307 l 741 307 l 741 195 l 521 195 l 521 0 l 323 0 l 323 195 l 93 195 l 93 307 l 323 307 l 323 391 l 93 391 l 93 503 l 274 503 l 15 987 l 233 987 l 422 575 z "},"¦":{"ha":351,"x_min":86,"x_max":264,"o":"m 86 -183 l 86 356 l 264 356 l 264 -183 l 86 -183 m 264 473 l 86 473 l 86 987 l 264 987 l 264 473 z "},"§":{"ha":873,"x_min":64,"x_max":800,"o":"m 800 322 q 772 214 800 260 q 690 139 743 168 q 759 57 736 104 q 783 -57 783 9 q 688 -245 783 -177 q 432 -313 593 -313 q 169 -245 275 -313 q 67 -30 64 -178 l 68 -26 l 260 -25 q 310 -128 260 -97 q 432 -159 359 -159 q 545 -131 505 -159 q 585 -58 585 -103 q 544 15 585 -12 q 388 77 503 43 q 143 183 222 120 q 64 363 64 247 q 92 471 64 424 q 174 547 121 517 q 104 629 127 581 q 81 743 81 677 q 177 931 81 860 q 434 1002 273 1002 q 692 926 599 1002 q 782 715 785 851 l 781 711 l 589 711 q 548 810 589 771 q 434 849 507 849 q 318 820 357 849 q 279 745 279 790 q 317 668 279 694 q 475 609 355 642 q 721 502 642 566 q 800 322 800 439 m 406 450 q 356 464 379 456 q 312 479 333 471 q 274 439 286 464 q 261 381 261 414 q 299 299 261 327 q 456 235 336 271 q 503 222 479 229 q 550 208 526 215 q 591 248 576 222 q 606 305 606 273 q 564 384 606 353 q 406 450 522 414 z "},"¨":{"ha":739,"x_min":106,"x_max":625,"o":"m 625 849 l 445 849 l 445 987 l 625 987 l 625 849 m 286 849 l 106 849 l 106 987 l 286 987 l 286 849 z "},"©":{"ha":1089,"x_min":58,"x_max":1021,"o":"m 752 404 l 753 400 q 696 244 756 298 q 530 191 637 191 q 358 263 422 191 q 294 454 294 335 l 294 534 q 358 724 294 652 q 530 797 422 797 q 697 743 637 797 q 754 588 757 689 l 753 584 l 652 584 q 622 676 652 648 q 530 705 591 705 q 433 659 467 705 q 399 535 399 612 l 399 454 q 433 329 399 376 q 530 283 467 283 q 622 311 591 283 q 652 404 652 339 l 752 404 m 141 494 q 257 193 141 315 q 540 71 374 71 q 822 193 705 71 q 938 494 938 315 q 822 794 938 673 q 540 916 705 916 q 257 794 373 916 q 141 494 141 673 m 58 494 q 199 854 58 708 q 540 1001 339 1001 q 881 854 740 1001 q 1021 494 1021 708 q 880 133 1021 280 q 540 -14 739 -14 q 199 133 339 -14 q 58 494 58 280 z "},"ª":{"ha":616,"x_min":76,"x_max":530,"o":"m 410 479 q 401 509 404 493 q 395 543 397 525 q 335 490 373 511 q 245 469 298 469 q 120 511 164 469 q 76 624 76 552 q 133 740 76 699 q 300 781 191 781 l 393 781 l 393 815 q 373 879 393 857 q 315 901 353 901 q 245 884 270 901 q 221 834 221 866 l 109 843 l 109 847 q 162 958 104 913 q 315 1002 220 1002 q 459 954 406 1002 q 512 814 512 905 l 512 602 q 516 537 512 567 q 530 479 520 507 l 410 479 m 274 567 q 345 587 309 567 q 393 631 382 608 l 393 701 l 301 701 q 223 680 251 701 q 195 627 195 658 q 214 582 195 597 q 274 567 234 567 z "},"«":{"ha":695,"x_min":66,"x_max":610,"o":"m 220 349 l 382 79 l 256 79 l 66 343 l 66 356 l 256 621 l 382 621 l 220 349 m 447 349 l 610 79 l 483 79 l 293 343 l 293 356 l 483 621 l 610 621 l 447 349 z "},"¬":{"ha":766,"x_min":85,"x_max":652,"o":"m 652 254 l 516 254 l 516 430 l 85 430 l 85 546 l 652 546 l 652 254 z "},"­":{"ha":605,"x_min":99,"x_max":498,"o":"m 498 346 l 99 346 l 99 498 l 498 498 l 498 346 z "},"®":{"ha":1089,"x_min":58,"x_max":1021,"o":"m 58 494 q 199 854 58 708 q 540 1001 339 1001 q 881 854 740 1001 q 1021 494 1021 708 q 880 133 1021 280 q 540 -14 739 -14 q 199 133 339 -14 q 58 494 58 280 m 141 494 q 257 193 141 315 q 540 71 374 71 q 822 193 705 71 q 938 494 938 315 q 822 794 938 673 q 540 916 705 916 q 257 794 373 916 q 141 494 141 673 m 442 443 l 442 214 l 340 214 l 340 791 l 530 791 q 692 745 633 791 q 751 613 751 699 q 731 544 751 574 q 673 494 711 515 q 731 436 713 473 q 749 349 749 399 l 749 311 q 751 261 749 283 q 760 225 753 239 l 760 214 l 655 214 q 648 256 649 229 q 646 312 646 283 l 646 349 q 624 420 646 397 q 549 443 601 443 l 442 443 m 442 534 l 534 534 q 615 554 582 534 q 649 612 649 574 q 623 681 649 661 q 530 701 596 701 l 442 701 l 442 534 z "},"¯":{"ha":697,"x_min":100,"x_max":596,"o":"m 596 876 l 100 876 l 100 988 l 596 988 l 596 876 z "},"°":{"ha":540,"x_min":85,"x_max":452,"o":"m 85 816 q 140 947 85 892 q 271 1002 195 1002 q 399 947 345 1002 q 452 816 452 892 q 399 686 452 739 q 271 632 345 632 q 140 686 194 632 q 85 816 85 739 m 185 816 q 210 756 185 780 q 271 732 235 732 q 329 755 305 732 q 353 816 353 779 q 329 878 353 852 q 271 903 305 903 q 210 878 235 903 q 185 816 185 852 z "},"±":{"ha":747,"x_min":61,"x_max":682,"o":"m 460 642 l 682 642 l 682 485 l 460 485 l 460 225 l 287 225 l 287 485 l 61 485 l 61 642 l 287 642 l 287 888 l 460 888 l 460 642 m 643 -29 l 77 -29 l 77 125 l 643 125 l 643 -29 z "},"²":{"ha":583,"x_min":69,"x_max":499,"o":"m 499 452 l 77 452 l 77 557 l 287 728 q 339 785 328 762 q 351 836 351 808 q 335 880 351 862 q 286 898 319 898 q 230 878 249 898 q 211 825 211 857 l 75 825 l 73 829 q 129 952 69 901 q 290 1003 189 1003 q 441 959 387 1003 q 494 835 494 915 q 458 737 494 779 q 337 625 422 694 l 263 562 l 264 557 l 499 557 l 499 452 z "},"³":{"ha":581,"x_min":60,"x_max":511,"o":"m 277 772 q 339 789 319 772 q 359 837 359 806 q 340 880 359 863 q 283 897 321 897 q 230 882 249 897 q 210 846 210 867 l 75 846 l 73 850 q 129 961 69 919 q 279 1002 189 1002 q 443 962 382 1002 q 503 847 503 922 q 478 779 503 810 q 413 731 454 748 q 486 683 460 715 q 511 604 511 650 q 451 486 511 528 q 287 444 390 444 q 124 487 188 444 q 64 606 60 529 l 66 610 l 202 610 q 223 565 202 581 q 286 549 245 549 q 347 566 323 549 q 370 612 370 582 q 346 664 370 646 q 277 682 322 682 l 201 682 l 201 772 l 277 772 z "},"´":{"ha":493,"x_min":78,"x_max":435,"o":"m 213 1029 l 433 1029 l 435 1025 l 247 849 l 78 849 l 213 1029 z "},"µ":{"ha":857,"x_min":94,"x_max":749,"o":"m 292 734 l 292 313 q 322 176 292 212 q 414 140 353 140 q 498 158 465 140 q 551 212 532 177 l 551 734 l 749 734 l 749 0 l 565 0 l 561 45 q 493 1 531 16 q 409 -14 454 -14 q 345 -7 374 -14 q 292 16 315 0 l 292 -282 l 94 -282 l 94 734 l 292 734 z "},"¶":{"ha":731,"x_min":41,"x_max":629,"o":"m 431 0 l 431 353 l 375 353 q 129 440 217 353 q 41 670 41 528 q 129 899 41 810 q 375 987 217 987 l 629 987 l 629 0 l 431 0 z "},"·":{"ha":420,"x_min":108,"x_max":306,"o":"m 306 385 l 108 385 l 108 562 l 306 562 l 306 385 z "},"¸":{"ha":372,"x_min":66,"x_max":330,"o":"m 235 4 l 228 -35 q 300 -70 271 -42 q 330 -152 330 -98 q 268 -268 330 -224 q 92 -311 205 -311 l 87 -202 q 142 -188 121 -202 q 162 -146 162 -174 q 140 -107 162 -118 q 66 -92 119 -96 l 87 4 l 235 4 z "},"¹":{"ha":389,"x_min":53,"x_max":282,"o":"m 282 451 l 139 451 l 139 878 l 53 878 l 53 986 l 282 1002 l 282 451 z "},"º":{"ha":635,"x_min":80,"x_max":550,"o":"m 80 774 q 144 938 80 875 q 315 1002 208 1002 q 486 938 422 1002 q 550 774 550 875 l 550 695 q 486 531 550 594 q 316 469 422 469 q 144 531 208 469 q 80 695 80 594 l 80 774 m 199 695 q 229 603 199 637 q 316 568 258 568 q 401 603 372 568 q 431 695 431 637 l 431 774 q 401 866 431 831 q 315 901 371 901 q 228 866 258 901 q 199 774 199 831 l 199 695 z "},"»":{"ha":695,"x_min":69,"x_max":621,"o":"m 231 373 l 69 644 l 197 644 l 387 380 l 387 367 l 197 102 l 69 102 l 231 373 m 466 373 l 304 644 l 431 644 l 621 380 l 621 367 l 431 102 l 304 102 l 466 373 z "},"¼":{"ha":1013,"x_min":113,"x_max":1016,"o":"m 342 450 l 199 450 l 199 878 l 113 878 l 113 985 l 342 1001 l 342 450 m 306 79 l 210 130 l 692 902 l 788 851 l 306 79 m 947 201 l 1016 201 l 1016 94 l 947 94 l 947 0 l 804 0 l 804 94 l 526 94 l 517 180 l 804 543 l 947 543 l 947 201 m 663 201 l 804 201 l 804 375 l 800 376 l 791 363 l 663 201 z "},"½":{"ha":1053,"x_min":113,"x_max":1049,"o":"m 315 79 l 218 130 l 701 902 l 797 851 l 315 79 m 342 450 l 199 450 l 199 878 l 113 878 l 113 985 l 342 1001 l 342 450 m 1049 0 l 627 0 l 627 105 l 837 276 q 889 333 878 310 q 901 383 901 355 q 885 428 901 410 q 836 446 869 446 q 780 425 799 446 q 761 373 761 405 l 625 373 l 623 377 q 679 500 619 449 q 840 551 739 551 q 991 507 937 551 q 1044 382 1044 463 q 1008 284 1044 327 q 887 172 972 242 l 813 109 l 814 105 l 1049 105 l 1049 0 z "},"¾":{"ha":1164,"x_min":71,"x_max":1144,"o":"m 430 79 l 334 130 l 816 902 l 912 851 l 430 79 m 1076 201 l 1144 201 l 1144 94 l 1076 94 l 1076 0 l 932 0 l 932 94 l 654 94 l 645 180 l 932 543 l 1076 543 l 1076 201 m 791 201 l 932 201 l 932 375 l 928 376 l 920 363 l 791 201 m 288 773 q 350 790 330 773 q 370 838 370 806 q 351 881 370 863 q 294 898 332 898 q 240 883 260 898 q 221 847 221 868 l 85 847 l 84 851 q 140 961 80 920 q 290 1003 199 1003 q 453 963 393 1003 q 513 848 513 922 q 489 780 513 810 q 424 732 465 749 q 497 683 471 715 q 522 605 522 651 q 461 487 522 529 q 298 445 401 445 q 135 487 199 445 q 75 606 71 530 l 77 610 l 213 610 q 234 566 213 582 q 296 550 256 550 q 357 566 334 550 q 380 612 380 583 q 357 665 380 646 q 288 683 333 683 l 212 683 l 212 773 l 288 773 z "},"¿":{"ha":703,"x_min":51,"x_max":692,"o":"m 492 453 q 464 313 491 357 q 355 206 436 269 q 278 121 307 167 q 249 20 249 75 q 282 -77 249 -41 q 376 -112 315 -112 q 460 -83 426 -112 q 497 4 495 -54 l 689 4 l 690 0 q 604 -198 692 -130 q 376 -267 516 -267 q 137 -191 223 -267 q 51 18 51 -114 q 101 176 51 103 q 228 300 151 250 q 282 363 269 331 q 295 453 295 395 l 492 453 m 294 734 l 493 734 l 493 564 l 294 564 l 294 734 z "},"À":{"ha":884,"x_min":12,"x_max":880,"o":"m 606 213 l 286 213 l 219 0 l 12 0 l 345 987 l 548 987 l 880 0 l 673 0 l 606 213 m 334 368 l 557 368 l 448 716 l 444 716 l 334 368 m 538 1085 l 368 1085 l 183 1261 l 184 1265 l 405 1265 l 538 1085 z "},"Á":{"ha":884,"x_min":12,"x_max":880,"o":"m 606 213 l 286 213 l 219 0 l 12 0 l 345 987 l 548 987 l 880 0 l 673 0 l 606 213 m 334 368 l 557 368 l 448 716 l 444 716 l 334 368 m 482 1265 l 703 1265 l 704 1261 l 516 1085 l 347 1085 l 482 1265 z "},"Â":{"ha":884,"x_min":12,"x_max":880,"o":"m 606 213 l 286 213 l 219 0 l 12 0 l 345 987 l 548 987 l 880 0 l 673 0 l 606 213 m 334 368 l 557 368 l 448 716 l 444 716 l 334 368 m 695 1095 l 695 1080 l 538 1080 l 443 1170 l 349 1080 l 195 1080 l 195 1097 l 386 1260 l 500 1260 l 695 1095 z "},"Ã":{"ha":884,"x_min":12,"x_max":880,"o":"m 606 213 l 286 213 l 219 0 l 12 0 l 345 987 l 548 987 l 880 0 l 673 0 l 606 213 m 334 368 l 557 368 l 448 716 l 444 716 l 334 368 m 696 1259 q 656 1148 696 1194 q 554 1102 616 1102 q 447 1132 507 1102 q 351 1161 387 1161 q 311 1139 327 1161 q 294 1086 294 1117 l 189 1115 q 229 1226 189 1179 q 330 1273 269 1273 q 433 1243 368 1273 q 534 1214 498 1214 q 574 1236 557 1214 q 592 1289 592 1257 l 696 1259 z "},"Ä":{"ha":884,"x_min":12,"x_max":880,"o":"m 606 213 l 286 213 l 219 0 l 12 0 l 345 987 l 548 987 l 880 0 l 673 0 l 606 213 m 334 368 l 557 368 l 448 716 l 444 716 l 334 368 m 703 1086 l 522 1086 l 522 1224 l 703 1224 l 703 1086 m 363 1086 l 183 1086 l 183 1224 l 363 1224 l 363 1086 z "},"Å":{"ha":884,"x_min":12,"x_max":880,"o":"m 606 213 l 286 213 l 219 0 l 12 0 l 345 987 l 548 987 l 880 0 l 673 0 l 606 213 m 334 368 l 557 368 l 448 716 l 444 716 l 334 368 m 316 1184 q 353 1267 316 1234 q 444 1301 389 1301 q 533 1267 496 1301 q 569 1184 569 1234 q 533 1102 569 1134 q 444 1069 496 1069 q 353 1102 389 1069 q 316 1184 316 1134 m 395 1184 q 409 1149 395 1163 q 444 1135 422 1135 q 477 1149 464 1135 q 490 1184 490 1162 q 477 1220 490 1206 q 444 1234 464 1234 q 409 1220 422 1234 q 395 1184 395 1206 z "},"Æ":{"ha":1319,"x_min":8,"x_max":1271,"o":"m 1271 0 l 662 0 l 652 227 l 354 227 l 240 0 l 8 0 l 540 987 l 1229 987 l 1229 833 l 825 833 l 836 585 l 1174 585 l 1174 431 l 842 431 l 853 154 l 1271 154 l 1271 0 m 435 390 l 646 390 l 630 769 l 626 770 l 435 390 z "},"Ç":{"ha":884,"x_min":67,"x_max":837,"o":"m 831 327 l 833 323 q 736 75 836 165 q 463 -14 637 -14 q 176 100 286 -14 q 67 395 67 214 l 67 591 q 174 887 67 772 q 453 1002 280 1002 q 735 913 633 1002 q 834 665 837 825 l 833 661 l 640 661 q 594 803 640 756 q 453 849 549 849 q 314 778 364 849 q 264 593 264 706 l 264 395 q 317 210 264 281 q 463 138 370 138 q 596 184 552 138 q 640 327 640 231 l 831 327 m 529 3 l 522 -36 q 594 -71 565 -43 q 623 -153 623 -99 q 561 -269 623 -226 q 385 -313 499 -313 l 380 -203 q 435 -190 415 -203 q 456 -147 456 -176 q 434 -108 456 -119 q 359 -94 412 -97 l 380 3 l 529 3 z "},"È":{"ha":772,"x_min":91,"x_max":724,"o":"m 655 434 l 289 434 l 289 152 l 724 152 l 724 0 l 91 0 l 91 987 l 723 987 l 723 835 l 289 835 l 289 587 l 655 587 l 655 434 m 503 1085 l 332 1085 l 148 1261 l 149 1265 l 370 1265 l 503 1085 z "},"É":{"ha":772,"x_min":91,"x_max":724,"o":"m 655 434 l 289 434 l 289 152 l 724 152 l 724 0 l 91 0 l 91 987 l 723 987 l 723 835 l 289 835 l 289 587 l 655 587 l 655 434 m 447 1265 l 667 1265 l 669 1261 l 481 1085 l 312 1085 l 447 1265 z "},"Ê":{"ha":772,"x_min":91,"x_max":724,"o":"m 655 434 l 289 434 l 289 152 l 724 152 l 724 0 l 91 0 l 91 987 l 723 987 l 723 835 l 289 835 l 289 587 l 655 587 l 655 434 m 660 1095 l 660 1080 l 503 1080 l 408 1170 l 313 1080 l 159 1080 l 159 1097 l 351 1260 l 465 1260 l 660 1095 z "},"Ë":{"ha":772,"x_min":91,"x_max":724,"o":"m 655 434 l 289 434 l 289 152 l 724 152 l 724 0 l 91 0 l 91 987 l 723 987 l 723 835 l 289 835 l 289 587 l 655 587 l 655 434 m 667 1086 l 487 1086 l 487 1224 l 667 1224 l 667 1086 m 328 1086 l 148 1086 l 148 1224 l 328 1224 l 328 1086 z "},"Ì":{"ha":408,"x_min":-56,"x_max":302,"o":"m 302 0 l 104 0 l 104 987 l 302 987 l 302 0 m 299 1085 l 129 1085 l -56 1261 l -54 1265 l 166 1265 l 299 1085 z "},"Í":{"ha":408,"x_min":104,"x_max":465,"o":"m 302 0 l 104 0 l 104 987 l 302 987 l 302 0 m 243 1265 l 463 1265 l 465 1261 l 277 1085 l 108 1085 l 243 1265 z "},"Î":{"ha":408,"x_min":-44,"x_max":456,"o":"m 302 0 l 104 0 l 104 987 l 302 987 l 302 0 m 456 1095 l 456 1080 l 299 1080 l 204 1170 l 110 1080 l -44 1080 l -44 1097 l 147 1260 l 262 1260 l 456 1095 z "},"Ï":{"ha":408,"x_min":-56,"x_max":464,"o":"m 302 0 l 104 0 l 104 987 l 302 987 l 302 0 m 464 1086 l 283 1086 l 283 1224 l 464 1224 l 464 1086 m 125 1086 l -56 1086 l -56 1224 l 125 1224 l 125 1086 z "},"Ð":{"ha":919,"x_min":-1,"x_max":851,"o":"m 91 0 l 91 442 l -1 442 l -1 565 l 91 565 l 91 987 l 435 987 q 734 872 616 987 q 851 575 851 756 l 851 412 q 734 115 851 230 q 435 0 616 0 l 91 0 m 454 442 l 289 442 l 289 152 l 435 152 q 593 225 533 152 q 652 412 652 298 l 652 576 q 593 762 652 690 q 435 835 533 835 l 289 835 l 289 565 l 454 565 l 454 442 z "},"Ñ":{"ha":980,"x_min":91,"x_max":889,"o":"m 889 0 l 691 0 l 293 666 l 289 665 l 289 0 l 91 0 l 91 987 l 289 987 l 687 322 l 691 323 l 691 987 l 889 987 l 889 0 m 743 1259 q 703 1148 743 1194 q 601 1102 663 1102 q 493 1132 553 1102 q 398 1161 433 1161 q 357 1139 374 1161 q 341 1086 341 1117 l 235 1115 q 276 1226 235 1179 q 377 1273 316 1273 q 480 1243 415 1273 q 581 1214 545 1214 q 621 1236 604 1214 q 639 1289 639 1257 l 743 1259 z "},"Ò":{"ha":956,"x_min":66,"x_max":890,"o":"m 890 405 q 775 104 890 222 q 477 -14 661 -14 q 180 104 294 -14 q 66 405 66 223 l 66 583 q 179 883 66 764 q 475 1002 293 1002 q 774 883 659 1002 q 890 583 890 764 l 890 405 m 692 584 q 635 773 692 699 q 475 847 577 847 q 319 773 375 847 q 263 584 263 699 l 263 405 q 319 214 263 288 q 477 140 376 140 q 635 214 578 140 q 692 405 692 288 l 692 584 m 573 1099 l 403 1099 l 218 1276 l 220 1280 l 440 1280 l 573 1099 z "},"Ó":{"ha":956,"x_min":66,"x_max":890,"o":"m 890 405 q 775 104 890 222 q 477 -14 661 -14 q 180 104 294 -14 q 66 405 66 223 l 66 583 q 179 883 66 764 q 475 1002 293 1002 q 774 883 659 1002 q 890 583 890 764 l 890 405 m 692 584 q 635 773 692 699 q 475 847 577 847 q 319 773 375 847 q 263 584 263 699 l 263 405 q 319 214 263 288 q 477 140 376 140 q 635 214 578 140 q 692 405 692 288 l 692 584 m 517 1280 l 738 1280 l 739 1276 l 551 1099 l 382 1099 l 517 1280 z "},"Ô":{"ha":956,"x_min":66,"x_max":890,"o":"m 890 405 q 775 104 890 222 q 477 -14 661 -14 q 180 104 294 -14 q 66 405 66 223 l 66 583 q 179 883 66 764 q 475 1002 293 1002 q 774 883 659 1002 q 890 583 890 764 l 890 405 m 692 584 q 635 773 692 699 q 475 847 577 847 q 319 773 375 847 q 263 584 263 699 l 263 405 q 319 214 263 288 q 477 140 376 140 q 635 214 578 140 q 692 405 692 288 l 692 584 m 730 1109 l 730 1094 l 573 1094 l 478 1184 l 384 1094 l 230 1094 l 230 1112 l 421 1274 l 536 1274 l 730 1109 z "},"Õ":{"ha":956,"x_min":66,"x_max":890,"o":"m 890 405 q 775 104 890 222 q 477 -14 661 -14 q 180 104 294 -14 q 66 405 66 223 l 66 583 q 179 883 66 764 q 475 1002 293 1002 q 774 883 659 1002 q 890 583 890 764 l 890 405 m 692 584 q 635 773 692 699 q 475 847 577 847 q 319 773 375 847 q 263 584 263 699 l 263 405 q 319 214 263 288 q 477 140 376 140 q 635 214 578 140 q 692 405 692 288 l 692 584 m 732 1273 q 691 1162 732 1208 q 589 1116 651 1116 q 482 1146 542 1116 q 387 1175 422 1175 q 346 1153 362 1175 q 330 1101 330 1131 l 224 1129 q 264 1240 224 1193 q 366 1287 304 1287 q 469 1258 404 1287 q 569 1228 534 1228 q 610 1250 592 1228 q 627 1303 627 1272 l 732 1273 z "},"Ö":{"ha":956,"x_min":66,"x_max":890,"o":"m 890 405 q 775 104 890 222 q 477 -14 661 -14 q 180 104 294 -14 q 66 405 66 223 l 66 583 q 179 883 66 764 q 475 1002 293 1002 q 774 883 659 1002 q 890 583 890 764 l 890 405 m 692 584 q 635 773 692 699 q 475 847 577 847 q 319 773 375 847 q 263 584 263 699 l 263 405 q 319 214 263 288 q 477 140 376 140 q 635 214 578 140 q 692 405 692 288 l 692 584 m 738 1100 l 557 1100 l 557 1238 l 738 1238 l 738 1100 m 399 1100 l 218 1100 l 218 1238 l 399 1238 l 399 1100 z "},"×":{"ha":738,"x_min":43,"x_max":688,"o":"m 43 252 l 253 465 l 43 679 l 160 790 l 366 580 l 572 790 l 688 679 l 479 465 l 688 252 l 572 140 l 366 350 l 160 140 l 43 252 z "},"Ø":{"ha":956,"x_min":66,"x_max":890,"o":"m 890 405 q 775 104 890 222 q 477 -14 661 -14 q 373 -3 422 -14 q 281 31 324 8 l 226 -64 l 129 -64 l 211 76 q 103 218 141 132 q 66 405 66 303 l 66 583 q 179 883 66 764 q 475 1002 293 1002 q 602 984 542 1002 q 711 935 661 967 l 766 1029 l 863 1029 l 777 880 q 860 747 831 823 q 890 583 890 671 l 890 405 m 263 405 q 273 313 263 355 q 303 241 283 271 l 307 241 l 624 785 q 558 831 596 814 q 475 847 521 847 q 319 773 375 847 q 263 584 263 699 l 263 405 m 692 584 q 687 645 692 616 q 673 697 682 674 l 670 698 l 363 172 q 415 148 387 156 q 477 140 444 140 q 635 214 578 140 q 692 405 692 288 l 692 584 z "},"Ù":{"ha":954,"x_min":81,"x_max":873,"o":"m 873 987 l 873 341 q 763 80 873 174 q 476 -14 652 -14 q 191 80 300 -14 q 81 341 81 174 l 81 987 l 280 987 l 280 341 q 333 190 280 242 q 476 138 386 138 q 621 190 568 138 q 675 341 675 242 l 675 987 l 873 987 m 572 1085 l 402 1085 l 218 1261 l 219 1265 l 439 1265 l 572 1085 z "},"Ú":{"ha":954,"x_min":81,"x_max":873,"o":"m 873 987 l 873 341 q 763 80 873 174 q 476 -14 652 -14 q 191 80 300 -14 q 81 341 81 174 l 81 987 l 280 987 l 280 341 q 333 190 280 242 q 476 138 386 138 q 621 190 568 138 q 675 341 675 242 l 675 987 l 873 987 m 517 1265 l 737 1265 l 739 1261 l 551 1085 l 382 1085 l 517 1265 z "},"Û":{"ha":954,"x_min":81,"x_max":873,"o":"m 873 987 l 873 341 q 763 80 873 174 q 476 -14 652 -14 q 191 80 300 -14 q 81 341 81 174 l 81 987 l 280 987 l 280 341 q 333 190 280 242 q 476 138 386 138 q 621 190 568 138 q 675 341 675 242 l 675 987 l 873 987 m 730 1095 l 730 1080 l 572 1080 l 477 1170 l 383 1080 l 229 1080 l 229 1097 l 420 1260 l 535 1260 l 730 1095 z "},"Ü":{"ha":954,"x_min":81,"x_max":873,"o":"m 873 987 l 873 341 q 763 80 873 174 q 476 -14 652 -14 q 191 80 300 -14 q 81 341 81 174 l 81 987 l 280 987 l 280 341 q 333 190 280 242 q 476 138 386 138 q 621 190 568 138 q 675 341 675 242 l 675 987 l 873 987 m 737 1086 l 557 1086 l 557 1224 l 737 1224 l 737 1086 m 398 1086 l 218 1086 l 218 1224 l 398 1224 l 398 1086 z "},"Ý":{"ha":884,"x_min":7,"x_max":876,"o":"m 439 532 l 444 532 l 659 987 l 876 987 l 538 347 l 538 0 l 340 0 l 340 357 l 7 987 l 224 987 l 439 532 m 485 1265 l 705 1265 l 707 1261 l 519 1085 l 350 1085 l 485 1265 z "},"Þ":{"ha":846,"x_min":90,"x_max":802,"o":"m 288 987 l 288 804 l 437 804 q 706 720 610 804 q 802 500 802 636 q 706 280 802 364 q 437 196 610 196 l 288 196 l 288 0 l 90 0 l 90 987 l 288 987 m 288 652 l 288 349 l 437 349 q 563 392 521 349 q 604 499 604 435 q 563 608 604 564 q 437 652 521 652 l 288 652 z "},"ß":{"ha":878,"x_min":92,"x_max":832,"o":"m 289 0 l 92 0 l 92 747 q 179 983 92 900 q 418 1067 267 1067 q 621 1002 540 1067 q 701 818 701 937 q 665 679 701 745 q 629 566 629 612 q 730 432 629 528 q 832 241 832 336 q 754 50 832 113 q 529 -14 676 -14 q 420 -4 474 -14 q 340 24 366 6 l 377 175 q 442 149 404 160 q 525 138 481 138 q 606 163 576 138 q 635 233 635 189 q 533 373 635 281 q 431 560 431 464 q 468 689 431 621 q 505 808 505 757 q 475 884 505 854 q 405 915 444 915 q 321 869 353 915 q 289 744 289 823 l 289 0 z "},"à":{"ha":746,"x_min":39,"x_max":706,"o":"m 509 0 q 490 53 498 25 q 479 110 482 81 q 398 21 448 56 q 279 -14 348 -14 q 101 45 163 -14 q 39 207 39 104 q 122 374 39 315 q 364 433 205 433 l 475 433 l 475 492 q 448 574 475 545 q 365 603 420 603 q 291 579 317 603 q 264 515 264 556 l 74 515 l 73 519 q 154 680 68 612 q 378 747 239 747 q 592 681 510 747 q 673 490 673 614 l 673 187 q 681 90 673 136 q 706 0 689 45 l 509 0 m 328 132 q 420 158 379 132 q 475 218 460 184 l 475 321 l 364 321 q 269 290 301 321 q 237 214 237 259 q 261 154 237 176 q 328 132 285 132 m 465 867 l 295 867 l 111 1043 l 112 1047 l 332 1047 l 465 867 z "},"á":{"ha":746,"x_min":39,"x_max":706,"o":"m 509 0 q 490 53 498 25 q 479 110 482 81 q 398 21 448 56 q 279 -14 348 -14 q 101 45 163 -14 q 39 207 39 104 q 122 374 39 315 q 364 433 205 433 l 475 433 l 475 492 q 448 574 475 545 q 365 603 420 603 q 291 579 317 603 q 264 515 264 556 l 74 515 l 73 519 q 154 680 68 612 q 378 747 239 747 q 592 681 510 747 q 673 490 673 614 l 673 187 q 681 90 673 136 q 706 0 689 45 l 509 0 m 328 132 q 420 158 379 132 q 475 218 460 184 l 475 321 l 364 321 q 269 290 301 321 q 237 214 237 259 q 261 154 237 176 q 328 132 285 132 m 410 1047 l 630 1047 l 631 1043 l 444 867 l 275 867 l 410 1047 z "},"â":{"ha":746,"x_min":39,"x_max":706,"o":"m 509 0 q 490 53 498 25 q 479 110 482 81 q 398 21 448 56 q 279 -14 348 -14 q 101 45 163 -14 q 39 207 39 104 q 122 374 39 315 q 364 433 205 433 l 475 433 l 475 492 q 448 574 475 545 q 365 603 420 603 q 291 579 317 603 q 264 515 264 556 l 74 515 l 73 519 q 154 680 68 612 q 378 747 239 747 q 592 681 510 747 q 673 490 673 614 l 673 187 q 681 90 673 136 q 706 0 689 45 l 509 0 m 328 132 q 420 158 379 132 q 475 218 460 184 l 475 321 l 364 321 q 269 290 301 321 q 237 214 237 259 q 261 154 237 176 q 328 132 285 132 m 623 877 l 623 861 l 465 861 l 370 951 l 276 861 l 122 861 l 122 879 l 313 1042 l 428 1042 l 623 877 z "},"ã":{"ha":746,"x_min":39,"x_max":706,"o":"m 509 0 q 490 53 498 25 q 479 110 482 81 q 398 21 448 56 q 279 -14 348 -14 q 101 45 163 -14 q 39 207 39 104 q 122 374 39 315 q 364 433 205 433 l 475 433 l 475 492 q 448 574 475 545 q 365 603 420 603 q 291 579 317 603 q 264 515 264 556 l 74 515 l 73 519 q 154 680 68 612 q 378 747 239 747 q 592 681 510 747 q 673 490 673 614 l 673 187 q 681 90 673 136 q 706 0 689 45 l 509 0 m 328 132 q 420 158 379 132 q 475 218 460 184 l 475 321 l 364 321 q 269 290 301 321 q 237 214 237 259 q 261 154 237 176 q 328 132 285 132 m 624 1040 q 584 929 624 975 q 481 884 543 884 q 374 913 434 884 q 279 943 314 943 q 238 921 254 943 q 222 868 222 899 l 116 897 q 156 1007 116 960 q 258 1055 197 1055 q 361 1025 296 1055 q 461 996 426 996 q 502 1017 484 996 q 519 1071 519 1039 l 624 1040 z "},"ä":{"ha":746,"x_min":39,"x_max":706,"o":"m 509 0 q 490 53 498 25 q 479 110 482 81 q 398 21 448 56 q 279 -14 348 -14 q 101 45 163 -14 q 39 207 39 104 q 122 374 39 315 q 364 433 205 433 l 475 433 l 475 492 q 448 574 475 545 q 365 603 420 603 q 291 579 317 603 q 264 515 264 556 l 74 515 l 73 519 q 154 680 68 612 q 378 747 239 747 q 592 681 510 747 q 673 490 673 614 l 673 187 q 681 90 673 136 q 706 0 689 45 l 509 0 m 328 132 q 420 158 379 132 q 475 218 460 184 l 475 321 l 364 321 q 269 290 301 321 q 237 214 237 259 q 261 154 237 176 q 328 132 285 132 m 630 867 l 450 867 l 450 1006 l 630 1006 l 630 867 m 291 867 l 111 867 l 111 1006 l 291 1006 l 291 867 z "},"å":{"ha":746,"x_min":39,"x_max":706,"o":"m 509 0 q 490 53 498 25 q 479 110 482 81 q 398 21 448 56 q 279 -14 348 -14 q 101 45 163 -14 q 39 207 39 104 q 122 374 39 315 q 364 433 205 433 l 475 433 l 475 492 q 448 574 475 545 q 365 603 420 603 q 291 579 317 603 q 264 515 264 556 l 74 515 l 73 519 q 154 680 68 612 q 378 747 239 747 q 592 681 510 747 q 673 490 673 614 l 673 187 q 681 90 673 136 q 706 0 689 45 l 509 0 m 328 132 q 420 158 379 132 q 475 218 460 184 l 475 321 l 364 321 q 269 290 301 321 q 237 214 237 259 q 261 154 237 176 q 328 132 285 132 m 243 966 q 280 1049 243 1015 q 371 1082 317 1082 q 460 1049 424 1082 q 496 966 496 1015 q 460 883 496 916 q 371 851 424 851 q 280 883 317 851 q 243 966 243 916 m 322 966 q 336 931 322 945 q 371 917 350 917 q 405 930 391 917 q 418 966 418 944 q 405 1001 418 987 q 371 1015 391 1015 q 336 1001 350 1015 q 322 966 322 987 z "},"æ":{"ha":1201,"x_min":55,"x_max":1161,"o":"m 868 -14 q 713 13 781 -14 q 600 93 645 41 q 490 16 559 46 q 327 -14 421 -14 q 126 47 197 -14 q 55 215 55 109 q 141 381 55 323 q 391 439 227 439 l 514 439 l 514 479 q 487 564 514 533 q 409 595 459 595 q 322 569 354 595 q 291 506 291 544 l 100 518 l 98 522 q 181 684 94 620 q 411 747 267 747 q 537 729 480 747 q 634 675 594 710 q 730 729 675 710 q 852 747 785 747 q 1079 658 996 747 q 1161 415 1161 568 l 1161 308 l 720 308 l 718 304 q 763 183 721 229 q 889 138 805 138 q 993 151 951 138 q 1089 193 1035 165 l 1141 68 q 1026 11 1099 35 q 868 -14 954 -14 m 364 125 q 446 146 404 125 q 514 195 489 167 l 514 315 l 393 315 q 290 284 327 315 q 252 212 252 254 q 280 149 252 172 q 364 125 309 125 m 852 595 q 756 553 788 595 q 720 440 724 511 l 721 437 l 966 437 l 966 456 q 938 557 966 519 q 852 595 909 595 z "},"ç":{"ha":716,"x_min":42,"x_max":680,"o":"m 382 138 q 465 169 434 138 q 495 251 495 199 l 675 251 l 677 247 q 594 61 680 136 q 382 -14 509 -14 q 131 90 220 -14 q 42 356 42 194 l 42 376 q 131 643 42 538 q 381 747 219 747 q 597 670 515 747 q 677 467 680 593 l 675 463 l 495 463 q 465 557 495 519 q 381 595 435 595 q 272 533 304 595 q 240 376 240 472 l 240 356 q 272 198 240 258 q 382 138 304 138 m 452 3 l 445 -36 q 517 -71 488 -43 q 547 -153 547 -99 q 485 -269 547 -226 q 309 -313 422 -313 l 304 -203 q 359 -190 338 -203 q 379 -147 379 -176 q 357 -108 379 -119 q 283 -94 336 -97 l 304 3 l 452 3 z "},"è":{"ha":726,"x_min":45,"x_max":687,"o":"m 394 -14 q 138 86 230 -14 q 45 346 45 187 l 45 373 q 135 643 45 538 q 381 747 224 748 q 608 657 529 747 q 687 413 687 566 l 687 311 l 250 311 l 248 307 q 293 184 252 231 q 415 138 334 138 q 528 151 481 138 q 624 193 574 165 l 677 71 q 558 10 633 35 q 394 -14 483 -14 m 381 595 q 289 554 321 595 q 250 445 257 513 l 252 441 l 493 441 l 493 456 q 467 558 493 521 q 381 595 440 595 m 460 867 l 290 867 l 106 1044 l 107 1048 l 328 1048 l 460 867 z "},"é":{"ha":726,"x_min":45,"x_max":687,"o":"m 394 -14 q 138 86 230 -14 q 45 346 45 187 l 45 373 q 135 643 45 538 q 381 747 224 748 q 608 657 529 747 q 687 413 687 566 l 687 311 l 250 311 l 248 307 q 293 184 252 231 q 415 138 334 138 q 528 151 481 138 q 624 193 574 165 l 677 71 q 558 10 633 35 q 394 -14 483 -14 m 381 595 q 289 554 321 595 q 250 445 257 513 l 252 441 l 493 441 l 493 456 q 467 558 493 521 q 381 595 440 595 m 405 1048 l 625 1048 l 627 1044 l 439 867 l 270 867 l 405 1048 z "},"ê":{"ha":726,"x_min":45,"x_max":687,"o":"m 394 -14 q 138 86 230 -14 q 45 346 45 187 l 45 373 q 135 643 45 538 q 381 747 224 748 q 608 657 529 747 q 687 413 687 566 l 687 311 l 250 311 l 248 307 q 293 184 252 231 q 415 138 334 138 q 528 151 481 138 q 624 193 574 165 l 677 71 q 558 10 633 35 q 394 -14 483 -14 m 381 595 q 289 554 321 595 q 250 445 257 513 l 252 441 l 493 441 l 493 456 q 467 558 493 521 q 381 595 440 595 m 618 878 l 618 862 l 460 862 l 366 952 l 271 862 l 117 862 l 117 880 l 309 1042 l 423 1042 l 618 878 z "},"ë":{"ha":726,"x_min":45,"x_max":687,"o":"m 394 -14 q 138 86 230 -14 q 45 346 45 187 l 45 373 q 135 643 45 538 q 381 747 224 748 q 608 657 529 747 q 687 413 687 566 l 687 311 l 250 311 l 248 307 q 293 184 252 231 q 415 138 334 138 q 528 151 481 138 q 624 193 574 165 l 677 71 q 558 10 633 35 q 394 -14 483 -14 m 381 595 q 289 554 321 595 q 250 445 257 513 l 252 441 l 493 441 l 493 456 q 467 558 493 521 q 381 595 440 595 m 625 868 l 445 868 l 445 1006 l 625 1006 l 625 868 m 286 868 l 106 868 l 106 1006 l 286 1006 l 286 868 z "},"ì":{"ha":381,"x_min":-69,"x_max":288,"o":"m 288 0 l 90 0 l 90 734 l 288 734 l 288 0 m 286 852 l 115 852 l -69 1029 l -68 1033 l 153 1033 l 286 852 z "},"í":{"ha":381,"x_min":90,"x_max":451,"o":"m 288 0 l 90 0 l 90 734 l 288 734 l 288 0 m 229 1033 l 450 1033 l 451 1029 l 263 852 l 94 852 l 229 1033 z "},"î":{"ha":381,"x_min":-58,"x_max":443,"o":"m 288 0 l 90 0 l 90 734 l 288 734 l 288 0 m 443 863 l 443 848 l 286 848 l 191 938 l 96 848 l -58 848 l -58 865 l 134 1028 l 248 1028 l 443 863 z "},"ï":{"ha":381,"x_min":-69,"x_max":450,"o":"m 288 0 l 90 0 l 90 734 l 288 734 l 288 0 m 450 853 l 270 853 l 270 991 l 450 991 l 450 853 m 111 853 l -69 853 l -69 991 l 111 991 l 111 853 z "},"ð":{"ha":826,"x_min":33,"x_max":770,"o":"m 625 875 q 732 709 694 803 q 770 503 770 614 l 770 370 q 664 93 770 201 q 398 -14 557 -14 q 135 81 237 -14 q 33 317 33 176 q 124 563 33 471 q 372 656 215 656 q 475 638 427 656 q 559 591 524 621 l 562 593 q 526 697 553 650 q 458 783 498 745 l 292 690 l 239 767 l 369 839 l 368 843 q 322 863 347 854 q 270 881 297 873 l 332 1029 q 447 993 392 1016 q 548 939 501 970 l 682 1013 l 734 936 l 625 875 m 401 138 q 526 203 479 138 q 572 370 572 269 l 572 450 q 505 494 549 477 q 403 512 462 512 q 275 458 320 512 q 231 317 231 405 q 277 190 231 241 q 401 138 323 138 z "},"ñ":{"ha":784,"x_min":73,"x_max":712,"o":"m 257 734 l 266 629 q 356 716 302 685 q 476 747 410 747 q 650 676 587 747 q 712 450 712 604 l 712 0 l 513 0 l 513 449 q 486 561 513 528 q 404 593 458 593 q 326 577 359 593 q 271 531 292 560 l 271 0 l 73 0 l 73 734 l 257 734 m 645 1040 q 605 929 645 975 q 503 884 564 884 q 395 913 455 884 q 300 943 335 943 q 259 921 275 943 q 243 868 243 899 l 137 897 q 177 1007 137 960 q 279 1055 218 1055 q 382 1025 317 1055 q 482 996 447 996 q 523 1017 505 996 q 541 1071 541 1039 l 645 1040 z "},"ò":{"ha":784,"x_min":45,"x_max":738,"o":"m 45 374 q 137 643 45 538 q 391 747 229 747 q 646 643 553 747 q 738 374 738 538 l 738 359 q 646 90 738 194 q 392 -14 554 -14 q 137 90 229 -14 q 45 359 45 194 l 45 374 m 243 359 q 278 198 243 259 q 392 138 313 138 q 504 199 469 138 q 540 359 540 260 l 540 374 q 504 533 540 471 q 391 595 468 595 q 278 533 314 595 q 243 374 243 471 l 243 359 m 486 867 l 316 867 l 132 1043 l 133 1047 l 353 1047 l 486 867 z "},"ó":{"ha":784,"x_min":45,"x_max":738,"o":"m 45 374 q 137 643 45 538 q 391 747 229 747 q 646 643 553 747 q 738 374 738 538 l 738 359 q 646 90 738 194 q 392 -14 554 -14 q 137 90 229 -14 q 45 359 45 194 l 45 374 m 243 359 q 278 198 243 259 q 392 138 313 138 q 504 199 469 138 q 540 359 540 260 l 540 374 q 504 533 540 471 q 391 595 468 595 q 278 533 314 595 q 243 374 243 471 l 243 359 m 431 1047 l 651 1047 l 652 1043 l 465 867 l 296 867 l 431 1047 z "},"ô":{"ha":784,"x_min":45,"x_max":738,"o":"m 45 374 q 137 643 45 538 q 391 747 229 747 q 646 643 553 747 q 738 374 738 538 l 738 359 q 646 90 738 194 q 392 -14 554 -14 q 137 90 229 -14 q 45 359 45 194 l 45 374 m 243 359 q 278 198 243 259 q 392 138 313 138 q 504 199 469 138 q 540 359 540 260 l 540 374 q 504 533 540 471 q 391 595 468 595 q 278 533 314 595 q 243 374 243 471 l 243 359 m 644 877 l 644 861 l 486 861 l 391 951 l 297 861 l 143 861 l 143 879 l 334 1042 l 449 1042 l 644 877 z "},"õ":{"ha":784,"x_min":45,"x_max":738,"o":"m 45 374 q 137 643 45 538 q 391 747 229 747 q 646 643 553 747 q 738 374 738 538 l 738 359 q 646 90 738 194 q 392 -14 554 -14 q 137 90 229 -14 q 45 359 45 194 l 45 374 m 243 359 q 278 198 243 259 q 392 138 313 138 q 504 199 469 138 q 540 359 540 260 l 540 374 q 504 533 540 471 q 391 595 468 595 q 278 533 314 595 q 243 374 243 471 l 243 359 m 645 1040 q 605 929 645 975 q 503 884 564 884 q 395 913 455 884 q 300 943 335 943 q 259 921 275 943 q 243 868 243 899 l 137 897 q 177 1007 137 960 q 279 1055 218 1055 q 382 1025 317 1055 q 482 996 447 996 q 523 1017 505 996 q 541 1071 541 1039 l 645 1040 z "},"ö":{"ha":784,"x_min":45,"x_max":738,"o":"m 45 374 q 137 643 45 538 q 391 747 229 747 q 646 643 553 747 q 738 374 738 538 l 738 359 q 646 90 738 194 q 392 -14 554 -14 q 137 90 229 -14 q 45 359 45 194 l 45 374 m 243 359 q 278 198 243 259 q 392 138 313 138 q 504 199 469 138 q 540 359 540 260 l 540 374 q 504 533 540 471 q 391 595 468 595 q 278 533 314 595 q 243 374 243 471 l 243 359 m 651 867 l 471 867 l 471 1006 l 651 1006 l 651 867 m 312 867 l 132 867 l 132 1006 l 312 1006 l 312 867 z "},"÷":{"ha":792,"x_min":43,"x_max":741,"o":"m 741 389 l 43 389 l 43 543 l 741 543 l 741 389 m 492 660 l 293 660 l 293 818 l 492 818 l 492 660 m 492 111 l 293 111 l 293 269 l 492 269 l 492 111 z "},"ø":{"ha":784,"x_min":45,"x_max":738,"o":"m 45 374 q 137 643 45 538 q 391 747 229 747 q 456 742 425 747 q 517 727 488 736 l 565 824 l 674 824 l 604 681 q 703 551 669 631 q 738 374 738 471 l 738 359 q 646 90 738 194 q 392 -14 554 -14 q 330 -9 359 -14 q 273 3 300 -5 l 224 -96 l 115 -96 l 185 47 q 81 177 117 96 q 45 359 45 258 l 45 374 m 243 359 q 249 282 243 317 q 267 224 254 247 l 271 223 l 447 583 q 420 592 434 589 q 391 595 406 595 q 278 533 314 595 q 243 374 243 471 l 243 359 m 540 374 q 534 443 540 410 q 519 498 529 475 l 515 499 l 342 146 q 365 139 353 141 q 392 138 378 138 q 504 199 469 138 q 540 359 540 260 l 540 374 z "},"ù":{"ha":784,"x_min":71,"x_max":711,"o":"m 526 109 q 439 18 492 50 q 318 -14 387 -14 q 137 64 202 -14 q 71 309 71 143 l 71 734 l 269 734 l 269 307 q 295 175 269 211 q 376 140 321 140 q 457 155 423 140 q 513 200 491 170 l 513 734 l 711 734 l 711 0 l 547 0 l 526 109 m 486 852 l 315 852 l 131 1029 l 132 1033 l 353 1033 l 486 852 z "},"ú":{"ha":784,"x_min":71,"x_max":711,"o":"m 526 109 q 439 18 492 50 q 318 -14 387 -14 q 137 64 202 -14 q 71 309 71 143 l 71 734 l 269 734 l 269 307 q 295 175 269 211 q 376 140 321 140 q 457 155 423 140 q 513 200 491 170 l 513 734 l 711 734 l 711 0 l 547 0 l 526 109 m 430 1033 l 650 1033 l 652 1029 l 464 852 l 295 852 l 430 1033 z "},"û":{"ha":784,"x_min":71,"x_max":711,"o":"m 526 109 q 439 18 492 50 q 318 -14 387 -14 q 137 64 202 -14 q 71 309 71 143 l 71 734 l 269 734 l 269 307 q 295 175 269 211 q 376 140 321 140 q 457 155 423 140 q 513 200 491 170 l 513 734 l 711 734 l 711 0 l 547 0 l 526 109 m 643 863 l 643 848 l 486 848 l 391 938 l 296 848 l 142 848 l 142 865 l 334 1028 l 448 1028 l 643 863 z "},"ü":{"ha":784,"x_min":71,"x_max":711,"o":"m 526 109 q 439 18 492 50 q 318 -14 387 -14 q 137 64 202 -14 q 71 309 71 143 l 71 734 l 269 734 l 269 307 q 295 175 269 211 q 376 140 321 140 q 457 155 423 140 q 513 200 491 170 l 513 734 l 711 734 l 711 0 l 547 0 l 526 109 m 650 853 l 470 853 l 470 991 l 650 991 l 650 853 m 311 853 l 131 853 l 131 991 l 311 991 l 311 853 z "},"ý":{"ha":709,"x_min":3,"x_max":706,"o":"m 340 308 l 349 267 l 353 267 l 493 734 l 706 734 l 408 -110 q 323 -242 377 -189 q 163 -296 270 -296 q 116 -292 138 -296 q 64 -281 95 -288 l 87 -136 q 106 -139 96 -138 q 125 -140 117 -140 q 200 -116 174 -140 q 241 -56 227 -92 l 264 1 l 3 734 l 216 734 l 340 308 m 394 1033 l 614 1033 l 616 1029 l 428 852 l 259 852 l 394 1033 z "},"þ":{"ha":788,"x_min":82,"x_max":745,"o":"m 745 347 q 669 85 745 184 q 459 -14 594 -14 q 357 7 401 -14 q 280 70 312 28 l 280 -282 l 83 -282 l 83 0 l 82 0 l 82 1058 l 280 1058 l 280 657 q 356 724 312 701 q 458 747 400 747 q 669 641 594 747 q 745 361 745 534 l 745 347 m 547 361 q 512 529 547 465 q 406 593 477 593 q 330 575 361 593 q 280 523 298 557 l 280 201 q 330 154 298 170 q 408 138 361 138 q 513 194 479 138 q 547 347 547 250 l 547 361 z "},"ÿ":{"ha":709,"x_min":3,"x_max":706,"o":"m 340 308 l 349 267 l 353 267 l 493 734 l 706 734 l 408 -110 q 323 -242 377 -189 q 163 -296 270 -296 q 116 -292 138 -296 q 64 -281 95 -288 l 87 -136 q 106 -139 96 -138 q 125 -140 117 -140 q 200 -116 174 -140 q 241 -56 227 -92 l 264 1 l 3 734 l 216 734 l 340 308 m 615 853 l 435 853 l 435 991 l 615 991 l 615 853 m 276 853 l 96 853 l 96 991 l 276 991 l 276 853 z "},"Ā":{"ha":884,"x_min":12,"x_max":880,"o":"m 606 213 l 286 213 l 219 0 l 12 0 l 345 987 l 548 987 l 880 0 l 673 0 l 606 213 m 334 368 l 557 368 l 448 716 l 444 716 l 334 368 m 692 1094 l 196 1094 l 196 1206 l 692 1206 l 692 1094 z "},"ā":{"ha":746,"x_min":39,"x_max":706,"o":"m 509 0 q 490 53 498 25 q 479 110 482 81 q 398 21 448 56 q 279 -14 348 -14 q 101 45 163 -14 q 39 207 39 104 q 122 374 39 315 q 364 433 205 433 l 475 433 l 475 492 q 448 574 475 545 q 365 603 420 603 q 291 579 317 603 q 264 515 264 556 l 74 515 l 73 519 q 154 680 68 612 q 378 747 239 747 q 592 681 510 747 q 673 490 673 614 l 673 187 q 681 90 673 136 q 706 0 689 45 l 509 0 m 328 132 q 420 158 379 132 q 475 218 460 184 l 475 321 l 364 321 q 269 290 301 321 q 237 214 237 259 q 261 154 237 176 q 328 132 285 132 m 619 876 l 123 876 l 123 988 l 619 988 l 619 876 z "},"Ă":{"ha":884,"x_min":12,"x_max":880,"o":"m 606 213 l 286 213 l 219 0 l 12 0 l 345 987 l 548 987 l 880 0 l 673 0 l 606 213 m 334 368 l 557 368 l 448 716 l 444 716 l 334 368 m 673 1286 l 674 1282 q 614 1141 677 1196 q 444 1086 551 1086 q 272 1141 336 1086 q 212 1282 208 1196 l 214 1286 l 358 1286 q 379 1227 358 1250 q 444 1204 399 1204 q 507 1227 486 1204 q 528 1286 528 1250 l 673 1286 z "},"ă":{"ha":746,"x_min":39,"x_max":706,"o":"m 509 0 q 490 53 498 25 q 479 110 482 81 q 398 21 448 56 q 279 -14 348 -14 q 101 45 163 -14 q 39 207 39 104 q 122 374 39 315 q 364 433 205 433 l 475 433 l 475 492 q 448 574 475 545 q 365 603 420 603 q 291 579 317 603 q 264 515 264 556 l 74 515 l 73 519 q 154 680 68 612 q 378 747 239 747 q 592 681 510 747 q 673 490 673 614 l 673 187 q 681 90 673 136 q 706 0 689 45 l 509 0 m 328 132 q 420 158 379 132 q 475 218 460 184 l 475 321 l 364 321 q 269 290 301 321 q 237 214 237 259 q 261 154 237 176 q 328 132 285 132 m 600 1067 l 602 1063 q 542 923 605 977 q 371 868 478 868 q 199 923 263 868 q 140 1063 136 977 l 141 1067 l 286 1067 q 306 1008 286 1031 q 371 985 327 985 q 434 1008 414 985 q 455 1067 455 1031 l 600 1067 z "},"Ą":{"ha":884,"x_min":12,"x_max":898,"o":"m 606 213 l 286 213 l 219 0 l 12 0 l 345 987 l 548 987 l 880 0 l 673 0 l 606 213 m 334 368 l 557 368 l 448 716 l 444 716 l 334 368 m 823 0 q 769 -61 786 -36 q 752 -119 752 -86 q 764 -152 752 -138 q 810 -167 775 -167 q 844 -163 829 -167 q 874 -153 859 -159 l 898 -258 q 843 -279 873 -271 q 772 -288 813 -288 q 651 -249 699 -288 q 604 -142 604 -211 q 635 -43 604 -90 q 733 41 667 4 l 823 0 z "},"ą":{"ha":746,"x_min":39,"x_max":724,"o":"m 509 0 q 490 53 498 25 q 479 110 482 81 q 398 21 448 56 q 279 -14 348 -14 q 101 45 163 -14 q 39 207 39 104 q 122 374 39 315 q 364 433 205 433 l 475 433 l 475 492 q 448 574 475 545 q 365 603 420 603 q 291 579 317 603 q 264 515 264 556 l 74 515 l 73 519 q 154 680 68 612 q 378 747 239 747 q 592 681 510 747 q 673 490 673 614 l 673 187 q 681 90 673 136 q 706 0 689 45 l 509 0 m 328 132 q 420 158 379 132 q 475 218 460 184 l 475 321 l 364 321 q 269 290 301 321 q 237 214 237 259 q 261 154 237 176 q 328 132 285 132 m 648 0 q 595 -61 612 -36 q 578 -119 578 -86 q 589 -152 578 -138 q 636 -167 601 -167 q 670 -163 655 -167 q 700 -153 684 -159 l 724 -258 q 669 -279 699 -271 q 597 -288 639 -288 q 477 -249 524 -288 q 430 -142 430 -211 q 461 -43 430 -90 q 559 41 492 4 l 648 0 z "},"Ć":{"ha":884,"x_min":67,"x_max":837,"o":"m 831 327 l 833 323 q 736 75 836 165 q 463 -14 637 -14 q 176 100 286 -14 q 67 395 67 214 l 67 591 q 174 887 67 772 q 453 1002 280 1002 q 735 913 633 1002 q 834 665 837 825 l 833 661 l 640 661 q 594 803 640 756 q 453 849 549 849 q 314 778 364 849 q 264 593 264 706 l 264 395 q 317 210 264 281 q 463 138 370 138 q 596 184 552 138 q 640 327 640 231 l 831 327 m 500 1280 l 720 1280 l 722 1276 l 534 1099 l 365 1099 l 500 1280 z "},"ć":{"ha":716,"x_min":42,"x_max":680,"o":"m 382 138 q 465 169 434 138 q 495 251 495 199 l 675 251 l 677 247 q 594 61 680 136 q 382 -14 509 -14 q 131 90 220 -14 q 42 356 42 194 l 42 376 q 131 643 42 538 q 381 747 219 747 q 597 670 515 747 q 677 467 680 593 l 675 463 l 495 463 q 465 557 495 519 q 381 595 435 595 q 272 533 304 595 q 240 376 240 472 l 240 356 q 272 198 240 258 q 382 138 304 138 m 401 1047 l 622 1047 l 623 1043 l 435 867 l 267 867 l 401 1047 z "},"Ĉ":{"ha":884,"x_min":67,"x_max":837,"o":"m 831 327 l 833 323 q 736 75 836 165 q 463 -14 637 -14 q 176 100 286 -14 q 67 395 67 214 l 67 591 q 174 887 67 772 q 453 1002 280 1002 q 735 913 633 1002 q 834 665 837 825 l 833 661 l 640 661 q 594 803 640 756 q 453 849 549 849 q 314 778 364 849 q 264 593 264 706 l 264 395 q 317 210 264 281 q 463 138 370 138 q 596 184 552 138 q 640 327 640 231 l 831 327 m 713 1109 l 713 1094 l 555 1094 l 460 1184 l 366 1094 l 212 1094 l 212 1112 l 404 1274 l 518 1274 l 713 1109 z "},"ĉ":{"ha":716,"x_min":42,"x_max":680,"o":"m 382 138 q 465 169 434 138 q 495 251 495 199 l 675 251 l 677 247 q 594 61 680 136 q 382 -14 509 -14 q 131 90 220 -14 q 42 356 42 194 l 42 376 q 131 643 42 538 q 381 747 219 747 q 597 670 515 747 q 677 467 680 593 l 675 463 l 495 463 q 465 557 495 519 q 381 595 435 595 q 272 533 304 595 q 240 376 240 472 l 240 356 q 272 198 240 258 q 382 138 304 138 m 614 877 l 614 861 l 457 861 l 362 951 l 268 861 l 114 861 l 114 879 l 305 1042 l 420 1042 l 614 877 z "},"Ċ":{"ha":884,"x_min":67,"x_max":837,"o":"m 831 327 l 833 323 q 736 75 836 165 q 463 -14 637 -14 q 176 100 286 -14 q 67 395 67 214 l 67 591 q 174 887 67 772 q 453 1002 280 1002 q 735 913 633 1002 q 834 665 837 825 l 833 661 l 640 661 q 594 803 640 756 q 453 849 549 849 q 314 778 364 849 q 264 593 264 706 l 264 395 q 317 210 264 281 q 463 138 370 138 q 596 184 552 138 q 640 327 640 231 l 831 327 m 572 1100 l 350 1100 l 350 1263 l 572 1263 l 572 1100 z "},"ċ":{"ha":716,"x_min":42,"x_max":680,"o":"m 382 138 q 465 169 434 138 q 495 251 495 199 l 675 251 l 677 247 q 594 61 680 136 q 382 -14 509 -14 q 131 90 220 -14 q 42 356 42 194 l 42 376 q 131 643 42 538 q 381 747 219 747 q 597 670 515 747 q 677 467 680 593 l 675 463 l 495 463 q 465 557 495 519 q 381 595 435 595 q 272 533 304 595 q 240 376 240 472 l 240 356 q 272 198 240 258 q 382 138 304 138 m 473 867 l 252 867 l 252 1031 l 473 1031 l 473 867 z "},"Č":{"ha":884,"x_min":67,"x_max":837,"o":"m 831 327 l 833 323 q 736 75 836 165 q 463 -14 637 -14 q 176 100 286 -14 q 67 395 67 214 l 67 591 q 174 887 67 772 q 453 1002 280 1002 q 735 913 633 1002 q 834 665 837 825 l 833 661 l 640 661 q 594 803 640 756 q 453 849 549 849 q 314 778 364 849 q 264 593 264 706 l 264 395 q 317 210 264 281 q 463 138 370 138 q 596 184 552 138 q 640 327 640 231 l 831 327 m 460 1198 l 539 1284 l 718 1284 l 718 1273 l 528 1100 l 393 1100 l 202 1274 l 202 1284 l 381 1284 l 460 1198 z "},"č":{"ha":716,"x_min":42,"x_max":680,"o":"m 382 138 q 465 169 434 138 q 495 251 495 199 l 675 251 l 677 247 q 594 61 680 136 q 382 -14 509 -14 q 131 90 220 -14 q 42 356 42 194 l 42 376 q 131 643 42 538 q 381 747 219 747 q 597 670 515 747 q 677 467 680 593 l 675 463 l 495 463 q 465 557 495 519 q 381 595 435 595 q 272 533 304 595 q 240 376 240 472 l 240 356 q 272 198 240 258 q 382 138 304 138 m 361 966 l 441 1052 l 620 1052 l 620 1040 l 429 867 l 294 867 l 104 1041 l 104 1052 l 283 1052 l 361 966 z "},"Ď":{"ha":919,"x_min":91,"x_max":851,"o":"m 91 0 l 91 987 l 435 987 q 734 872 616 987 q 851 575 851 756 l 851 412 q 734 115 851 230 q 435 0 616 0 l 91 0 m 289 835 l 289 152 l 435 152 q 593 225 533 152 q 652 412 652 298 l 652 576 q 593 762 652 690 q 435 835 533 835 l 289 835 m 399 1184 l 479 1270 l 658 1270 l 658 1259 l 467 1086 l 332 1086 l 142 1259 l 142 1270 l 321 1270 l 399 1184 z "},"ď":{"ha":784,"x_min":45,"x_max":928,"o":"m 45 361 q 120 641 45 534 q 332 747 195 747 q 431 724 387 747 q 508 656 475 700 l 508 1058 l 707 1058 l 707 0 l 538 0 l 521 90 q 439 13 486 39 q 330 -14 391 -14 q 120 85 195 -14 q 45 347 45 184 l 45 361 m 243 347 q 275 195 243 250 q 381 140 308 140 q 456 157 424 140 q 508 208 488 174 l 508 520 q 456 574 488 555 q 382 593 425 593 q 276 529 310 593 q 243 361 243 465 l 243 347 m 928 948 l 840 789 l 758 789 l 799 955 l 799 1057 l 928 1057 l 928 948 z "},"Đ":{"ha":919,"x_min":-1,"x_max":851,"o":"m 91 0 l 91 442 l -1 442 l -1 565 l 91 565 l 91 987 l 435 987 q 734 872 616 987 q 851 575 851 756 l 851 412 q 734 115 851 230 q 435 0 616 0 l 91 0 m 454 442 l 289 442 l 289 152 l 435 152 q 593 225 533 152 q 652 412 652 298 l 652 576 q 593 762 652 690 q 435 835 533 835 l 289 835 l 289 565 l 454 565 l 454 442 z "},"đ":{"ha":784,"x_min":45,"x_max":804,"o":"m 804 827 l 707 827 l 707 0 l 538 0 l 521 90 q 439 13 486 39 q 330 -14 391 -14 q 120 85 195 -14 q 45 347 45 184 l 45 361 q 120 641 45 534 q 332 747 195 747 q 431 724 387 747 q 508 656 475 700 l 508 827 l 349 827 l 349 950 l 508 950 l 508 1058 l 707 1058 l 707 950 l 804 950 l 804 827 m 243 347 q 275 195 243 250 q 381 140 308 140 q 456 157 424 140 q 508 208 488 174 l 508 520 q 456 574 488 555 q 382 593 425 593 q 276 529 310 593 q 243 361 243 465 l 243 347 z "},"Ē":{"ha":772,"x_min":91,"x_max":724,"o":"m 655 434 l 289 434 l 289 152 l 724 152 l 724 0 l 91 0 l 91 987 l 723 987 l 723 835 l 289 835 l 289 587 l 655 587 l 655 434 m 656 1094 l 161 1094 l 161 1206 l 656 1206 l 656 1094 z "},"ē":{"ha":726,"x_min":45,"x_max":687,"o":"m 394 -14 q 138 86 230 -14 q 45 346 45 187 l 45 373 q 135 643 45 538 q 381 747 224 748 q 608 657 529 747 q 687 413 687 566 l 687 311 l 250 311 l 248 307 q 293 184 252 231 q 415 138 334 138 q 528 151 481 138 q 624 193 574 165 l 677 71 q 558 10 633 35 q 394 -14 483 -14 m 381 595 q 289 554 321 595 q 250 445 257 513 l 252 441 l 493 441 l 493 456 q 467 558 493 521 q 381 595 440 595 m 614 876 l 119 876 l 119 988 l 614 988 l 614 876 z "},"Ĕ":{"ha":772,"x_min":91,"x_max":724,"o":"m 655 434 l 289 434 l 289 152 l 724 152 l 724 0 l 91 0 l 91 987 l 723 987 l 723 835 l 289 835 l 289 587 l 655 587 l 655 434 m 637 1286 l 639 1282 q 579 1141 642 1196 q 408 1086 515 1086 q 237 1141 300 1086 q 177 1282 173 1196 l 178 1286 l 323 1286 q 343 1227 323 1250 q 408 1204 364 1204 q 472 1227 451 1204 q 492 1286 492 1250 l 637 1286 z "},"ĕ":{"ha":726,"x_min":45,"x_max":687,"o":"m 394 -14 q 138 86 230 -14 q 45 346 45 187 l 45 373 q 135 643 45 538 q 381 747 224 748 q 608 657 529 747 q 687 413 687 566 l 687 311 l 250 311 l 248 307 q 293 184 252 231 q 415 138 334 138 q 528 151 481 138 q 624 193 574 165 l 677 71 q 558 10 633 35 q 394 -14 483 -14 m 381 595 q 289 554 321 595 q 250 445 257 513 l 252 441 l 493 441 l 493 456 q 467 558 493 521 q 381 595 440 595 m 595 1068 l 597 1064 q 537 923 600 978 q 366 869 473 869 q 195 923 258 869 q 135 1064 131 978 l 136 1068 l 281 1068 q 301 1009 281 1032 q 366 986 322 986 q 430 1009 409 986 q 450 1068 450 1032 l 595 1068 z "},"Ė":{"ha":772,"x_min":91,"x_max":724,"o":"m 655 434 l 289 434 l 289 152 l 724 152 l 724 0 l 91 0 l 91 987 l 723 987 l 723 835 l 289 835 l 289 587 l 655 587 l 655 434 m 519 1086 l 297 1086 l 297 1249 l 519 1249 l 519 1086 z "},"ė":{"ha":726,"x_min":45,"x_max":687,"o":"m 394 -14 q 138 86 230 -14 q 45 346 45 187 l 45 373 q 135 643 45 538 q 381 747 224 748 q 608 657 529 747 q 687 413 687 566 l 687 311 l 250 311 l 248 307 q 293 184 252 231 q 415 138 334 138 q 528 151 481 138 q 624 193 574 165 l 677 71 q 558 10 633 35 q 394 -14 483 -14 m 381 595 q 289 554 321 595 q 250 445 257 513 l 252 441 l 493 441 l 493 456 q 467 558 493 521 q 381 595 440 595 m 477 868 l 255 868 l 255 1031 l 477 1031 l 477 868 z "},"Ę":{"ha":772,"x_min":91,"x_max":724,"o":"m 655 434 l 289 434 l 289 152 l 724 152 l 724 0 l 91 0 l 91 987 l 723 987 l 723 835 l 289 835 l 289 587 l 655 587 l 655 434 m 458 0 q 404 -61 421 -36 q 387 -119 387 -86 q 399 -152 387 -138 q 446 -167 410 -167 q 479 -163 465 -167 q 509 -153 494 -159 l 533 -258 q 478 -279 509 -271 q 407 -288 448 -288 q 287 -249 334 -288 q 239 -142 239 -211 q 271 -43 239 -90 q 368 41 302 4 l 458 0 z "},"ę":{"ha":726,"x_min":45,"x_max":687,"o":"m 394 -14 q 138 86 230 -14 q 45 346 45 187 l 45 373 q 135 643 45 538 q 381 747 224 748 q 608 657 529 747 q 687 413 687 566 l 687 311 l 250 311 l 248 307 q 293 184 252 231 q 415 138 334 138 q 528 151 481 138 q 624 193 574 165 l 677 71 q 558 10 633 35 q 394 -14 483 -14 m 381 595 q 289 554 321 595 q 250 445 257 513 l 252 441 l 493 441 l 493 456 q 467 558 493 521 q 381 595 440 595 m 594 28 q 541 -33 557 -7 q 524 -91 524 -58 q 535 -124 524 -109 q 582 -138 547 -138 q 615 -134 601 -138 q 646 -125 630 -130 l 669 -229 q 615 -251 645 -242 q 543 -259 585 -259 q 423 -221 470 -259 q 376 -114 376 -182 q 407 -15 376 -62 q 505 69 438 33 l 594 28 z "},"Ě":{"ha":772,"x_min":91,"x_max":724,"o":"m 655 434 l 289 434 l 289 152 l 724 152 l 724 0 l 91 0 l 91 987 l 723 987 l 723 835 l 289 835 l 289 587 l 655 587 l 655 434 m 407 1184 l 486 1270 l 665 1270 l 665 1259 l 475 1086 l 340 1086 l 149 1259 l 149 1270 l 328 1270 l 407 1184 z "},"ě":{"ha":726,"x_min":45,"x_max":687,"o":"m 394 -14 q 138 86 230 -14 q 45 346 45 187 l 45 373 q 135 643 45 538 q 381 747 224 748 q 608 657 529 747 q 687 413 687 566 l 687 311 l 250 311 l 248 307 q 293 184 252 231 q 415 138 334 138 q 528 151 481 138 q 624 193 574 165 l 677 71 q 558 10 633 35 q 394 -14 483 -14 m 381 595 q 289 554 321 595 q 250 445 257 513 l 252 441 l 493 441 l 493 456 q 467 558 493 521 q 381 595 440 595 m 365 966 l 444 1053 l 623 1053 l 623 1041 l 433 868 l 298 868 l 107 1042 l 107 1053 l 286 1053 l 365 966 z "},"Ĝ":{"ha":925,"x_min":67,"x_max":848,"o":"m 848 135 q 710 30 802 75 q 474 -14 618 -14 q 181 98 295 -14 q 67 391 67 211 l 67 597 q 178 889 67 776 q 462 1002 288 1002 q 739 916 643 1002 q 832 687 836 830 l 831 683 l 644 683 q 599 805 644 762 q 467 849 553 849 q 320 779 376 849 q 264 598 264 709 l 264 391 q 321 208 264 279 q 474 138 378 138 q 586 152 545 138 q 649 188 627 166 l 649 379 l 459 379 l 459 516 l 848 516 l 848 135 m 709 1109 l 709 1094 l 552 1094 l 457 1184 l 363 1094 l 209 1094 l 209 1112 l 400 1274 l 515 1274 l 709 1109 z "},"ĝ":{"ha":784,"x_min":47,"x_max":708,"o":"m 47 361 q 122 641 47 534 q 334 747 197 747 q 442 720 395 747 q 522 640 489 692 l 538 734 l 708 734 l 708 3 q 614 -218 708 -140 q 353 -296 521 -296 q 235 -281 298 -296 q 120 -239 173 -266 l 153 -92 q 247 -124 199 -113 q 352 -136 296 -136 q 472 -102 433 -136 q 510 4 510 -68 l 510 71 q 433 7 477 29 q 332 -14 389 -14 q 122 85 197 -14 q 47 347 47 184 l 47 361 m 245 347 q 277 195 245 250 q 382 140 309 140 q 459 156 428 140 q 510 205 491 173 l 510 523 q 459 575 491 557 q 384 593 428 593 q 278 529 311 593 q 245 361 245 465 l 245 347 m 630 877 l 630 861 l 473 861 l 378 951 l 283 861 l 130 861 l 130 879 l 321 1042 l 435 1042 l 630 877 z "},"Ğ":{"ha":925,"x_min":67,"x_max":848,"o":"m 848 135 q 710 30 802 75 q 474 -14 618 -14 q 181 98 295 -14 q 67 391 67 211 l 67 597 q 178 889 67 776 q 462 1002 288 1002 q 739 916 643 1002 q 832 687 836 830 l 831 683 l 644 683 q 599 805 644 762 q 467 849 553 849 q 320 779 376 849 q 264 598 264 709 l 264 391 q 321 208 264 279 q 474 138 378 138 q 586 152 545 138 q 649 188 627 166 l 649 379 l 459 379 l 459 516 l 848 516 l 848 135 m 687 1300 l 688 1296 q 628 1155 692 1210 q 458 1101 565 1101 q 286 1155 350 1101 q 227 1296 222 1210 l 228 1300 l 372 1300 q 393 1241 372 1264 q 458 1218 414 1218 q 521 1241 500 1218 q 542 1300 542 1264 l 687 1300 z "},"ğ":{"ha":784,"x_min":47,"x_max":708,"o":"m 47 361 q 122 641 47 534 q 334 747 197 747 q 442 720 395 747 q 522 640 489 692 l 538 734 l 708 734 l 708 3 q 614 -218 708 -140 q 353 -296 521 -296 q 235 -281 298 -296 q 120 -239 173 -266 l 153 -92 q 247 -124 199 -113 q 352 -136 296 -136 q 472 -102 433 -136 q 510 4 510 -68 l 510 71 q 433 7 477 29 q 332 -14 389 -14 q 122 85 197 -14 q 47 347 47 184 l 47 361 m 245 347 q 277 195 245 250 q 382 140 309 140 q 459 156 428 140 q 510 205 491 173 l 510 523 q 459 575 491 557 q 384 593 428 593 q 278 529 311 593 q 245 361 245 465 l 245 347 m 608 1067 l 609 1063 q 549 923 612 977 q 378 868 486 868 q 207 923 271 868 q 147 1063 143 977 l 149 1067 l 293 1067 q 314 1008 293 1031 q 378 985 334 985 q 442 1008 421 985 q 463 1067 463 1031 l 608 1067 z "},"Ġ":{"ha":925,"x_min":67,"x_max":848,"o":"m 848 135 q 710 30 802 75 q 474 -14 618 -14 q 181 98 295 -14 q 67 391 67 211 l 67 597 q 178 889 67 776 q 462 1002 288 1002 q 739 916 643 1002 q 832 687 836 830 l 831 683 l 644 683 q 599 805 644 762 q 467 849 553 849 q 320 779 376 849 q 264 598 264 709 l 264 391 q 321 208 264 279 q 474 138 378 138 q 586 152 545 138 q 649 188 627 166 l 649 379 l 459 379 l 459 516 l 848 516 l 848 135 m 568 1100 l 347 1100 l 347 1263 l 568 1263 l 568 1100 z "},"ġ":{"ha":784,"x_min":47,"x_max":708,"o":"m 47 361 q 122 641 47 534 q 334 747 197 747 q 442 720 395 747 q 522 640 489 692 l 538 734 l 708 734 l 708 3 q 614 -218 708 -140 q 353 -296 521 -296 q 235 -281 298 -296 q 120 -239 173 -266 l 153 -92 q 247 -124 199 -113 q 352 -136 296 -136 q 472 -102 433 -136 q 510 4 510 -68 l 510 71 q 433 7 477 29 q 332 -14 389 -14 q 122 85 197 -14 q 47 347 47 184 l 47 361 m 245 347 q 277 195 245 250 q 382 140 309 140 q 459 156 428 140 q 510 205 491 173 l 510 523 q 459 575 491 557 q 384 593 428 593 q 278 529 311 593 q 245 361 245 465 l 245 347 m 489 867 l 267 867 l 267 1031 l 489 1031 l 489 867 z "},"Ģ":{"ha":925,"x_min":67,"x_max":848,"o":"m 848 135 q 710 30 802 75 q 474 -14 618 -14 q 181 98 295 -14 q 67 391 67 211 l 67 597 q 178 889 67 776 q 462 1002 288 1002 q 739 916 643 1002 q 832 687 836 830 l 831 683 l 644 683 q 599 805 644 762 q 467 849 553 849 q 320 779 376 849 q 264 598 264 709 l 264 391 q 321 208 264 279 q 474 138 378 138 q 586 152 545 138 q 649 188 627 166 l 649 379 l 459 379 l 459 516 l 848 516 l 848 135 m 528 -181 l 440 -340 l 357 -340 l 399 -174 l 399 -72 l 528 -72 l 528 -181 z "},"ģ":{"ha":784,"x_min":47,"x_max":708,"o":"m 47 361 q 122 641 47 534 q 334 747 197 747 q 442 720 395 747 q 522 640 489 692 l 538 734 l 708 734 l 708 3 q 614 -218 708 -140 q 353 -296 521 -296 q 235 -281 298 -296 q 120 -239 173 -266 l 153 -92 q 247 -124 199 -113 q 352 -136 296 -136 q 472 -102 433 -136 q 510 4 510 -68 l 510 71 q 433 7 477 29 q 332 -14 389 -14 q 122 85 197 -14 q 47 347 47 184 l 47 361 m 245 347 q 277 195 245 250 q 382 140 309 140 q 459 156 428 140 q 510 205 491 173 l 510 523 q 459 575 491 557 q 384 593 428 593 q 278 529 311 593 q 245 361 245 465 l 245 347 m 293 972 l 371 1148 l 479 1148 l 455 965 l 455 853 l 293 853 l 293 972 z "},"Ĥ":{"ha":980,"x_min":91,"x_max":889,"o":"m 889 0 l 691 0 l 691 410 l 289 410 l 289 0 l 91 0 l 91 987 l 289 987 l 289 563 l 691 563 l 691 987 l 889 987 l 889 0 m 741 1095 l 741 1080 l 583 1080 l 488 1170 l 394 1080 l 240 1080 l 240 1097 l 431 1260 l 546 1260 l 741 1095 z "},"ĥ":{"ha":784,"x_min":71,"x_max":711,"o":"m 269 641 q 354 719 304 691 q 465 747 404 747 q 645 671 580 747 q 711 435 711 595 l 711 0 l 513 0 l 513 437 q 485 558 513 522 q 403 593 458 593 q 324 579 357 593 q 269 537 290 564 l 269 0 l 71 0 l 71 1058 l 269 1058 l 269 641 m 604 1096 l 604 1080 l 446 1080 l 351 1171 l 257 1080 l 103 1080 l 103 1098 l 294 1261 l 409 1261 l 604 1096 z "},"Ħ":{"ha":980,"x_min":11,"x_max":975,"o":"m 895 813 l 975 813 l 975 697 l 895 697 l 895 0 l 696 0 l 696 410 l 294 410 l 294 0 l 96 0 l 96 697 l 11 697 l 11 813 l 96 813 l 96 987 l 294 987 l 294 813 l 696 813 l 696 987 l 895 987 l 895 813 m 294 563 l 696 563 l 696 697 l 294 697 l 294 563 z "},"ħ":{"ha":784,"x_min":-9,"x_max":711,"o":"m 446 825 l 269 825 l 269 641 q 354 719 304 691 q 465 747 404 747 q 645 671 580 747 q 711 435 711 595 l 711 0 l 513 0 l 513 437 q 485 558 513 522 q 403 593 458 593 q 324 579 357 593 q 269 537 290 564 l 269 0 l 71 0 l 71 825 l -9 825 l -9 948 l 71 948 l 71 1058 l 269 1058 l 269 948 l 446 948 l 446 825 z "},"Ĩ":{"ha":408,"x_min":-50,"x_max":458,"o":"m 302 0 l 104 0 l 104 987 l 302 987 l 302 0 m 458 1259 q 417 1148 458 1194 q 315 1102 377 1102 q 208 1132 268 1102 q 113 1161 148 1161 q 72 1139 88 1161 q 56 1086 56 1117 l -50 1115 q -10 1226 -50 1179 q 92 1273 31 1273 q 195 1243 130 1273 q 295 1214 260 1214 q 336 1236 318 1214 q 353 1289 353 1257 l 458 1259 z "},"ĩ":{"ha":381,"x_min":-64,"x_max":444,"o":"m 288 0 l 90 0 l 90 734 l 288 734 l 288 0 m 444 1026 q 404 915 444 961 q 302 869 363 869 q 194 899 254 869 q 99 928 134 928 q 58 906 75 928 q 42 854 42 884 l -64 882 q -23 993 -64 946 q 78 1040 17 1040 q 181 1011 116 1040 q 281 981 246 981 q 322 1003 304 981 q 340 1057 340 1025 l 444 1026 z "},"Ī":{"ha":408,"x_min":-43,"x_max":453,"o":"m 302 0 l 104 0 l 104 987 l 302 987 l 302 0 m 453 1094 l -43 1094 l -43 1206 l 453 1206 l 453 1094 z "},"ī":{"ha":381,"x_min":-56,"x_max":439,"o":"m 288 0 l 90 0 l 90 734 l 288 734 l 288 0 m 439 862 l -56 862 l -56 974 l 439 974 l 439 862 z "},"Ĭ":{"ha":408,"x_min":-31,"x_max":439,"o":"m 302 0 l 104 0 l 104 987 l 302 987 l 302 0 m 434 1286 l 435 1282 q 375 1141 439 1196 q 205 1086 312 1086 q 33 1141 97 1086 q -26 1282 -31 1196 l -25 1286 l 119 1286 q 140 1227 119 1250 q 205 1204 161 1204 q 268 1227 248 1204 q 289 1286 289 1250 l 434 1286 z "},"ĭ":{"ha":381,"x_min":-44,"x_max":425,"o":"m 288 0 l 90 0 l 90 734 l 288 734 l 288 0 m 420 1053 l 422 1049 q 362 908 425 963 q 191 854 298 854 q 20 908 83 854 q -40 1049 -44 963 l -39 1053 l 106 1053 q 126 994 106 1017 q 191 971 147 971 q 255 994 234 971 q 275 1053 275 1017 l 420 1053 z "},"Į":{"ha":408,"x_min":27,"x_max":321,"o":"m 302 0 l 104 0 l 104 987 l 302 987 l 302 0 m 245 0 q 192 -61 209 -36 q 175 -119 175 -86 q 186 -152 175 -138 q 233 -167 198 -167 q 267 -163 252 -167 q 297 -153 281 -159 l 321 -258 q 266 -279 296 -271 q 195 -288 236 -288 q 74 -249 121 -288 q 27 -142 27 -211 q 58 -43 27 -90 q 156 41 90 4 l 245 0 z "},"į":{"ha":371,"x_min":9,"x_max":302,"o":"m 284 0 l 86 0 l 86 734 l 284 734 l 284 0 m 284 909 l 86 909 l 86 1058 l 284 1058 l 284 909 m 227 0 q 174 -61 191 -36 q 157 -119 157 -86 q 168 -152 157 -138 q 215 -167 180 -167 q 249 -163 234 -167 q 279 -153 263 -159 l 302 -258 q 248 -279 278 -271 q 176 -288 218 -288 q 56 -249 103 -288 q 9 -142 9 -211 q 40 -43 9 -90 q 138 41 71 4 l 227 0 z "},"İ":{"ha":408,"x_min":94,"x_max":315,"o":"m 302 0 l 104 0 l 104 987 l 302 987 l 302 0 m 315 1086 l 94 1086 l 94 1249 l 315 1249 l 315 1086 z "},"ı":{"ha":381,"x_min":90,"x_max":288,"o":"m 288 0 l 90 0 l 90 734 l 288 734 l 288 0 z "},"Ĳ":{"ha":1179,"x_min":104,"x_max":1089,"o":"m 302 0 l 104 0 l 104 987 l 302 987 l 302 0 m 892 987 l 1089 987 l 1089 306 q 999 73 1089 159 q 768 -14 909 -14 q 520 63 612 -14 q 432 288 429 140 l 433 292 l 626 292 q 665 175 626 213 q 768 138 703 138 q 857 183 823 138 q 892 306 892 228 l 892 987 z "},"ĳ":{"ha":739,"x_min":86,"x_max":661,"o":"m 284 0 l 86 0 l 86 734 l 284 734 l 284 0 m 284 909 l 86 909 l 86 1058 l 284 1058 l 284 909 m 661 734 l 661 -27 q 592 -226 661 -156 q 401 -296 524 -296 q 352 -294 374 -296 q 304 -285 330 -291 l 314 -134 q 345 -140 330 -138 q 378 -142 361 -142 q 440 -114 418 -142 q 462 -27 462 -85 l 462 734 l 661 734 m 656 911 l 458 911 l 458 1058 l 656 1058 l 656 911 z "},"Ĵ":{"ha":771,"x_min":21,"x_max":823,"o":"m 484 987 l 682 987 l 682 306 q 592 73 682 159 q 361 -14 502 -14 q 113 63 204 -14 q 24 288 21 140 l 26 292 l 218 292 q 257 175 218 213 q 361 138 296 138 q 450 183 415 138 q 484 306 484 228 l 484 987 m 823 1093 l 823 1077 l 666 1077 l 571 1167 l 477 1077 l 323 1077 l 323 1095 l 514 1257 l 629 1257 l 823 1093 z "},"ĵ":{"ha":392,"x_min":-62,"x_max":439,"o":"m 299 734 l 299 -27 q 231 -226 299 -156 q 41 -296 162 -296 q -9 -294 13 -296 q -57 -285 -31 -291 l -47 -135 q -15 -141 -31 -139 q 20 -144 2 -144 q 80 -113 58 -144 q 102 -27 102 -83 l 102 734 l 299 734 m 439 858 l 439 842 l 281 842 l 186 932 l 92 842 l -62 842 l -62 860 l 130 1023 l 244 1023 l 439 858 z "},"Ķ":{"ha":885,"x_min":91,"x_max":886,"o":"m 361 412 l 289 412 l 289 0 l 91 0 l 91 987 l 289 987 l 289 584 l 345 584 l 615 987 l 860 987 l 518 528 l 886 0 l 634 0 l 361 412 m 496 -173 l 409 -332 l 326 -332 l 368 -166 l 368 -64 l 496 -64 l 496 -173 z "},"ķ":{"ha":744,"x_min":76,"x_max":755,"o":"m 324 307 l 274 307 l 274 0 l 76 0 l 76 1058 l 274 1058 l 274 458 l 318 458 l 494 734 l 723 734 l 484 399 l 755 0 l 528 0 l 324 307 m 444 -172 l 356 -332 l 273 -332 l 315 -165 l 315 -63 l 444 -63 l 444 -172 z "},"ĸ":{"ha":821,"x_min":87,"x_max":795,"o":"m 364 275 l 286 275 l 286 0 l 87 0 l 87 734 l 286 734 l 286 454 l 345 454 l 534 734 l 783 734 l 523 390 l 795 0 l 541 0 l 364 275 z "},"Ĺ":{"ha":772,"x_min":91,"x_max":731,"o":"m 289 152 l 731 152 l 731 0 l 91 0 l 91 987 l 289 987 l 289 152 m 231 1250 l 451 1250 l 452 1246 l 264 1069 l 96 1069 l 231 1250 z "},"ĺ":{"ha":371,"x_min":86,"x_max":446,"o":"m 284 0 l 86 0 l 86 1058 l 284 1058 l 284 0 m 224 1284 l 445 1284 l 446 1280 l 258 1104 l 90 1104 l 224 1284 z "},"Ļ":{"ha":772,"x_min":91,"x_max":731,"o":"m 289 152 l 731 152 l 731 0 l 91 0 l 91 987 l 289 987 l 289 152 m 470 -172 l 382 -332 l 300 -332 l 341 -165 l 341 -63 l 470 -63 l 470 -172 z "},"ļ":{"ha":371,"x_min":75,"x_max":284,"o":"m 284 0 l 86 0 l 86 1058 l 284 1058 l 284 0 m 245 -172 l 157 -332 l 75 -332 l 116 -165 l 116 -63 l 245 -63 l 245 -172 z "},"Ľ":{"ha":772,"x_min":91,"x_max":731,"o":"m 289 152 l 731 152 l 731 0 l 91 0 l 91 987 l 289 987 l 289 152 m 586 880 l 498 720 l 416 720 l 457 886 l 457 989 l 586 989 l 586 880 z "},"ľ":{"ha":371,"x_min":86,"x_max":517,"o":"m 284 0 l 86 0 l 86 1058 l 284 1058 l 284 0 m 517 948 l 429 789 l 347 789 l 388 955 l 388 1057 l 517 1057 l 517 948 z "},"Ŀ":{"ha":772,"x_min":91,"x_max":731,"o":"m 289 152 l 731 152 l 731 0 l 91 0 l 91 987 l 289 987 l 289 152 m 627 461 l 406 461 l 406 625 l 627 625 l 627 461 z "},"ŀ":{"ha":371,"x_min":86,"x_max":488,"o":"m 284 0 l 86 0 l 86 1058 l 284 1058 l 284 0 m 488 426 l 267 426 l 267 589 l 488 589 l 488 426 z "},"Ł":{"ha":705,"x_min":8,"x_max":726,"o":"m 284 600 l 449 647 l 449 515 l 284 467 l 284 152 l 726 152 l 726 0 l 86 0 l 86 410 l 8 388 l 8 520 l 86 543 l 86 987 l 284 987 l 284 600 z "},"ł":{"ha":403,"x_min":10,"x_max":393,"o":"m 298 615 l 393 647 l 393 515 l 298 483 l 298 0 l 100 0 l 100 417 l 10 388 l 10 520 l 100 549 l 100 1058 l 298 1058 l 298 615 z "},"Ń":{"ha":980,"x_min":91,"x_max":889,"o":"m 889 0 l 691 0 l 293 666 l 289 665 l 289 0 l 91 0 l 91 987 l 289 987 l 687 322 l 691 323 l 691 987 l 889 987 l 889 0 m 529 1265 l 749 1265 l 751 1261 l 563 1085 l 394 1085 l 529 1265 z "},"ń":{"ha":784,"x_min":73,"x_max":712,"o":"m 257 734 l 266 629 q 356 716 302 685 q 476 747 410 747 q 650 676 587 747 q 712 450 712 604 l 712 0 l 513 0 l 513 449 q 486 561 513 528 q 404 593 458 593 q 326 577 359 593 q 271 531 292 560 l 271 0 l 73 0 l 73 734 l 257 734 m 431 1047 l 651 1047 l 652 1043 l 465 867 l 296 867 l 431 1047 z "},"Ņ":{"ha":980,"x_min":91,"x_max":889,"o":"m 889 0 l 691 0 l 293 666 l 289 665 l 289 0 l 91 0 l 91 987 l 289 987 l 687 322 l 691 323 l 691 987 l 889 987 l 889 0 m 549 -172 l 462 -332 l 379 -332 l 420 -165 l 420 -63 l 549 -63 l 549 -172 z "},"ņ":{"ha":784,"x_min":73,"x_max":712,"o":"m 257 734 l 266 629 q 356 716 302 685 q 476 747 410 747 q 650 676 587 747 q 712 450 712 604 l 712 0 l 513 0 l 513 449 q 486 561 513 528 q 404 593 458 593 q 326 577 359 593 q 271 531 292 560 l 271 0 l 73 0 l 73 734 l 257 734 m 451 -172 l 363 -332 l 281 -332 l 322 -165 l 322 -63 l 451 -63 l 451 -172 z "},"Ň":{"ha":980,"x_min":91,"x_max":889,"o":"m 889 0 l 691 0 l 293 666 l 289 665 l 289 0 l 91 0 l 91 987 l 289 987 l 687 322 l 691 323 l 691 987 l 889 987 l 889 0 m 489 1184 l 568 1270 l 747 1270 l 747 1259 l 557 1086 l 422 1086 l 231 1259 l 231 1270 l 410 1270 l 489 1184 z "},"ň":{"ha":784,"x_min":73,"x_max":712,"o":"m 257 734 l 266 629 q 356 716 302 685 q 476 747 410 747 q 650 676 587 747 q 712 450 712 604 l 712 0 l 513 0 l 513 449 q 486 561 513 528 q 404 593 458 593 q 326 577 359 593 q 271 531 292 560 l 271 0 l 73 0 l 73 734 l 257 734 m 391 966 l 470 1052 l 649 1052 l 649 1040 l 458 867 l 323 867 l 133 1041 l 133 1052 l 312 1052 l 391 966 z "},"ŉ":{"ha":784,"x_min":-18,"x_max":712,"o":"m 257 734 l 266 629 q 356 716 302 685 q 476 747 410 747 q 650 676 587 747 q 712 450 712 604 l 712 0 l 513 0 l 513 449 q 486 561 513 528 q 404 593 458 593 q 326 577 359 593 q 271 531 292 560 l 271 0 l 73 0 l 73 734 l 257 734 m 152 948 l 64 789 l -18 789 l 23 955 l 23 1057 l 152 1057 l 152 948 z "},"Ŋ":{"ha":975,"x_min":89,"x_max":887,"o":"m 887 987 l 887 -27 q 819 -226 887 -156 q 629 -296 750 -296 q 578 -294 601 -296 q 530 -285 555 -291 l 540 -135 q 572 -141 555 -139 q 608 -144 589 -144 q 668 -113 646 -144 q 690 -27 690 -83 l 690 0 l 292 666 l 288 665 l 288 0 l 89 0 l 89 987 l 288 987 l 686 322 l 690 323 l 690 987 l 887 987 z "},"ŋ":{"ha":784,"x_min":73,"x_max":711,"o":"m 257 734 l 266 631 q 355 716 302 686 q 475 747 409 747 q 648 676 586 747 q 711 450 711 604 l 711 -27 q 642 -226 711 -156 q 452 -296 574 -296 q 401 -294 425 -296 q 354 -285 378 -291 l 363 -133 q 395 -139 378 -137 q 431 -141 412 -141 q 491 -112 470 -141 q 512 -27 512 -83 l 512 449 q 485 561 512 528 q 402 593 457 593 q 326 577 359 593 q 271 533 292 562 l 271 0 l 73 0 l 73 734 l 257 734 z "},"Ō":{"ha":956,"x_min":66,"x_max":890,"o":"m 890 405 q 775 104 890 222 q 477 -14 661 -14 q 180 104 294 -14 q 66 405 66 223 l 66 583 q 179 883 66 764 q 475 1002 293 1002 q 774 883 659 1002 q 890 583 890 764 l 890 405 m 692 584 q 635 773 692 699 q 475 847 577 847 q 319 773 375 847 q 263 584 263 699 l 263 405 q 319 214 263 288 q 477 140 376 140 q 635 214 578 140 q 692 405 692 288 l 692 584 m 727 1108 l 231 1108 l 231 1220 l 727 1220 l 727 1108 z "},"ō":{"ha":784,"x_min":45,"x_max":738,"o":"m 45 374 q 137 643 45 538 q 391 747 229 747 q 646 643 553 747 q 738 374 738 538 l 738 359 q 646 90 738 194 q 392 -14 554 -14 q 137 90 229 -14 q 45 359 45 194 l 45 374 m 243 359 q 278 198 243 259 q 392 138 313 138 q 504 199 469 138 q 540 359 540 260 l 540 374 q 504 533 540 471 q 391 595 468 595 q 278 533 314 595 q 243 374 243 471 l 243 359 m 640 876 l 144 876 l 144 988 l 640 988 l 640 876 z "},"Ŏ":{"ha":956,"x_min":66,"x_max":890,"o":"m 890 405 q 775 104 890 222 q 477 -14 661 -14 q 180 104 294 -14 q 66 405 66 223 l 66 583 q 179 883 66 764 q 475 1002 293 1002 q 774 883 659 1002 q 890 583 890 764 l 890 405 m 692 584 q 635 773 692 699 q 475 847 577 847 q 319 773 375 847 q 263 584 263 699 l 263 405 q 319 214 263 288 q 477 140 376 140 q 635 214 578 140 q 692 405 692 288 l 692 584 m 708 1300 l 709 1296 q 649 1155 713 1210 q 479 1101 586 1101 q 307 1155 371 1101 q 248 1296 243 1210 l 249 1300 l 393 1300 q 414 1241 393 1264 q 479 1218 435 1218 q 542 1241 522 1218 q 563 1300 563 1264 l 708 1300 z "},"ŏ":{"ha":784,"x_min":45,"x_max":738,"o":"m 45 374 q 137 643 45 538 q 391 747 229 747 q 646 643 553 747 q 738 374 738 538 l 738 359 q 646 90 738 194 q 392 -14 554 -14 q 137 90 229 -14 q 45 359 45 194 l 45 374 m 243 359 q 278 198 243 259 q 392 138 313 138 q 504 199 469 138 q 540 359 540 260 l 540 374 q 504 533 540 471 q 391 595 468 595 q 278 533 314 595 q 243 374 243 471 l 243 359 m 621 1067 l 623 1063 q 563 923 626 977 q 392 868 499 868 q 220 923 284 868 q 161 1063 157 977 l 162 1067 l 307 1067 q 327 1008 307 1031 q 392 985 348 985 q 455 1008 435 985 q 476 1067 476 1031 l 621 1067 z "},"Ő":{"ha":956,"x_min":66,"x_max":890,"o":"m 890 405 q 775 104 890 222 q 477 -14 661 -14 q 180 104 294 -14 q 66 405 66 223 l 66 583 q 179 883 66 764 q 475 1002 293 1002 q 774 883 659 1002 q 890 583 890 764 l 890 405 m 692 584 q 635 773 692 699 q 475 847 577 847 q 319 773 375 847 q 263 584 263 699 l 263 405 q 319 214 263 288 q 477 140 376 140 q 635 214 578 140 q 692 405 692 288 l 692 584 m 666 1280 l 855 1280 l 857 1276 l 663 1100 l 505 1100 l 503 1103 l 666 1280 m 403 1280 l 589 1280 l 591 1277 l 428 1100 l 269 1100 l 403 1280 z "},"ő":{"ha":784,"x_min":45,"x_max":770,"o":"m 45 374 q 137 643 45 538 q 391 747 229 747 q 646 643 553 747 q 738 374 738 538 l 738 359 q 646 90 738 194 q 392 -14 554 -14 q 137 90 229 -14 q 45 359 45 194 l 45 374 m 243 359 q 278 198 243 259 q 392 138 313 138 q 504 199 469 138 q 540 359 540 260 l 540 374 q 504 533 540 471 q 391 595 468 595 q 278 533 314 595 q 243 374 243 471 l 243 359 m 579 1048 l 768 1048 l 770 1044 l 576 867 l 418 867 l 416 871 l 579 1048 m 316 1048 l 503 1048 l 504 1044 l 341 867 l 182 867 l 316 1048 z "},"Œ":{"ha":1345,"x_min":66,"x_max":1223,"o":"m 1223 0 l 672 0 q 566 -11 610 -7 q 477 -14 522 -14 q 180 98 294 -14 q 66 391 66 210 l 66 597 q 179 889 66 777 q 475 1002 292 1002 q 570 998 522 1002 q 672 987 618 994 l 1221 987 l 1221 835 l 787 835 l 787 587 l 1154 587 l 1154 434 l 787 434 l 787 152 l 1223 152 l 1223 0 m 477 138 q 534 140 505 138 q 589 144 562 141 l 589 842 q 531 847 559 845 q 475 849 503 849 q 319 785 375 849 q 263 598 263 721 l 263 391 q 320 203 263 267 q 477 138 376 138 z "},"œ":{"ha":1253,"x_min":45,"x_max":1216,"o":"m 923 -14 q 767 16 836 -14 q 654 100 699 45 q 543 16 609 45 q 392 -14 476 -14 q 137 90 229 -14 q 45 359 45 194 l 45 374 q 137 643 45 538 q 391 747 229 747 q 543 717 475 747 q 655 632 610 687 q 763 718 699 688 q 910 747 828 747 q 1137 657 1058 747 q 1216 413 1216 566 l 1216 311 l 779 311 l 777 307 q 822 184 781 231 q 944 138 863 138 q 1057 151 1010 138 q 1153 193 1103 165 l 1206 71 q 1087 10 1162 35 q 923 -14 1012 -14 m 243 359 q 278 198 243 259 q 392 138 313 138 q 504 199 469 138 q 540 359 540 260 l 540 374 q 504 533 540 471 q 391 595 468 595 q 278 533 314 595 q 243 374 243 471 l 243 359 m 910 595 q 818 554 850 595 q 779 445 786 513 l 781 441 l 1022 441 l 1022 456 q 996 558 1022 521 q 910 595 969 595 z "},"Ŕ":{"ha":885,"x_min":91,"x_max":848,"o":"m 289 395 l 289 0 l 91 0 l 91 987 l 433 987 q 697 910 602 987 q 792 696 792 833 q 752 565 792 620 q 634 475 711 509 q 760 389 722 450 q 798 240 798 329 l 798 168 q 809 81 798 126 q 848 14 821 36 l 848 0 l 644 0 q 609 72 616 22 q 601 169 601 122 l 601 239 q 561 354 601 313 q 446 395 520 395 l 289 395 m 289 547 l 429 547 q 553 583 513 547 q 594 687 594 618 q 553 795 594 755 q 433 835 512 835 l 289 835 l 289 547 m 465 1265 l 686 1265 l 687 1261 l 499 1085 l 330 1085 l 465 1265 z "},"ŕ":{"ha":489,"x_min":76,"x_max":541,"o":"m 462 564 l 389 566 q 317 547 345 566 q 273 496 288 529 l 273 0 l 76 0 l 76 734 l 260 734 l 269 625 q 335 715 294 683 q 430 747 376 747 q 457 745 445 747 q 483 739 470 743 l 462 564 m 319 1047 l 539 1047 l 541 1043 l 353 867 l 184 867 l 319 1047 z "},"Ŗ":{"ha":885,"x_min":91,"x_max":848,"o":"m 289 395 l 289 0 l 91 0 l 91 987 l 433 987 q 697 910 602 987 q 792 696 792 833 q 752 565 792 620 q 634 475 711 509 q 760 389 722 450 q 798 240 798 329 l 798 168 q 809 81 798 126 q 848 14 821 36 l 848 0 l 644 0 q 609 72 616 22 q 601 169 601 122 l 601 239 q 561 354 601 313 q 446 395 520 395 l 289 395 m 289 547 l 429 547 q 553 583 513 547 q 594 687 594 618 q 553 795 594 755 q 433 835 512 835 l 289 835 l 289 547 m 486 -172 l 398 -332 l 315 -332 l 357 -165 l 357 -63 l 486 -63 l 486 -172 z "},"ŗ":{"ha":489,"x_min":73,"x_max":483,"o":"m 462 564 l 389 566 q 317 547 345 566 q 273 496 288 529 l 273 0 l 76 0 l 76 734 l 260 734 l 269 625 q 335 715 294 683 q 430 747 376 747 q 457 745 445 747 q 483 739 470 743 l 462 564 m 243 -172 l 156 -332 l 73 -332 l 115 -165 l 115 -63 l 243 -63 l 243 -172 z "},"Ř":{"ha":885,"x_min":91,"x_max":848,"o":"m 289 395 l 289 0 l 91 0 l 91 987 l 433 987 q 697 910 602 987 q 792 696 792 833 q 752 565 792 620 q 634 475 711 509 q 760 389 722 450 q 798 240 798 329 l 798 168 q 809 81 798 126 q 848 14 821 36 l 848 0 l 644 0 q 609 72 616 22 q 601 169 601 122 l 601 239 q 561 354 601 313 q 446 395 520 395 l 289 395 m 289 547 l 429 547 q 553 583 513 547 q 594 687 594 618 q 553 795 594 755 q 433 835 512 835 l 289 835 l 289 547 m 425 1184 l 505 1270 l 684 1270 l 684 1259 l 493 1086 l 358 1086 l 168 1259 l 168 1270 l 347 1270 l 425 1184 z "},"ř":{"ha":489,"x_min":22,"x_max":538,"o":"m 462 564 l 389 566 q 317 547 345 566 q 273 496 288 529 l 273 0 l 76 0 l 76 734 l 260 734 l 269 625 q 335 715 294 683 q 430 747 376 747 q 457 745 445 747 q 483 739 470 743 l 462 564 m 279 966 l 359 1052 l 538 1052 l 538 1040 l 347 867 l 212 867 l 22 1041 l 22 1052 l 201 1052 l 279 966 z "},"Ś":{"ha":859,"x_min":55,"x_max":804,"o":"m 606 258 q 566 349 606 315 q 427 414 526 384 q 167 536 256 466 q 79 726 79 606 q 178 925 79 848 q 433 1002 278 1002 q 697 919 597 1002 q 793 702 797 836 l 792 698 l 600 698 q 555 811 600 772 q 430 851 511 851 q 317 816 357 851 q 277 726 277 781 q 320 643 277 675 q 470 575 363 611 q 718 455 633 529 q 804 259 804 380 q 705 59 804 132 q 443 -14 606 -14 q 169 65 283 -14 q 58 302 55 144 l 60 306 l 252 306 q 303 177 252 218 q 443 136 355 136 q 564 169 522 136 q 606 258 606 202 m 468 1280 l 688 1280 l 690 1276 l 502 1099 l 333 1099 l 468 1280 z "},"ś":{"ha":716,"x_min":39,"x_max":665,"o":"m 473 203 q 441 259 473 236 q 324 300 410 283 q 129 378 195 326 q 62 520 62 431 q 142 681 62 614 q 355 747 222 747 q 577 681 494 747 q 658 515 661 614 l 656 511 l 465 511 q 437 583 465 555 q 355 611 408 611 q 279 587 307 611 q 252 529 252 564 q 280 474 252 495 q 397 435 309 452 q 598 356 532 408 q 665 211 665 303 q 580 49 665 112 q 356 -14 495 -14 q 124 60 210 -14 q 43 229 39 134 l 45 233 l 226 233 q 264 148 228 174 q 360 121 301 121 q 444 143 415 121 q 473 203 473 165 m 392 1047 l 612 1047 l 614 1043 l 426 867 l 257 867 l 392 1047 z "},"Ŝ":{"ha":859,"x_min":55,"x_max":804,"o":"m 606 258 q 566 349 606 315 q 427 414 526 384 q 167 536 256 466 q 79 726 79 606 q 178 925 79 848 q 433 1002 278 1002 q 697 919 597 1002 q 793 702 797 836 l 792 698 l 600 698 q 555 811 600 772 q 430 851 511 851 q 317 816 357 851 q 277 726 277 781 q 320 643 277 675 q 470 575 363 611 q 718 455 633 529 q 804 259 804 380 q 705 59 804 132 q 443 -14 606 -14 q 169 65 283 -14 q 58 302 55 144 l 60 306 l 252 306 q 303 177 252 218 q 443 136 355 136 q 564 169 522 136 q 606 258 606 202 m 681 1109 l 681 1094 l 524 1094 l 429 1184 l 334 1094 l 180 1094 l 180 1112 l 372 1274 l 486 1274 l 681 1109 z "},"ŝ":{"ha":716,"x_min":39,"x_max":665,"o":"m 473 203 q 441 259 473 236 q 324 300 410 283 q 129 378 195 326 q 62 520 62 431 q 142 681 62 614 q 355 747 222 747 q 577 681 494 747 q 658 515 661 614 l 656 511 l 465 511 q 437 583 465 555 q 355 611 408 611 q 279 587 307 611 q 252 529 252 564 q 280 474 252 495 q 397 435 309 452 q 598 356 532 408 q 665 211 665 303 q 580 49 665 112 q 356 -14 495 -14 q 124 60 210 -14 q 43 229 39 134 l 45 233 l 226 233 q 264 148 228 174 q 360 121 301 121 q 444 143 415 121 q 473 203 473 165 m 605 877 l 605 861 l 448 861 l 353 951 l 258 861 l 104 861 l 104 879 l 296 1042 l 410 1042 l 605 877 z "},"Ş":{"ha":859,"x_min":55,"x_max":804,"o":"m 606 258 q 566 349 606 315 q 427 414 526 384 q 167 536 256 466 q 79 726 79 606 q 178 925 79 848 q 433 1002 278 1002 q 697 919 597 1002 q 793 702 797 836 l 792 698 l 600 698 q 555 811 600 772 q 430 851 511 851 q 317 816 357 851 q 277 726 277 781 q 320 643 277 675 q 470 575 363 611 q 718 455 633 529 q 804 259 804 380 q 705 59 804 132 q 443 -14 606 -14 q 169 65 283 -14 q 58 302 55 144 l 60 306 l 252 306 q 303 177 252 218 q 443 136 355 136 q 564 169 522 136 q 606 258 606 202 m 505 -2 l 498 -41 q 570 -76 541 -48 q 600 -158 600 -104 q 537 -274 600 -231 q 361 -317 475 -317 l 357 -208 q 412 -194 391 -208 q 432 -152 432 -180 q 410 -113 432 -124 q 336 -98 389 -102 l 357 -2 l 505 -2 z "},"ş":{"ha":716,"x_min":39,"x_max":665,"o":"m 473 203 q 441 259 473 236 q 324 300 410 283 q 129 378 195 326 q 62 520 62 431 q 142 681 62 614 q 355 747 222 747 q 577 681 494 747 q 658 515 661 614 l 656 511 l 465 511 q 437 583 465 555 q 355 611 408 611 q 279 587 307 611 q 252 529 252 564 q 280 474 252 495 q 397 435 309 452 q 598 356 532 408 q 665 211 665 303 q 580 49 665 112 q 356 -14 495 -14 q 124 60 210 -14 q 43 229 39 134 l 45 233 l 226 233 q 264 148 228 174 q 360 121 301 121 q 444 143 415 121 q 473 203 473 165 m 429 -2 l 422 -41 q 494 -76 465 -48 q 524 -158 524 -104 q 461 -274 524 -231 q 286 -317 399 -317 l 281 -208 q 336 -194 315 -208 q 356 -152 356 -180 q 334 -113 356 -124 q 260 -98 313 -102 l 281 -2 l 429 -2 z "},"Š":{"ha":859,"x_min":55,"x_max":804,"o":"m 606 258 q 566 349 606 315 q 427 414 526 384 q 167 536 256 466 q 79 726 79 606 q 178 925 79 848 q 433 1002 278 1002 q 697 919 597 1002 q 793 702 797 836 l 792 698 l 600 698 q 555 811 600 772 q 430 851 511 851 q 317 816 357 851 q 277 726 277 781 q 320 643 277 675 q 470 575 363 611 q 718 455 633 529 q 804 259 804 380 q 705 59 804 132 q 443 -14 606 -14 q 169 65 283 -14 q 58 302 55 144 l 60 306 l 252 306 q 303 177 252 218 q 443 136 355 136 q 564 169 522 136 q 606 258 606 202 m 428 1198 l 507 1284 l 686 1284 l 686 1273 l 496 1100 l 361 1100 l 170 1274 l 170 1284 l 349 1284 l 428 1198 z "},"š":{"ha":716,"x_min":39,"x_max":665,"o":"m 473 203 q 441 259 473 236 q 324 300 410 283 q 129 378 195 326 q 62 520 62 431 q 142 681 62 614 q 355 747 222 747 q 577 681 494 747 q 658 515 661 614 l 656 511 l 465 511 q 437 583 465 555 q 355 611 408 611 q 279 587 307 611 q 252 529 252 564 q 280 474 252 495 q 397 435 309 452 q 598 356 532 408 q 665 211 665 303 q 580 49 665 112 q 356 -14 495 -14 q 124 60 210 -14 q 43 229 39 134 l 45 233 l 226 233 q 264 148 228 174 q 360 121 301 121 q 444 143 415 121 q 473 203 473 165 m 352 966 l 431 1052 l 610 1052 l 610 1040 l 420 867 l 285 867 l 94 1041 l 94 1052 l 273 1052 l 352 966 z "},"Ţ":{"ha":797,"x_min":21,"x_max":779,"o":"m 779 835 l 497 835 l 497 0 l 299 0 l 299 835 l 21 835 l 21 987 l 779 987 l 779 835 m 459 -172 l 372 -332 l 289 -332 l 330 -165 l 330 -63 l 459 -63 l 459 -172 z "},"ţ":{"ha":484,"x_min":9,"x_max":448,"o":"m 313 913 l 313 734 l 437 734 l 437 595 l 313 595 l 313 221 q 331 160 313 178 q 378 142 349 142 q 406 143 394 142 q 432 149 417 145 l 448 6 q 390 -9 418 -4 q 329 -14 362 -14 q 171 42 227 -14 q 116 220 116 98 l 116 595 l 9 595 l 9 734 l 116 734 l 116 913 l 313 913 m 355 -179 l 267 -338 l 184 -338 l 226 -172 l 226 -70 l 355 -70 l 355 -179 z "},"Ť":{"ha":797,"x_min":21,"x_max":779,"o":"m 779 835 l 497 835 l 497 0 l 299 0 l 299 835 l 21 835 l 21 987 l 779 987 l 779 835 m 399 1184 l 478 1270 l 657 1270 l 657 1259 l 467 1086 l 332 1086 l 141 1259 l 141 1270 l 320 1270 l 399 1184 z "},"ť":{"ha":484,"x_min":9,"x_max":568,"o":"m 313 913 l 313 734 l 437 734 l 437 595 l 313 595 l 313 221 q 331 160 313 178 q 378 142 349 142 q 406 143 394 142 q 432 149 417 145 l 448 6 q 390 -9 418 -4 q 329 -14 362 -14 q 171 42 227 -14 q 116 220 116 98 l 116 595 l 9 595 l 9 734 l 116 734 l 116 913 l 313 913 m 568 968 l 481 809 l 398 809 l 439 975 l 439 1078 l 568 1078 l 568 968 z "},"Ŧ":{"ha":797,"x_min":21,"x_max":779,"o":"m 631 513 l 497 513 l 497 0 l 299 0 l 299 513 l 176 513 l 176 636 l 299 636 l 299 835 l 21 835 l 21 987 l 779 987 l 779 835 l 497 835 l 497 636 l 631 636 l 631 513 z "},"ŧ":{"ha":484,"x_min":-7,"x_max":448,"o":"m 313 913 l 313 734 l 437 734 l 437 595 l 313 595 l 313 488 l 448 488 l 448 366 l 313 366 l 313 221 q 331 160 313 178 q 378 142 349 142 q 406 143 394 142 q 432 149 417 145 l 448 6 q 390 -9 418 -4 q 329 -14 362 -14 q 171 42 227 -14 q 116 220 116 98 l 116 366 l -7 366 l -7 488 l 116 488 l 116 595 l 9 595 l 9 734 l 116 734 l 116 913 l 313 913 z "},"Ũ":{"ha":954,"x_min":81,"x_max":873,"o":"m 873 987 l 873 341 q 763 80 873 174 q 476 -14 652 -14 q 191 80 300 -14 q 81 341 81 174 l 81 987 l 280 987 l 280 341 q 333 190 280 242 q 476 138 386 138 q 621 190 568 138 q 675 341 675 242 l 675 987 l 873 987 m 731 1259 q 691 1148 731 1194 q 589 1102 650 1102 q 481 1132 541 1102 q 386 1161 421 1161 q 345 1139 361 1161 q 329 1086 329 1117 l 223 1115 q 263 1226 223 1179 q 365 1273 304 1273 q 468 1243 403 1273 q 568 1214 533 1214 q 609 1236 591 1214 q 627 1289 627 1257 l 731 1259 z "},"ũ":{"ha":784,"x_min":71,"x_max":711,"o":"m 526 109 q 439 18 492 50 q 318 -14 387 -14 q 137 64 202 -14 q 71 309 71 143 l 71 734 l 269 734 l 269 307 q 295 175 269 211 q 376 140 321 140 q 457 155 423 140 q 513 200 491 170 l 513 734 l 711 734 l 711 0 l 547 0 l 526 109 m 644 1026 q 604 915 644 961 q 502 869 564 869 q 394 899 454 869 q 299 928 334 928 q 258 906 275 928 q 242 854 242 884 l 136 882 q 177 993 136 946 q 278 1040 217 1040 q 381 1011 316 1040 q 481 981 446 981 q 522 1003 505 981 q 540 1057 540 1025 l 644 1026 z "},"Ū":{"ha":954,"x_min":81,"x_max":873,"o":"m 873 987 l 873 341 q 763 80 873 174 q 476 -14 652 -14 q 191 80 300 -14 q 81 341 81 174 l 81 987 l 280 987 l 280 341 q 333 190 280 242 q 476 138 386 138 q 621 190 568 138 q 675 341 675 242 l 675 987 l 873 987 m 726 1094 l 231 1094 l 231 1206 l 726 1206 l 726 1094 z "},"ū":{"ha":784,"x_min":71,"x_max":711,"o":"m 526 109 q 439 18 492 50 q 318 -14 387 -14 q 137 64 202 -14 q 71 309 71 143 l 71 734 l 269 734 l 269 307 q 295 175 269 211 q 376 140 321 140 q 457 155 423 140 q 513 200 491 170 l 513 734 l 711 734 l 711 0 l 547 0 l 526 109 m 640 862 l 144 862 l 144 974 l 640 974 l 640 862 z "},"Ŭ":{"ha":954,"x_min":81,"x_max":873,"o":"m 873 987 l 873 341 q 763 80 873 174 q 476 -14 652 -14 q 191 80 300 -14 q 81 341 81 174 l 81 987 l 280 987 l 280 341 q 333 190 280 242 q 476 138 386 138 q 621 190 568 138 q 675 341 675 242 l 675 987 l 873 987 m 707 1286 l 709 1282 q 649 1141 712 1196 q 478 1086 585 1086 q 307 1141 370 1086 q 247 1282 243 1196 l 248 1286 l 393 1286 q 413 1227 393 1250 q 478 1204 434 1204 q 542 1227 521 1204 q 562 1286 562 1250 l 707 1286 z "},"ŭ":{"ha":784,"x_min":71,"x_max":711,"o":"m 526 109 q 439 18 492 50 q 318 -14 387 -14 q 137 64 202 -14 q 71 309 71 143 l 71 734 l 269 734 l 269 307 q 295 175 269 211 q 376 140 321 140 q 457 155 423 140 q 513 200 491 170 l 513 734 l 711 734 l 711 0 l 547 0 l 526 109 m 621 1053 l 622 1049 q 562 908 625 963 q 391 854 498 854 q 220 908 283 854 q 160 1049 156 963 l 161 1053 l 306 1053 q 327 994 306 1017 q 391 971 347 971 q 455 994 434 971 q 475 1053 475 1017 l 621 1053 z "},"Ů":{"ha":954,"x_min":81,"x_max":873,"o":"m 873 987 l 873 341 q 763 80 873 174 q 476 -14 652 -14 q 191 80 300 -14 q 81 341 81 174 l 81 987 l 280 987 l 280 341 q 333 190 280 242 q 476 138 386 138 q 621 190 568 138 q 675 341 675 242 l 675 987 l 873 987 m 351 1184 q 387 1267 351 1234 q 478 1301 424 1301 q 567 1267 531 1301 q 604 1184 604 1234 q 567 1102 604 1134 q 478 1069 531 1069 q 387 1102 424 1069 q 351 1184 351 1134 m 429 1184 q 443 1149 429 1163 q 478 1135 457 1135 q 512 1149 498 1135 q 525 1184 525 1162 q 512 1220 525 1206 q 478 1234 498 1234 q 443 1220 457 1234 q 429 1184 429 1206 z "},"ů":{"ha":784,"x_min":71,"x_max":711,"o":"m 526 109 q 439 18 492 50 q 318 -14 387 -14 q 137 64 202 -14 q 71 309 71 143 l 71 734 l 269 734 l 269 307 q 295 175 269 211 q 376 140 321 140 q 457 155 423 140 q 513 200 491 170 l 513 734 l 711 734 l 711 0 l 547 0 l 526 109 m 264 951 q 300 1035 264 1001 q 391 1068 337 1068 q 480 1035 444 1068 q 517 951 517 1001 q 480 869 517 901 q 391 837 444 837 q 300 869 337 837 q 264 951 264 901 m 342 951 q 356 917 342 930 q 391 903 370 903 q 425 916 412 903 q 438 951 438 930 q 425 987 438 973 q 391 1001 412 1001 q 356 987 370 1001 q 342 951 342 973 z "},"Ű":{"ha":954,"x_min":81,"x_max":873,"o":"m 873 987 l 873 341 q 763 80 873 174 q 476 -14 652 -14 q 191 80 300 -14 q 81 341 81 174 l 81 987 l 280 987 l 280 341 q 333 190 280 242 q 476 138 386 138 q 621 190 568 138 q 675 341 675 242 l 675 987 l 873 987 m 665 1266 l 854 1266 l 856 1262 l 663 1086 l 504 1086 l 503 1089 l 665 1266 m 402 1266 l 589 1266 l 590 1263 l 427 1086 l 268 1086 l 402 1266 z "},"ű":{"ha":784,"x_min":71,"x_max":769,"o":"m 526 109 q 439 18 492 50 q 318 -14 387 -14 q 137 64 202 -14 q 71 309 71 143 l 71 734 l 269 734 l 269 307 q 295 175 269 211 q 376 140 321 140 q 457 155 423 140 q 513 200 491 170 l 513 734 l 711 734 l 711 0 l 547 0 l 526 109 m 578 1034 l 768 1034 l 769 1029 l 576 853 l 417 853 l 416 857 l 578 1034 m 315 1034 l 502 1034 l 503 1030 l 340 853 l 181 853 l 315 1034 z "},"Ų":{"ha":954,"x_min":81,"x_max":873,"o":"m 873 987 l 873 341 q 763 80 873 174 q 476 -14 652 -14 q 191 80 300 -14 q 81 341 81 174 l 81 987 l 280 987 l 280 341 q 333 190 280 242 q 476 138 386 138 q 621 190 568 138 q 675 341 675 242 l 675 987 l 873 987 m 549 0 q 495 -61 512 -36 q 478 -119 478 -86 q 490 -152 478 -138 q 536 -167 501 -167 q 570 -163 555 -167 q 600 -153 585 -159 l 624 -258 q 569 -279 600 -271 q 498 -288 539 -288 q 377 -249 425 -288 q 330 -142 330 -211 q 361 -43 330 -90 q 459 41 393 4 l 549 0 z "},"ų":{"ha":784,"x_min":71,"x_max":728,"o":"m 526 109 q 439 18 492 50 q 318 -14 387 -14 q 137 64 202 -14 q 71 309 71 143 l 71 734 l 269 734 l 269 307 q 295 175 269 211 q 376 140 321 140 q 457 155 423 140 q 513 200 491 170 l 513 734 l 711 734 l 711 0 l 547 0 l 526 109 m 652 0 q 599 -61 616 -36 q 582 -119 582 -86 q 593 -152 582 -138 q 640 -167 605 -167 q 674 -163 659 -167 q 704 -153 688 -159 l 728 -258 q 673 -279 703 -271 q 602 -288 643 -288 q 481 -249 528 -288 q 434 -142 434 -211 q 465 -43 434 -90 q 563 41 496 4 l 652 0 z "},"Ŵ":{"ha":1223,"x_min":14,"x_max":1209,"o":"m 870 317 l 874 317 l 1005 987 l 1209 987 l 979 0 l 795 0 l 613 650 l 609 650 l 428 0 l 244 0 l 14 987 l 218 987 l 349 318 l 353 318 l 531 987 l 691 987 l 870 317 m 864 1095 l 864 1080 l 707 1080 l 612 1170 l 517 1080 l 363 1080 l 363 1097 l 555 1260 l 669 1260 l 864 1095 z "},"ŵ":{"ha":1022,"x_min":20,"x_max":1000,"o":"m 714 273 l 718 273 l 807 734 l 1000 734 l 813 0 l 648 0 l 511 423 l 507 423 l 371 0 l 206 0 l 20 734 l 212 734 l 302 275 l 307 275 l 444 734 l 576 734 l 714 273 m 762 863 l 762 848 l 605 848 l 510 938 l 416 848 l 262 848 l 262 865 l 453 1028 l 568 1028 l 762 863 z "},"Ŷ":{"ha":884,"x_min":7,"x_max":876,"o":"m 439 532 l 444 532 l 659 987 l 876 987 l 538 347 l 538 0 l 340 0 l 340 357 l 7 987 l 224 987 l 439 532 m 698 1095 l 698 1080 l 541 1080 l 446 1170 l 351 1080 l 197 1080 l 197 1097 l 389 1260 l 503 1260 l 698 1095 z "},"ŷ":{"ha":709,"x_min":3,"x_max":706,"o":"m 340 308 l 349 267 l 353 267 l 493 734 l 706 734 l 408 -110 q 323 -242 377 -189 q 163 -296 270 -296 q 116 -292 138 -296 q 64 -281 95 -288 l 87 -136 q 106 -139 96 -138 q 125 -140 117 -140 q 200 -116 174 -140 q 241 -56 227 -92 l 264 1 l 3 734 l 216 734 l 340 308 m 607 863 l 607 848 l 450 848 l 355 938 l 260 848 l 106 848 l 106 865 l 298 1028 l 412 1028 l 607 863 z "},"Ÿ":{"ha":884,"x_min":7,"x_max":876,"o":"m 439 532 l 444 532 l 659 987 l 876 987 l 538 347 l 538 0 l 340 0 l 340 357 l 7 987 l 224 987 l 439 532 m 705 1086 l 525 1086 l 525 1224 l 705 1224 l 705 1086 m 366 1086 l 186 1086 l 186 1224 l 366 1224 l 366 1086 z "},"Ź":{"ha":789,"x_min":52,"x_max":739,"o":"m 286 152 l 739 152 l 739 0 l 52 0 l 52 103 l 492 835 l 53 835 l 53 987 l 727 987 l 727 888 l 286 152 m 447 1266 l 667 1266 l 669 1262 l 481 1086 l 312 1086 l 447 1266 z "},"ź":{"ha":709,"x_min":51,"x_max":661,"o":"m 297 152 l 661 152 l 661 0 l 51 0 l 51 117 l 400 581 l 62 581 l 62 734 l 649 734 l 649 621 l 297 152 m 395 1033 l 615 1033 l 616 1029 l 429 852 l 260 852 l 395 1033 z "},"Ż":{"ha":789,"x_min":52,"x_max":739,"o":"m 286 152 l 739 152 l 739 0 l 52 0 l 52 103 l 492 835 l 53 835 l 53 987 l 727 987 l 727 888 l 286 152 m 519 1086 l 297 1086 l 297 1250 l 519 1250 l 519 1086 z "},"ż":{"ha":709,"x_min":51,"x_max":661,"o":"m 297 152 l 661 152 l 661 0 l 51 0 l 51 117 l 400 581 l 62 581 l 62 734 l 649 734 l 649 621 l 297 152 m 467 853 l 245 853 l 245 1017 l 467 1017 l 467 853 z "},"Ž":{"ha":789,"x_min":52,"x_max":739,"o":"m 286 152 l 739 152 l 739 0 l 52 0 l 52 103 l 492 835 l 53 835 l 53 987 l 727 987 l 727 888 l 286 152 m 407 1185 l 486 1271 l 665 1271 l 665 1259 l 475 1086 l 340 1086 l 149 1260 l 149 1271 l 328 1271 l 407 1185 z "},"ž":{"ha":709,"x_min":51,"x_max":661,"o":"m 297 152 l 661 152 l 661 0 l 51 0 l 51 117 l 400 581 l 62 581 l 62 734 l 649 734 l 649 621 l 297 152 m 355 951 l 434 1038 l 613 1038 l 613 1026 l 422 853 l 288 853 l 97 1027 l 97 1038 l 276 1038 l 355 951 z "},"ſ":{"ha":361,"x_min":79,"x_max":458,"o":"m 79 0 l 79 815 q 150 1005 79 939 q 350 1072 221 1072 q 400 1068 375 1072 q 458 1058 426 1065 l 441 912 q 410 918 424 916 q 376 920 395 920 q 302 892 328 920 q 276 815 276 865 l 276 0 l 79 0 z "},"ƒ":{"ha":502,"x_min":-34,"x_max":505,"o":"m 463 595 l 323 595 l 322 -27 q 254 -226 322 -156 q 63 -296 185 -296 q 14 -294 36 -296 q -34 -285 -9 -291 l -24 -135 q 8 -141 -8 -139 q 43 -144 24 -144 q 103 -113 81 -144 q 124 -27 124 -83 l 124 595 l 16 595 l 16 734 l 124 734 l 124 815 q 195 1005 124 939 q 396 1072 267 1072 q 447 1068 421 1072 q 505 1058 472 1065 l 488 911 q 456 916 472 913 q 420 918 440 918 q 348 891 372 918 q 323 815 323 865 l 323 734 l 463 734 l 463 595 z "},"Ơ":{"ha":973,"x_min":62,"x_max":1059,"o":"m 886 405 q 772 104 886 222 q 473 -14 657 -14 q 176 104 290 -14 q 62 405 62 223 l 62 583 q 176 883 62 764 q 472 1002 290 1002 q 639 970 562 1002 q 772 882 716 939 q 877 956 841 901 q 913 1097 913 1011 l 1059 1097 q 1006 881 1059 967 q 852 760 952 795 q 878 675 869 720 q 886 583 886 630 l 886 405 m 689 584 q 631 773 689 699 q 472 847 574 847 q 316 773 372 847 q 260 584 260 699 l 260 405 q 316 214 260 288 q 473 140 372 140 q 632 214 575 140 q 689 405 689 288 l 689 584 z "},"ơ":{"ha":808,"x_min":45,"x_max":856,"o":"m 45 374 q 137 643 45 538 q 391 747 229 747 q 528 723 467 747 q 635 653 590 698 q 693 723 673 677 q 713 835 713 770 l 856 835 q 815 667 856 736 q 697 565 774 598 q 727 474 717 523 q 738 374 738 426 l 738 359 q 646 90 738 194 q 392 -14 554 -14 q 137 90 229 -14 q 45 359 45 194 l 45 374 m 243 359 q 278 198 243 259 q 392 138 313 138 q 504 199 469 138 q 540 359 540 260 l 540 374 q 504 533 540 471 q 391 595 468 595 q 278 533 314 595 q 243 374 243 471 l 243 359 z "},"Ư":{"ha":990,"x_min":81,"x_max":1128,"o":"m 873 987 l 873 865 l 878 864 q 958 935 934 878 q 983 1090 983 991 l 1128 1090 q 1066 843 1128 933 q 873 734 1004 753 l 873 341 q 763 80 873 174 q 476 -14 652 -14 q 191 80 300 -14 q 81 341 81 174 l 81 987 l 280 987 l 280 341 q 333 190 280 242 q 476 138 386 138 q 621 190 568 138 q 675 341 675 242 l 675 987 l 873 987 z "},"ư":{"ha":791,"x_min":71,"x_max":949,"o":"m 945 811 l 947 808 q 891 622 949 688 q 711 540 834 555 l 711 0 l 547 0 l 526 109 q 439 18 492 50 q 318 -14 387 -14 q 137 64 202 -14 q 71 309 71 143 l 71 734 l 269 734 l 269 307 q 295 175 269 211 q 376 140 321 140 q 457 155 423 140 q 513 200 491 170 l 513 734 l 711 734 l 711 650 l 715 648 q 794 697 770 657 q 819 811 819 736 l 945 811 z "},"ǰ":{"ha":392,"x_min":-72,"x_max":444,"o":"m 299 734 l 299 -27 q 231 -226 299 -156 q 41 -296 162 -296 q -9 -294 13 -296 q -57 -285 -31 -291 l -47 -135 q -15 -141 -31 -139 q 20 -144 2 -144 q 80 -113 58 -144 q 102 -27 102 -83 l 102 734 l 299 734 m 186 947 l 265 1033 l 444 1033 l 444 1021 l 254 848 l 119 848 l -72 1022 l -72 1033 l 107 1033 l 186 947 z "},"Ǻ":{"ha":884,"x_min":12,"x_max":880,"o":"m 606 213 l 286 213 l 219 0 l 12 0 l 345 987 l 548 987 l 880 0 l 673 0 l 606 213 m 334 368 l 557 368 l 448 716 l 444 716 l 334 368 m 512 1451 l 686 1451 l 687 1447 l 509 1308 l 389 1308 l 387 1312 l 512 1451 m 306 1150 q 346 1239 306 1203 q 444 1275 385 1275 q 539 1239 500 1275 q 578 1150 578 1203 q 539 1061 578 1096 q 444 1027 500 1027 q 346 1062 385 1027 q 306 1150 306 1097 m 382 1150 q 400 1107 382 1124 q 444 1090 417 1090 q 485 1107 469 1090 q 502 1150 502 1124 q 485 1194 502 1177 q 444 1211 469 1211 q 400 1194 417 1211 q 382 1150 382 1177 z "},"ǻ":{"ha":746,"x_min":39,"x_max":706,"o":"m 509 0 q 490 53 498 25 q 479 110 482 81 q 398 21 448 56 q 279 -14 348 -14 q 101 45 163 -14 q 39 207 39 104 q 122 374 39 315 q 364 433 205 433 l 475 433 l 475 492 q 448 574 475 545 q 365 603 420 603 q 291 579 317 603 q 264 515 264 556 l 74 515 l 73 519 q 154 680 68 612 q 378 747 239 747 q 592 681 510 747 q 673 490 673 614 l 673 187 q 681 90 673 136 q 706 0 689 45 l 509 0 m 328 132 q 420 158 379 132 q 475 218 460 184 l 475 321 l 364 321 q 269 290 301 321 q 237 214 237 259 q 261 154 237 176 q 328 132 285 132 m 439 1233 l 613 1233 l 614 1229 l 436 1090 l 316 1090 l 315 1093 l 439 1233 m 233 932 q 273 1021 233 985 q 371 1057 313 1057 q 467 1021 428 1057 q 506 932 506 985 q 467 843 506 878 q 371 808 428 808 q 273 843 313 808 q 233 932 233 878 m 310 932 q 327 889 310 905 q 371 872 345 872 q 413 889 396 872 q 429 932 429 905 q 413 976 429 958 q 371 993 396 993 q 327 976 345 993 q 310 932 310 958 z "},"Ǽ":{"ha":1319,"x_min":8,"x_max":1271,"o":"m 1271 0 l 662 0 l 652 227 l 354 227 l 240 0 l 8 0 l 540 987 l 1229 987 l 1229 833 l 825 833 l 836 585 l 1174 585 l 1174 431 l 842 431 l 853 154 l 1271 154 l 1271 0 m 435 390 l 646 390 l 630 769 l 626 770 l 435 390 m 679 1265 l 899 1265 l 901 1261 l 713 1085 l 544 1085 l 679 1265 z "},"ǽ":{"ha":1201,"x_min":55,"x_max":1161,"o":"m 868 -14 q 713 13 781 -14 q 600 93 645 41 q 490 16 559 46 q 327 -14 421 -14 q 126 47 197 -14 q 55 215 55 109 q 141 381 55 323 q 391 439 227 439 l 514 439 l 514 479 q 487 564 514 533 q 409 595 459 595 q 322 569 354 595 q 291 506 291 544 l 100 518 l 98 522 q 181 684 94 620 q 411 747 267 747 q 537 729 480 747 q 634 675 594 710 q 730 729 675 710 q 852 747 785 747 q 1079 658 996 747 q 1161 415 1161 568 l 1161 308 l 720 308 l 718 304 q 763 183 721 229 q 889 138 805 138 q 993 151 951 138 q 1089 193 1035 165 l 1141 68 q 1026 11 1099 35 q 868 -14 954 -14 m 364 125 q 446 146 404 125 q 514 195 489 167 l 514 315 l 393 315 q 290 284 327 315 q 252 212 252 254 q 280 149 252 172 q 364 125 309 125 m 852 595 q 756 553 788 595 q 720 440 724 511 l 721 437 l 966 437 l 966 456 q 938 557 966 519 q 852 595 909 595 m 647 1048 l 867 1048 l 869 1044 l 681 867 l 512 867 l 647 1048 z "},"Ǿ":{"ha":956,"x_min":66,"x_max":890,"o":"m 890 405 q 775 104 890 222 q 477 -14 661 -14 q 373 -3 422 -14 q 281 31 324 8 l 226 -64 l 129 -64 l 211 76 q 103 218 141 132 q 66 405 66 303 l 66 583 q 179 883 66 764 q 475 1002 293 1002 q 602 984 542 1002 q 711 935 661 967 l 766 1029 l 863 1029 l 777 880 q 860 747 831 823 q 890 583 890 671 l 890 405 m 263 405 q 273 313 263 355 q 303 241 283 271 l 307 241 l 624 785 q 558 831 596 814 q 475 847 521 847 q 319 773 375 847 q 263 584 263 699 l 263 405 m 692 584 q 687 645 692 616 q 673 697 682 674 l 670 698 l 363 172 q 415 148 387 156 q 477 140 444 140 q 635 214 578 140 q 692 405 692 288 l 692 584 m 523 1308 l 743 1308 l 745 1303 l 557 1127 l 388 1127 l 523 1308 z "},"ǿ":{"ha":784,"x_min":45,"x_max":738,"o":"m 45 374 q 137 643 45 538 q 391 747 229 747 q 456 742 425 747 q 517 727 488 736 l 565 824 l 674 824 l 604 681 q 703 551 669 631 q 738 374 738 471 l 738 359 q 646 90 738 194 q 392 -14 554 -14 q 330 -9 359 -14 q 273 3 300 -5 l 224 -96 l 115 -96 l 185 47 q 81 177 117 96 q 45 359 45 258 l 45 374 m 243 359 q 249 282 243 317 q 267 224 254 247 l 271 223 l 447 583 q 420 592 434 589 q 391 595 406 595 q 278 533 314 595 q 243 374 243 471 l 243 359 m 540 374 q 534 443 540 410 q 519 498 529 475 l 515 499 l 342 146 q 365 139 353 141 q 392 138 378 138 q 504 199 469 138 q 540 359 540 260 l 540 374 m 405 1044 l 625 1044 l 627 1040 l 439 864 l 270 864 l 405 1044 z "},"Ș":{"ha":859,"x_min":55,"x_max":804,"o":"m 606 258 q 566 349 606 315 q 427 414 526 384 q 167 536 256 466 q 79 726 79 606 q 178 925 79 848 q 433 1002 278 1002 q 697 919 597 1002 q 793 702 797 836 l 792 698 l 600 698 q 555 811 600 772 q 430 851 511 851 q 317 816 357 851 q 277 726 277 781 q 320 643 277 675 q 470 575 363 611 q 718 455 633 529 q 804 259 804 380 q 705 59 804 132 q 443 -14 606 -14 q 169 65 283 -14 q 58 302 55 144 l 60 306 l 252 306 q 303 177 252 218 q 443 136 355 136 q 564 169 522 136 q 606 258 606 202 m 488 -186 l 401 -345 l 318 -345 l 359 -179 l 359 -77 l 488 -77 l 488 -186 z "},"ș":{"ha":716,"x_min":39,"x_max":665,"o":"m 473 203 q 441 259 473 236 q 324 300 410 283 q 129 378 195 326 q 62 520 62 431 q 142 681 62 614 q 355 747 222 747 q 577 681 494 747 q 658 515 661 614 l 656 511 l 465 511 q 437 583 465 555 q 355 611 408 611 q 279 587 307 611 q 252 529 252 564 q 280 474 252 495 q 397 435 309 452 q 598 356 532 408 q 665 211 665 303 q 580 49 665 112 q 356 -14 495 -14 q 124 60 210 -14 q 43 229 39 134 l 45 233 l 226 233 q 264 148 228 174 q 360 121 301 121 q 444 143 415 121 q 473 203 473 165 m 412 -186 l 325 -345 l 242 -345 l 283 -179 l 283 -77 l 412 -77 l 412 -186 z "},"ȷ":{"ha":392,"x_min":-57,"x_max":299,"o":"m 299 734 l 299 -27 q 231 -226 299 -156 q 41 -296 162 -296 q -9 -294 13 -296 q -57 -285 -31 -291 l -47 -135 q -15 -141 -31 -139 q 20 -144 2 -144 q 80 -113 58 -144 q 102 -27 102 -83 l 102 734 l 299 734 z "},"ʼ":{"ha":378,"x_min":108,"x_max":275,"o":"m 275 812 l 205 618 l 108 618 l 108 987 l 275 987 l 275 812 z "},"ˆ":{"ha":689,"x_min":93,"x_max":593,"o":"m 593 865 l 593 849 l 436 849 l 341 939 l 247 849 l 93 849 l 93 867 l 284 1029 l 399 1029 l 593 865 z "},"ˇ":{"ha":654,"x_min":67,"x_max":583,"o":"m 325 947 l 404 1034 l 583 1034 l 583 1022 l 393 849 l 258 849 l 67 1023 l 67 1034 l 246 1034 l 325 947 z "},"˘":{"ha":617,"x_min":72,"x_max":541,"o":"m 536 987 l 538 983 q 478 843 541 897 q 307 788 414 788 q 136 843 199 788 q 76 983 72 897 l 77 987 l 222 987 q 242 928 222 951 q 307 905 263 905 q 371 928 350 905 q 391 987 391 951 l 536 987 z "},"˙":{"ha":427,"x_min":94,"x_max":315,"o":"m 315 832 l 94 832 l 94 996 l 315 996 l 315 832 z "},"˚":{"ha":463,"x_min":104,"x_max":357,"o":"m 104 885 q 141 968 104 935 q 232 1002 178 1002 q 321 968 285 1002 q 357 885 357 935 q 321 803 357 835 q 232 770 285 770 q 141 803 178 770 q 104 885 104 835 m 183 885 q 197 850 183 864 q 232 836 211 836 q 266 850 252 836 q 279 885 279 863 q 266 921 279 907 q 232 935 252 935 q 197 921 211 935 q 183 885 183 907 z "},"˛":{"ha":419,"x_min":56,"x_max":350,"o":"m 275 0 q 221 -61 238 -36 q 204 -119 204 -86 q 216 -152 204 -138 q 262 -167 227 -167 q 296 -163 281 -167 q 326 -153 311 -159 l 350 -258 q 295 -279 326 -271 q 224 -288 265 -288 q 103 -249 151 -288 q 56 -142 56 -211 q 87 -43 56 -90 q 185 41 119 4 l 275 0 z "},"˜":{"ha":669,"x_min":81,"x_max":589,"o":"m 589 1006 q 548 896 589 941 q 446 850 508 850 q 339 879 399 850 q 243 909 279 909 q 203 887 219 909 q 186 834 186 865 l 81 863 q 121 974 81 926 q 222 1021 161 1021 q 326 991 260 1021 q 426 962 391 962 q 467 983 449 962 q 484 1037 484 1005 l 589 1006 z "},"˝":{"ha":594,"x_min":96,"x_max":684,"o":"m 493 1029 l 682 1029 l 684 1025 l 490 849 l 332 849 l 330 852 l 493 1029 m 230 1029 l 416 1029 l 418 1026 l 255 849 l 96 849 l 230 1029 z "},"˳":{"ha":450,"x_min":107,"x_max":354,"o":"m 107 -155 q 143 -75 107 -106 q 232 -43 179 -43 q 319 -75 283 -43 q 354 -155 354 -106 q 319 -233 354 -202 q 232 -264 283 -264 q 143 -233 178 -264 q 107 -155 107 -202 m 184 -155 q 198 -188 184 -174 q 232 -201 211 -201 q 264 -188 252 -201 q 277 -155 277 -175 q 264 -120 277 -133 q 232 -106 252 -106 q 198 -120 211 -106 q 184 -155 184 -133 z "},"̀":{"ha":0,"x_min":-552,"x_max":-304,"o":"m -304 857 l -423 857 l -552 1090 l -551 1095 l -397 1095 l -304 857 z "},"́":{"ha":0,"x_min":-441,"x_max":-197,"o":"m -348 1096 l -198 1096 l -197 1091 l -325 857 l -440 857 l -348 1096 z "},"̃":{"ha":0,"x_min":-610,"x_max":-102,"o":"m -102 1006 q -143 896 -102 941 q -245 850 -183 850 q -352 879 -292 850 q -448 909 -412 909 q -488 887 -472 909 q -505 834 -505 865 l -610 863 q -570 974 -610 926 q -469 1021 -530 1021 q -366 991 -431 1021 q -265 962 -300 962 q -224 983 -242 962 q -207 1037 -207 1005 l -102 1006 z "},"̉":{"ha":0,"x_min":-501,"x_max":-238,"o":"m -488 857 l -498 950 q -427 962 -448 952 q -409 993 -406 972 l -409 997 q -431 1031 -406 1021 q -501 1042 -456 1042 l -496 1132 q -304 1097 -371 1132 q -238 1000 -238 1061 q -267 932 -238 956 q -340 901 -296 907 l -340 857 l -488 857 z "},"̏":{"ha":0,"x_min":-702,"x_max":-114,"o":"m -349 852 l -351 849 l -509 849 l -702 1025 l -701 1029 l -512 1029 l -349 852 m -114 849 l -274 849 l -437 1026 l -435 1029 l -249 1029 l -114 849 z "},"̣":{"ha":0,"x_min":-517,"x_max":-295,"o":"m -295 -240 l -517 -240 l -517 -77 l -295 -77 l -295 -240 z "},"΄":{"ha":471,"x_min":163,"x_max":393,"o":"m 205 1053 l 393 1053 l 260 861 l 163 861 l 205 1053 z "},"΅":{"ha":763,"x_min":104,"x_max":648,"o":"m 648 849 l 475 849 l 475 987 l 648 987 l 648 849 m 275 849 l 104 849 l 104 987 l 275 987 l 275 849 m 353 1192 l 544 1192 l 425 1002 l 324 1002 l 353 1192 z "},"Ά":{"ha":884,"x_min":12,"x_max":880,"o":"m 606 213 l 286 213 l 219 0 l 12 0 l 345 987 l 548 987 l 880 0 l 673 0 l 606 213 m 334 368 l 557 368 l 448 716 l 444 716 l 334 368 m 104 1053 l 292 1053 l 159 861 l 62 861 l 104 1053 z "},"·":{"ha":420,"x_min":108,"x_max":306,"o":"m 306 385 l 108 385 l 108 562 l 306 562 l 306 385 z "},"Έ":{"ha":772,"x_min":-162,"x_max":724,"o":"m 655 434 l 289 434 l 289 152 l 724 152 l 724 0 l 91 0 l 91 987 l 723 987 l 723 835 l 289 835 l 289 587 l 655 587 l 655 434 m -121 1055 l 68 1055 l -66 863 l -162 863 l -121 1055 z "},"Ή":{"ha":980,"x_min":-134,"x_max":889,"o":"m 889 0 l 691 0 l 691 410 l 289 410 l 289 0 l 91 0 l 91 987 l 289 987 l 289 563 l 691 563 l 691 987 l 889 987 l 889 0 m -92 1053 l 96 1053 l -37 861 l -134 861 l -92 1053 z "},"Ί":{"ha":408,"x_min":-126,"x_max":302,"o":"m 302 0 l 104 0 l 104 987 l 302 987 l 302 0 m -85 1055 l 104 1055 l -30 863 l -126 863 l -85 1055 z "},"Ό":{"ha":956,"x_min":-19,"x_max":890,"o":"m 890 405 q 775 104 890 222 q 477 -14 661 -14 q 180 104 294 -14 q 66 405 66 223 l 66 583 q 179 883 66 764 q 475 1002 293 1002 q 774 883 659 1002 q 890 583 890 764 l 890 405 m 692 584 q 635 773 692 699 q 475 847 577 847 q 319 773 375 847 q 263 584 263 699 l 263 405 q 319 214 263 288 q 477 140 376 140 q 635 214 578 140 q 692 405 692 288 l 692 584 m 22 1053 l 211 1053 l 77 861 l -19 861 l 22 1053 z "},"Ύ":{"ha":884,"x_min":-195,"x_max":876,"o":"m 439 532 l 444 532 l 659 987 l 876 987 l 538 347 l 538 0 l 340 0 l 340 357 l 7 987 l 224 987 l 439 532 m -153 1053 l 35 1053 l -98 861 l -195 861 l -153 1053 z "},"Ώ":{"ha":933,"x_min":-30,"x_max":851,"o":"m 498 157 q 597 268 561 179 q 633 518 633 357 l 633 582 q 587 779 633 711 q 460 847 541 847 q 334 779 379 847 q 289 582 289 711 l 289 518 q 325 268 289 356 q 427 157 361 179 l 427 0 l 85 0 l 85 154 l 256 154 q 121 312 172 215 q 71 518 71 408 l 71 581 q 179 884 71 766 q 460 1002 287 1002 q 742 884 633 1002 q 851 581 851 766 l 851 518 q 800 312 851 408 q 667 154 749 215 l 841 154 l 841 0 l 498 0 l 498 157 m 12 1053 l 200 1053 l 66 861 l -30 861 l 12 1053 z "},"ΐ":{"ha":462,"x_min":-77,"x_max":467,"o":"m 291 733 l 291 218 q 306 157 291 174 q 353 140 321 140 q 384 142 372 140 q 419 152 395 144 l 439 9 q 379 -9 408 -4 q 313 -14 350 -14 q 150 44 206 -14 q 93 220 93 102 l 93 733 l 291 733 m 467 806 l 294 806 l 294 944 l 467 944 l 467 806 m 94 806 l -77 806 l -77 944 l 94 944 l 94 806 m 172 1148 l 363 1148 l 243 959 l 143 959 l 172 1148 z "},"Α":{"ha":884,"x_min":12,"x_max":880,"o":"m 606 213 l 286 213 l 219 0 l 12 0 l 345 987 l 548 987 l 880 0 l 673 0 l 606 213 m 334 368 l 557 368 l 448 716 l 444 716 l 334 368 z "},"Β":{"ha":885,"x_min":91,"x_max":831,"o":"m 91 0 l 91 987 l 414 987 q 686 919 589 987 q 784 717 784 851 q 749 595 784 649 q 646 515 713 542 q 785 435 738 498 q 831 288 831 372 q 738 73 831 146 q 473 0 644 0 l 91 0 m 289 437 l 289 152 l 473 152 q 593 186 551 152 q 634 288 634 220 q 593 398 634 359 q 471 437 553 437 l 289 437 m 289 574 l 421 574 q 543 606 500 574 q 586 701 586 639 q 543 802 586 770 q 414 835 500 835 l 289 835 l 289 574 z "},"Γ":{"ha":771,"x_min":90,"x_max":733,"o":"m 733 835 l 288 835 l 288 0 l 90 0 l 90 987 l 733 987 l 733 835 z "},"Δ":{"ha":1013,"x_min":15,"x_max":1002,"o":"m 410 987 l 614 987 l 1002 0 l 15 0 l 410 987 m 279 152 l 738 152 l 513 752 l 509 752 l 279 152 z "},"Ε":{"ha":772,"x_min":91,"x_max":724,"o":"m 655 434 l 289 434 l 289 152 l 724 152 l 724 0 l 91 0 l 91 987 l 723 987 l 723 835 l 289 835 l 289 587 l 655 587 l 655 434 z "},"Ζ":{"ha":789,"x_min":52,"x_max":739,"o":"m 286 152 l 739 152 l 739 0 l 52 0 l 52 103 l 492 835 l 53 835 l 53 987 l 727 987 l 727 888 l 286 152 z "},"Η":{"ha":980,"x_min":91,"x_max":889,"o":"m 889 0 l 691 0 l 691 410 l 289 410 l 289 0 l 91 0 l 91 987 l 289 987 l 289 563 l 691 563 l 691 987 l 889 987 l 889 0 z "},"Θ":{"ha":956,"x_min":66,"x_max":890,"o":"m 610 416 l 353 416 l 353 568 l 610 568 l 610 416 m 890 405 q 775 104 890 222 q 477 -14 661 -14 q 180 104 294 -14 q 66 405 66 223 l 66 583 q 179 883 66 764 q 475 1002 293 1002 q 774 883 659 1002 q 890 583 890 764 l 890 405 m 692 584 q 635 773 692 699 q 475 847 577 847 q 319 773 375 847 q 263 584 263 699 l 263 405 q 319 214 263 288 q 477 140 376 140 q 635 214 578 140 q 692 405 692 288 l 692 584 z "},"Ι":{"ha":408,"x_min":104,"x_max":302,"o":"m 302 0 l 104 0 l 104 987 l 302 987 l 302 0 z "},"Κ":{"ha":885,"x_min":91,"x_max":886,"o":"m 361 412 l 289 412 l 289 0 l 91 0 l 91 987 l 289 987 l 289 584 l 345 584 l 615 987 l 860 987 l 518 528 l 886 0 l 634 0 l 361 412 z "},"Λ":{"ha":901,"x_min":13,"x_max":886,"o":"m 452 770 l 448 770 l 220 0 l 13 0 l 348 987 l 551 987 l 886 0 l 679 0 l 452 770 z "},"Μ":{"ha":1208,"x_min":91,"x_max":1118,"o":"m 602 260 l 606 260 l 859 987 l 1118 987 l 1118 0 l 920 0 l 920 674 l 916 675 l 671 0 l 537 0 l 293 676 l 289 675 l 289 0 l 91 0 l 91 987 l 351 987 l 602 260 z "},"Ν":{"ha":980,"x_min":91,"x_max":889,"o":"m 889 0 l 691 0 l 293 666 l 289 665 l 289 0 l 91 0 l 91 987 l 289 987 l 687 322 l 691 323 l 691 987 l 889 987 l 889 0 z "},"Ξ":{"ha":789,"x_min":66,"x_max":732,"o":"m 66 152 l 732 152 l 732 0 l 66 0 l 66 152 m 142 576 l 655 576 l 655 429 l 142 429 l 142 576 m 81 987 l 704 987 l 704 835 l 81 835 l 81 987 z "},"Ο":{"ha":956,"x_min":66,"x_max":890,"o":"m 890 405 q 775 104 890 222 q 477 -14 661 -14 q 180 104 294 -14 q 66 405 66 223 l 66 583 q 179 883 66 764 q 475 1002 293 1002 q 774 883 659 1002 q 890 583 890 764 l 890 405 m 692 584 q 635 773 692 699 q 475 847 577 847 q 319 773 375 847 q 263 584 263 699 l 263 405 q 319 214 263 288 q 477 140 376 140 q 635 214 578 140 q 692 405 692 288 l 692 584 z "},"Π":{"ha":979,"x_min":90,"x_max":889,"o":"m 889 0 l 691 0 l 691 835 l 288 835 l 288 0 l 90 0 l 90 987 l 889 987 l 889 0 z "},"Ρ":{"ha":885,"x_min":91,"x_max":834,"o":"m 289 358 l 289 0 l 91 0 l 91 987 l 469 987 q 736 901 639 987 q 834 672 834 814 q 736 444 834 530 q 469 358 639 358 l 289 358 m 289 511 l 469 511 q 594 556 551 511 q 637 671 637 601 q 594 788 637 742 q 469 835 552 835 l 289 835 l 289 511 z "},"Σ":{"ha":789,"x_min":49,"x_max":749,"o":"m 559 491 l 312 153 l 749 153 l 749 0 l 49 0 l 49 103 l 349 497 l 49 885 l 49 987 l 731 987 l 731 835 l 313 835 l 559 503 l 559 491 z "},"Τ":{"ha":797,"x_min":21,"x_max":779,"o":"m 779 835 l 497 835 l 497 0 l 299 0 l 299 835 l 21 835 l 21 987 l 779 987 l 779 835 z "},"Υ":{"ha":884,"x_min":7,"x_max":876,"o":"m 439 532 l 444 532 l 659 987 l 876 987 l 538 347 l 538 0 l 340 0 l 340 357 l 7 987 l 224 987 l 439 532 z "},"Φ":{"ha":1022,"x_min":40,"x_max":993,"o":"m 616 851 q 889 742 785 840 q 993 488 993 644 q 888 239 993 336 q 616 132 784 142 l 616 0 l 418 0 l 418 132 q 144 237 249 141 q 40 487 40 334 q 144 743 40 644 q 418 851 249 842 l 418 987 l 616 987 l 616 851 m 234 487 q 282 353 234 402 q 414 299 331 303 l 418 300 l 418 683 l 414 684 q 282 627 331 679 q 234 487 234 576 m 798 488 q 750 627 798 576 q 621 684 703 678 l 616 683 l 616 300 l 621 299 q 750 354 703 304 q 798 488 798 404 z "},"Χ":{"ha":884,"x_min":21,"x_max":873,"o":"m 440 637 l 625 987 l 856 987 l 563 498 l 873 0 l 633 0 l 443 356 l 252 0 l 21 0 l 321 498 l 28 987 l 258 987 l 440 637 z "},"Ψ":{"ha":1006,"x_min":38,"x_max":964,"o":"m 602 394 l 606 393 q 725 465 684 404 q 766 637 766 527 l 766 987 l 964 987 l 964 637 q 867 355 964 460 q 602 233 769 250 l 602 0 l 405 0 l 405 232 q 136 352 235 246 q 38 637 38 457 l 38 987 l 235 987 l 235 637 q 279 468 235 530 q 401 393 322 406 l 405 395 l 405 987 l 602 987 l 602 394 z "},"Ω":{"ha":933,"x_min":71,"x_max":851,"o":"m 498 157 q 597 268 561 179 q 633 518 633 357 l 633 582 q 587 779 633 711 q 460 847 541 847 q 334 779 379 847 q 289 582 289 711 l 289 518 q 325 268 289 356 q 427 157 361 179 l 427 0 l 85 0 l 85 154 l 256 154 q 121 312 172 215 q 71 518 71 408 l 71 581 q 179 884 71 766 q 460 1002 287 1002 q 742 884 633 1002 q 851 581 851 766 l 851 518 q 800 312 851 408 q 667 154 749 215 l 841 154 l 841 0 l 498 0 l 498 157 z "},"Ϊ":{"ha":408,"x_min":-56,"x_max":464,"o":"m 302 0 l 104 0 l 104 987 l 302 987 l 302 0 m 464 1086 l 283 1086 l 283 1224 l 464 1224 l 464 1086 m 125 1086 l -56 1086 l -56 1224 l 125 1224 l 125 1086 z "},"Ϋ":{"ha":884,"x_min":7,"x_max":876,"o":"m 439 532 l 444 532 l 659 987 l 876 987 l 538 347 l 538 0 l 340 0 l 340 357 l 7 987 l 224 987 l 439 532 m 705 1086 l 525 1086 l 525 1224 l 705 1224 l 705 1086 m 366 1086 l 186 1086 l 186 1224 l 366 1224 l 366 1086 z "},"ά":{"ha":783,"x_min":50,"x_max":791,"o":"m 698 733 l 698 220 q 710 160 698 177 q 746 142 722 142 q 761 143 755 142 q 774 147 767 144 l 791 5 q 745 -10 767 -6 q 695 -14 724 -14 q 588 12 632 -14 q 522 90 545 37 q 443 13 489 39 q 335 -14 397 -14 q 124 85 199 -14 q 50 347 50 184 l 50 361 q 125 641 50 534 q 336 747 200 747 q 440 720 395 747 q 519 643 486 693 l 550 733 l 698 733 m 248 347 q 280 194 248 250 q 385 138 312 138 q 454 153 425 138 q 500 198 482 168 q 500 208 500 203 q 500 220 500 213 l 500 531 q 453 578 481 562 q 387 595 425 595 q 281 530 314 595 q 248 361 248 465 l 248 347 m 387 1021 l 575 1021 l 441 829 l 345 829 l 387 1021 z "},"έ":{"ha":773,"x_min":64,"x_max":726,"o":"m 396 311 q 296 289 331 311 q 262 220 262 267 q 297 156 262 183 q 395 130 332 130 q 494 155 458 130 q 530 217 530 180 l 721 217 l 722 213 q 631 45 726 103 q 406 -14 536 -14 q 160 46 256 -14 q 64 208 64 105 q 100 312 64 269 q 203 378 136 355 q 111 443 144 402 q 77 533 77 484 q 167 691 77 635 q 406 747 256 747 q 625 686 536 747 q 711 527 714 625 l 709 523 l 518 523 q 484 581 518 559 q 395 603 449 603 q 305 578 335 603 q 275 519 275 553 q 306 460 275 481 q 396 439 337 439 l 523 439 l 523 311 l 396 311 m 363 1021 l 552 1021 l 418 829 l 322 829 l 363 1021 z "},"ή":{"ha":784,"x_min":73,"x_max":711,"o":"m 257 734 l 266 631 q 355 716 302 686 q 475 747 409 747 q 649 677 587 747 q 711 450 711 606 l 711 -281 l 512 -281 l 512 449 q 485 561 512 528 q 402 595 457 595 q 326 579 359 595 q 271 534 292 563 l 271 0 l 73 0 l 73 734 l 257 734 m 358 1021 l 547 1021 l 413 829 l 317 829 l 358 1021 z "},"ί":{"ha":462,"x_min":93,"x_max":439,"o":"m 291 733 l 291 218 q 306 157 291 174 q 353 140 321 140 q 384 142 372 140 q 419 152 395 144 l 439 9 q 379 -9 408 -4 q 313 -14 350 -14 q 150 44 206 -14 q 93 220 93 102 l 93 733 l 291 733 m 169 1006 l 357 1006 l 224 814 l 127 814 l 169 1006 z "},"ΰ":{"ha":784,"x_min":77,"x_max":733,"o":"m 274 734 l 274 319 q 308 180 274 222 q 399 138 342 138 q 503 209 471 138 q 536 384 536 281 q 516 557 534 469 q 467 734 498 644 l 656 734 q 711 575 690 663 q 733 384 733 487 q 656 94 733 202 q 406 -14 579 -14 q 164 68 251 -14 q 77 320 77 151 l 77 734 l 274 734 m 669 806 l 497 806 l 497 945 l 669 945 l 669 806 m 297 806 l 125 806 l 125 945 l 297 945 l 297 806 m 374 1149 l 566 1149 l 446 960 l 346 960 l 374 1149 z "},"α":{"ha":783,"x_min":50,"x_max":791,"o":"m 698 733 l 698 220 q 710 160 698 177 q 746 142 722 142 q 761 143 755 142 q 774 147 767 144 l 791 5 q 745 -10 767 -6 q 695 -14 724 -14 q 588 12 632 -14 q 522 90 545 37 q 443 13 489 39 q 335 -14 397 -14 q 124 85 199 -14 q 50 347 50 184 l 50 361 q 125 641 50 534 q 336 747 200 747 q 440 720 395 747 q 519 643 486 693 l 550 733 l 698 733 m 248 347 q 280 194 248 250 q 385 138 312 138 q 454 153 425 138 q 500 198 482 168 q 500 208 500 203 q 500 220 500 213 l 500 531 q 453 578 481 562 q 387 595 425 595 q 281 530 314 595 q 248 361 248 465 l 248 347 z "},"β":{"ha":836,"x_min":96,"x_max":787,"o":"m 425 1002 q 657 930 571 1002 q 744 734 744 859 q 709 612 744 667 q 614 524 675 557 q 742 432 696 495 q 787 281 787 369 q 706 63 787 141 q 484 -14 625 -14 q 385 -1 434 -14 q 294 37 335 12 l 294 -273 l 96 -273 l 96 703 q 192 918 96 834 q 425 1002 287 1002 m 422 583 q 516 618 486 583 q 546 721 546 654 q 514 812 546 774 q 425 849 483 849 q 330 809 367 849 q 294 703 294 769 l 294 179 q 357 148 320 159 q 439 138 394 138 q 548 179 508 138 q 589 283 589 220 q 551 400 589 357 q 444 443 513 443 l 378 443 l 378 583 l 422 583 z "},"γ":{"ha":709,"x_min":11,"x_max":699,"o":"m 492 734 l 699 734 l 454 12 l 454 -283 l 256 -283 l 256 14 l 11 734 l 218 734 l 341 273 l 354 205 l 358 205 l 372 273 l 492 734 z "},"δ":{"ha":784,"x_min":45,"x_max":738,"o":"m 664 987 l 664 836 l 390 836 l 389 831 l 554 704 q 686 562 634 645 q 738 374 738 479 l 738 359 q 646 90 738 194 q 392 -14 554 -14 q 137 85 229 -14 q 45 342 45 184 l 45 356 q 119 587 45 492 q 307 702 192 682 l 312 703 l 313 707 l 115 867 l 115 987 l 664 987 m 391 595 q 278 533 314 595 q 243 374 243 471 l 243 359 q 278 198 243 259 q 392 138 313 138 q 504 199 469 138 q 540 359 540 260 l 540 374 q 504 533 540 471 q 391 595 468 595 z "},"ε":{"ha":773,"x_min":64,"x_max":726,"o":"m 396 311 q 296 289 331 311 q 262 220 262 267 q 297 156 262 183 q 395 130 332 130 q 494 155 458 130 q 530 217 530 180 l 721 217 l 722 213 q 631 45 726 103 q 406 -14 536 -14 q 160 46 256 -14 q 64 208 64 105 q 100 312 64 269 q 203 378 136 355 q 111 443 144 402 q 77 533 77 484 q 167 691 77 635 q 406 747 256 747 q 625 686 536 747 q 711 527 714 625 l 709 523 l 518 523 q 484 581 518 559 q 395 603 449 603 q 305 578 335 603 q 275 519 275 553 q 306 460 275 481 q 396 439 337 439 l 523 439 l 523 311 l 396 311 z "},"ζ":{"ha":701,"x_min":51,"x_max":663,"o":"m 656 987 l 656 882 l 412 589 q 307 436 338 501 q 276 286 276 372 q 309 183 276 217 q 411 150 342 150 l 448 150 q 605 100 547 150 q 663 -40 663 51 q 601 -193 661 -125 q 439 -290 541 -261 l 374 -159 q 445 -116 418 -140 q 471 -56 471 -92 q 450 -15 471 -29 q 380 0 429 0 l 347 0 q 148 75 216 0 q 79 259 79 149 q 124 458 79 363 q 263 668 169 553 l 402 832 l 401 836 l 51 836 l 51 987 l 656 987 z "},"η":{"ha":784,"x_min":73,"x_max":711,"o":"m 257 734 l 266 631 q 355 716 302 686 q 475 747 409 747 q 649 677 587 747 q 711 450 711 606 l 711 -281 l 512 -281 l 512 449 q 485 561 512 528 q 402 595 457 595 q 326 579 359 595 q 271 534 292 563 l 271 0 l 73 0 l 73 734 l 257 734 z "},"θ":{"ha":820,"x_min":68,"x_max":736,"o":"m 736 357 q 645 85 736 184 q 404 -14 554 -14 q 160 85 252 -14 q 68 357 68 184 l 68 629 q 160 902 68 802 q 402 1002 251 1002 q 645 902 553 1002 q 736 629 736 802 l 736 357 m 539 422 l 266 422 l 266 338 q 302 190 266 241 q 404 138 338 138 q 504 190 468 138 q 539 338 539 241 l 539 422 m 266 570 l 539 570 l 539 650 q 503 797 539 745 q 402 849 467 849 q 301 797 337 849 q 266 650 266 745 l 266 570 z "},"ι":{"ha":462,"x_min":93,"x_max":439,"o":"m 291 733 l 291 218 q 306 157 291 174 q 353 140 321 140 q 384 142 372 140 q 419 152 395 144 l 439 9 q 379 -9 408 -4 q 313 -14 350 -14 q 150 44 206 -14 q 93 220 93 102 l 93 733 l 291 733 z "},"κ":{"ha":821,"x_min":87,"x_max":795,"o":"m 364 275 l 286 275 l 286 0 l 87 0 l 87 734 l 286 734 l 286 454 l 345 454 l 534 734 l 783 734 l 523 390 l 795 0 l 541 0 l 364 275 z "},"λ":{"ha":747,"x_min":8,"x_max":775,"o":"m 222 0 l 8 0 l 263 718 l 227 791 q 183 852 210 829 q 120 876 156 876 q 97 875 111 876 q 75 872 83 873 l 71 1014 q 121 1025 99 1021 q 168 1029 143 1029 q 329 976 275 1029 q 414 844 383 922 l 660 234 q 692 175 672 198 q 740 147 712 152 q 756 146 748 146 q 775 146 765 146 l 762 -2 q 718 -8 741 -6 q 673 -8 695 -9 q 536 60 587 -2 q 456 211 486 122 l 359 477 l 355 477 l 345 422 l 222 0 z "},"μ":{"ha":857,"x_min":94,"x_max":749,"o":"m 292 734 l 292 313 q 322 176 292 212 q 414 140 353 140 q 498 158 465 140 q 551 212 532 177 l 551 734 l 749 734 l 749 0 l 565 0 l 561 45 q 493 1 531 16 q 409 -14 454 -14 q 345 -7 374 -14 q 292 16 315 0 l 292 -282 l 94 -282 l 94 734 l 292 734 z "},"ν":{"ha":709,"x_min":11,"x_max":699,"o":"m 341 273 l 354 205 l 358 205 l 372 273 l 492 734 l 699 734 l 450 0 l 260 0 l 11 734 l 218 734 l 341 273 z "},"ξ":{"ha":744,"x_min":70,"x_max":731,"o":"m 665 987 l 665 830 l 475 830 q 365 799 401 828 q 329 721 329 770 q 365 641 329 670 q 479 611 401 611 l 581 611 l 581 454 l 484 454 q 322 410 378 454 q 267 282 267 366 q 310 181 267 220 q 427 143 353 143 l 509 143 q 672 96 613 143 q 731 -45 731 48 q 672 -205 730 -140 q 509 -304 615 -271 l 453 -187 q 522 -145 493 -170 q 551 -79 551 -120 q 529 -32 551 -49 q 464 -14 508 -14 l 416 -14 q 164 65 258 -14 q 70 285 70 144 q 121 437 70 375 q 270 532 172 500 q 167 595 203 555 q 131 691 131 635 q 156 773 131 738 q 227 830 180 808 l 83 830 l 83 987 l 665 987 z "},"ο":{"ha":784,"x_min":45,"x_max":738,"o":"m 45 374 q 137 643 45 538 q 391 747 229 747 q 646 643 553 747 q 738 374 738 538 l 738 359 q 646 90 738 194 q 392 -14 554 -14 q 137 90 229 -14 q 45 359 45 194 l 45 374 m 243 359 q 278 198 243 259 q 392 138 313 138 q 504 199 469 138 q 540 359 540 260 l 540 374 q 504 533 540 471 q 391 595 468 595 q 278 533 314 595 q 243 374 243 471 l 243 359 z "},"π":{"ha":920,"x_min":53,"x_max":847,"o":"m 829 589 l 699 589 l 699 218 q 713 157 699 174 q 760 140 728 140 q 791 142 780 140 q 827 152 803 144 l 847 9 q 786 -9 815 -4 q 720 -14 758 -14 q 557 44 614 -14 q 500 220 500 102 l 500 589 l 359 589 l 359 0 l 161 0 l 161 589 l 53 589 l 53 734 l 829 734 l 829 589 z "},"ρ":{"ha":784,"x_min":76,"x_max":736,"o":"m 736 347 q 662 85 736 184 q 452 -14 587 -14 q 350 6 395 -14 q 273 67 306 27 l 273 -282 l 76 -282 l 76 391 q 166 649 76 551 q 412 747 257 747 q 652 641 567 747 q 736 361 736 535 l 736 347 m 539 361 q 506 530 539 465 q 401 595 473 595 q 305 532 337 595 q 273 376 273 470 l 273 375 l 273 375 l 273 201 q 323 154 292 170 q 401 138 355 138 q 506 194 473 138 q 539 347 539 250 l 539 361 z "},"ς":{"ha":713,"x_min":42,"x_max":681,"o":"m 381 747 q 599 672 517 747 q 678 467 681 596 l 677 463 l 496 463 q 467 557 496 520 q 381 595 437 595 q 273 533 305 595 q 240 376 240 471 l 240 356 q 284 214 240 264 q 427 149 328 163 q 613 85 555 129 q 672 -49 672 42 q 610 -202 671 -134 q 450 -298 550 -270 l 384 -168 q 454 -125 428 -148 q 481 -65 481 -102 q 455 -23 481 -38 q 376 2 430 -7 q 125 116 208 26 q 42 356 42 205 l 42 376 q 131 642 42 537 q 381 747 220 747 z "},"σ":{"ha":795,"x_min":44,"x_max":779,"o":"m 779 581 l 604 581 q 692 474 659 536 q 726 346 726 413 l 726 332 q 637 84 726 182 q 391 -14 547 -14 q 136 90 228 -14 q 44 359 44 194 l 44 374 q 136 633 44 532 q 390 734 228 734 l 779 734 l 779 581 m 242 359 q 277 198 242 259 q 391 138 313 138 q 496 199 463 138 q 529 359 529 260 l 529 374 q 495 523 529 465 q 390 581 462 581 q 278 523 313 581 q 242 374 242 465 l 242 359 z "},"τ":{"ha":730,"x_min":35,"x_max":699,"o":"m 699 583 l 464 583 l 464 0 l 266 0 l 266 583 l 35 583 l 35 734 l 699 734 l 699 583 z "},"υ":{"ha":784,"x_min":77,"x_max":733,"o":"m 274 734 l 274 319 q 308 180 274 222 q 399 138 342 138 q 503 209 471 138 q 536 384 536 281 q 516 557 534 469 q 467 734 498 644 l 656 734 q 711 575 690 663 q 733 384 733 487 q 656 94 733 202 q 406 -14 579 -14 q 164 68 251 -14 q 77 320 77 151 l 77 734 l 274 734 z "},"φ":{"ha":1037,"x_min":36,"x_max":992,"o":"m 611 734 q 892 622 791 734 q 992 364 992 511 q 901 113 992 216 q 611 -9 809 10 l 611 -324 l 414 -324 l 414 -8 q 126 128 216 16 q 36 401 36 240 q 60 583 36 499 q 123 734 84 666 l 307 734 q 254 563 273 645 q 234 401 235 481 q 275 238 234 303 q 410 154 316 172 l 414 155 l 414 734 l 611 734 m 794 364 q 746 518 793 458 q 615 576 699 579 l 611 574 l 611 151 l 615 150 q 752 222 709 165 q 794 364 794 279 z "},"χ":{"ha":747,"x_min":16,"x_max":738,"o":"m 113 745 q 274 691 220 745 q 358 559 328 637 l 400 461 l 404 460 l 537 734 l 738 734 l 495 239 l 620 -50 q 653 -108 633 -85 q 700 -136 673 -131 q 716 -138 707 -138 q 735 -138 725 -138 l 722 -287 q 679 -293 702 -292 q 633 -292 656 -294 q 512 -224 557 -286 q 432 -73 466 -163 l 392 20 l 388 20 l 239 -282 l 43 -282 l 297 240 l 182 507 q 135 569 166 547 q 64 592 104 592 q 41 591 56 592 q 20 588 27 589 l 16 730 q 64 741 42 736 q 113 745 87 745 z "},"ψ":{"ha":1035,"x_min":46,"x_max":990,"o":"m 610 734 l 610 155 l 614 153 q 750 238 707 172 q 793 401 793 304 q 771 564 791 481 q 719 734 752 646 l 903 734 q 966 583 941 667 q 990 401 990 500 q 899 125 990 238 q 610 -9 808 13 l 610 -324 l 412 -324 l 412 -7 q 142 114 237 14 q 46 400 46 215 l 46 734 l 244 734 l 244 398 q 288 230 244 289 q 408 155 332 170 l 412 156 l 412 734 l 610 734 z "},"ω":{"ha":1194,"x_min":54,"x_max":1139,"o":"m 347 734 q 279 558 304 646 q 252 384 254 470 q 279 207 252 277 q 371 138 307 138 q 459 184 425 138 q 492 332 492 231 l 492 567 l 701 567 l 701 332 q 734 184 701 231 q 822 138 767 138 q 913 207 885 138 q 941 384 941 276 q 914 558 939 471 q 846 734 889 646 l 1034 734 q 1110 576 1081 664 q 1139 384 1139 488 q 1066 94 1139 202 q 829 -14 994 -14 q 690 23 749 -14 q 597 132 631 60 q 503 23 562 60 q 364 -14 443 -14 q 127 94 199 -14 q 54 384 54 202 q 83 575 54 488 q 159 734 111 663 l 347 734 z "},"ϊ":{"ha":462,"x_min":-58,"x_max":462,"o":"m 291 733 l 291 218 q 306 157 291 174 q 353 140 321 140 q 384 142 372 140 q 419 152 395 144 l 439 9 q 379 -9 408 -4 q 313 -14 350 -14 q 150 44 206 -14 q 93 220 93 102 l 93 733 l 291 733 m 462 852 l 281 852 l 281 991 l 462 991 l 462 852 m 123 852 l -58 852 l -58 991 l 123 991 l 123 852 z "},"ϋ":{"ha":784,"x_min":77,"x_max":733,"o":"m 274 734 l 274 319 q 308 180 274 222 q 399 138 342 138 q 503 209 471 138 q 536 384 536 281 q 516 557 534 469 q 467 734 498 644 l 656 734 q 711 575 690 663 q 733 384 733 487 q 656 94 733 202 q 406 -14 579 -14 q 164 68 251 -14 q 77 320 77 151 l 77 734 l 274 734 m 665 853 l 484 853 l 484 991 l 665 991 l 665 853 m 326 853 l 145 853 l 145 991 l 326 991 l 326 853 z "},"ό":{"ha":784,"x_min":45,"x_max":738,"o":"m 45 374 q 137 643 45 538 q 391 747 229 747 q 646 643 553 747 q 738 374 738 538 l 738 359 q 646 90 738 194 q 392 -14 554 -14 q 137 90 229 -14 q 45 359 45 194 l 45 374 m 243 359 q 278 198 243 259 q 392 138 313 138 q 504 199 469 138 q 540 359 540 260 l 540 374 q 504 533 540 471 q 391 595 468 595 q 278 533 314 595 q 243 374 243 471 l 243 359 m 358 1021 l 547 1021 l 413 829 l 317 829 l 358 1021 z "},"ύ":{"ha":784,"x_min":77,"x_max":733,"o":"m 274 734 l 274 319 q 308 180 274 222 q 399 138 342 138 q 503 209 471 138 q 536 384 536 281 q 516 557 534 469 q 467 734 498 644 l 656 734 q 711 575 690 663 q 733 384 733 487 q 656 94 733 202 q 406 -14 579 -14 q 164 68 251 -14 q 77 320 77 151 l 77 734 l 274 734 m 372 1007 l 560 1007 l 427 815 l 330 815 l 372 1007 z "},"ώ":{"ha":1194,"x_min":54,"x_max":1139,"o":"m 347 734 q 279 558 304 646 q 252 384 254 470 q 279 207 252 277 q 371 138 307 138 q 459 184 425 138 q 492 332 492 231 l 492 567 l 701 567 l 701 332 q 734 184 701 231 q 822 138 767 138 q 913 207 885 138 q 941 384 941 276 q 914 558 939 471 q 846 734 889 646 l 1034 734 q 1110 576 1081 664 q 1139 384 1139 488 q 1066 94 1139 202 q 829 -14 994 -14 q 690 23 749 -14 q 597 132 631 60 q 503 23 562 60 q 364 -14 443 -14 q 127 94 199 -14 q 54 384 54 202 q 83 575 54 488 q 159 734 111 663 l 347 734 m 563 1007 l 751 1007 l 618 815 l 522 815 l 563 1007 z "},"ϑ":{"ha":947,"x_min":83,"x_max":884,"o":"m 370 656 l 370 726 q 443 927 370 852 q 633 1002 516 1002 q 817 928 749 1002 q 884 726 884 854 l 884 377 q 775 93 884 200 q 488 -14 666 -14 q 195 97 307 -14 q 83 377 83 208 l 83 849 l 292 850 l 292 377 q 344 209 292 274 q 488 144 397 144 q 624 204 574 144 q 676 370 673 264 q 457 459 545 379 q 370 656 370 539 l 370 656 m 676 745 q 662 811 676 789 q 622 833 648 833 q 575 811 593 833 q 558 745 558 788 l 558 655 q 589 560 558 599 q 672 516 619 522 l 676 517 l 676 745 z "},"ϒ":{"ha":815,"x_min":-9,"x_max":824,"o":"m 522 816 q 615 962 564 920 q 754 1004 666 1004 q 793 1001 776 1004 q 824 991 810 998 l 808 840 q 793 842 805 841 q 773 844 781 844 q 729 826 748 844 q 698 779 710 808 l 504 323 l 504 0 l 307 0 l 307 332 l 117 779 q 84 826 103 808 q 41 844 65 844 q 21 842 33 844 q 7 840 9 841 l -9 991 q 21 1001 4 998 q 60 1004 38 1004 q 200 964 149 1004 q 292 821 251 924 l 393 559 l 405 498 l 409 498 l 422 559 l 522 816 z "},"ϖ":{"ha":1150,"x_min":13,"x_max":1145,"o":"m 1145 610 l 1055 610 q 1083 503 1073 559 q 1094 384 1094 446 q 1026 94 1094 202 q 805 -14 958 -14 q 668 23 726 -14 q 576 132 609 60 q 483 23 541 60 q 347 -14 424 -14 q 125 94 193 -14 q 58 384 58 202 q 68 503 58 446 q 97 610 78 559 l 13 610 l 13 734 l 1145 734 l 1145 610 m 897 384 q 884 496 895 439 q 854 610 873 553 l 297 610 q 267 496 278 553 q 255 384 256 439 q 278 207 255 276 q 353 138 300 138 q 439 184 407 138 q 472 332 472 231 l 472 471 l 680 471 l 680 332 q 712 184 680 231 q 798 138 745 138 q 873 207 850 138 q 897 384 897 276 z "},"Ѐ":{"ha":772,"x_min":91,"x_max":724,"o":"m 655 434 l 289 434 l 289 152 l 724 152 l 724 0 l 91 0 l 91 987 l 723 987 l 723 835 l 289 835 l 289 587 l 655 587 l 655 434 m 503 1085 l 332 1085 l 148 1261 l 149 1265 l 370 1265 l 503 1085 z "},"Ё":{"ha":772,"x_min":91,"x_max":724,"o":"m 655 434 l 289 434 l 289 152 l 724 152 l 724 0 l 91 0 l 91 987 l 723 987 l 723 835 l 289 835 l 289 587 l 655 587 l 655 434 m 667 1086 l 487 1086 l 487 1224 l 667 1224 l 667 1086 m 328 1086 l 148 1086 l 148 1224 l 328 1224 l 328 1086 z "},"Ђ":{"ha":1058,"x_min":35,"x_max":1028,"o":"m 793 835 l 511 835 l 511 622 l 629 622 q 918 537 810 622 q 1027 292 1027 452 q 963 109 1028 201 q 775 -22 898 17 l 692 106 q 794 181 759 136 q 829 292 829 226 q 777 422 829 377 q 629 467 724 467 l 511 467 l 511 0 l 313 0 l 313 835 l 35 835 l 35 987 l 793 987 l 793 835 z "},"Ѓ":{"ha":771,"x_min":90,"x_max":733,"o":"m 733 835 l 288 835 l 288 0 l 90 0 l 90 987 l 733 987 l 733 835 m 451 1265 l 671 1265 l 673 1261 l 485 1085 l 316 1085 l 451 1265 z "},"Є":{"ha":875,"x_min":79,"x_max":848,"o":"m 843 328 l 844 323 q 748 76 847 165 q 475 -14 649 -14 q 188 101 297 -14 q 79 396 79 215 l 79 592 q 185 887 79 772 q 465 1002 292 1002 q 747 914 645 1002 q 846 666 848 826 l 844 662 l 652 662 q 606 803 652 757 q 465 850 560 850 q 326 778 376 850 q 276 593 276 707 l 276 572 l 568 572 l 568 419 l 276 419 l 276 396 q 329 210 276 282 q 475 138 381 138 q 607 185 564 138 q 651 328 651 231 l 843 328 z "},"Ѕ":{"ha":859,"x_min":55,"x_max":804,"o":"m 606 258 q 566 349 606 315 q 427 414 526 384 q 167 536 256 466 q 79 726 79 606 q 178 925 79 848 q 433 1002 278 1002 q 697 919 597 1002 q 793 702 797 836 l 792 698 l 600 698 q 555 811 600 772 q 430 851 511 851 q 317 816 357 851 q 277 726 277 781 q 320 643 277 675 q 470 575 363 611 q 718 455 633 529 q 804 259 804 380 q 705 59 804 132 q 443 -14 606 -14 q 169 65 283 -14 q 58 302 55 144 l 60 306 l 252 306 q 303 177 252 218 q 443 136 355 136 q 564 169 522 136 q 606 258 606 202 z "},"І":{"ha":408,"x_min":104,"x_max":302,"o":"m 302 0 l 104 0 l 104 987 l 302 987 l 302 0 z "},"Ї":{"ha":408,"x_min":-56,"x_max":464,"o":"m 302 0 l 104 0 l 104 987 l 302 987 l 302 0 m 464 1086 l 283 1086 l 283 1224 l 464 1224 l 464 1086 m 125 1086 l -56 1086 l -56 1224 l 125 1224 l 125 1086 z "},"Ј":{"ha":771,"x_min":21,"x_max":682,"o":"m 484 987 l 682 987 l 682 306 q 592 73 682 159 q 361 -14 502 -14 q 113 63 204 -14 q 24 288 21 140 l 26 292 l 218 292 q 257 175 218 213 q 361 138 296 138 q 450 183 415 138 q 484 306 484 228 l 484 987 z "},"Љ":{"ha":1471,"x_min":28,"x_max":1429,"o":"m 889 987 l 889 642 l 1059 642 q 1329 552 1228 642 q 1429 321 1429 463 q 1329 90 1429 179 q 1059 0 1228 0 l 691 0 l 691 835 l 429 835 l 429 538 q 337 126 429 252 q 58 0 245 0 l 28 0 l 28 152 l 56 152 q 194 236 157 152 q 231 538 231 319 l 231 987 l 889 987 m 889 490 l 889 152 l 1059 152 q 1186 201 1141 152 q 1232 323 1232 251 q 1186 441 1232 392 q 1059 490 1141 490 l 889 490 z "},"Њ":{"ha":1470,"x_min":90,"x_max":1429,"o":"m 288 570 l 690 570 l 690 987 l 888 987 l 888 630 l 1058 630 q 1329 543 1228 630 q 1429 316 1429 455 q 1328 88 1429 176 q 1058 0 1227 0 l 690 0 l 690 418 l 288 418 l 288 0 l 90 0 l 90 987 l 288 987 l 288 570 m 888 477 l 888 155 l 1058 155 q 1186 201 1141 155 q 1231 317 1231 248 q 1186 431 1231 385 q 1058 477 1141 477 l 888 477 z "},"Ћ":{"ha":1108,"x_min":45,"x_max":1024,"o":"m 804 835 l 522 835 l 522 663 l 654 663 q 928 584 833 663 q 1024 338 1024 504 l 1024 0 l 826 0 l 826 338 q 787 473 826 435 q 654 511 747 511 l 522 511 l 522 0 l 323 0 l 323 835 l 45 835 l 45 987 l 804 987 l 804 835 z "},"Ќ":{"ha":885,"x_min":91,"x_max":886,"o":"m 361 412 l 289 412 l 289 0 l 91 0 l 91 987 l 289 987 l 289 584 l 345 584 l 615 987 l 860 987 l 518 528 l 886 0 l 634 0 l 361 412 m 446 1206 l 666 1206 l 667 1202 l 479 1025 l 311 1025 l 446 1206 z "},"Ѝ":{"ha":970,"x_min":84,"x_max":882,"o":"m 684 987 l 882 987 l 882 0 l 684 0 l 684 660 l 680 661 l 281 0 l 84 0 l 84 987 l 281 987 l 281 328 l 286 328 l 684 987 m 578 1085 l 408 1085 l 224 1261 l 225 1265 l 446 1265 l 578 1085 z "},"Ў":{"ha":888,"x_min":16,"x_max":871,"o":"m 432 549 l 450 489 l 454 488 l 661 987 l 871 987 l 511 187 q 408 39 468 92 q 239 -14 347 -14 q 166 -7 198 -14 q 93 14 134 0 l 116 155 q 170 142 146 146 q 217 138 193 138 q 302 162 273 138 q 349 233 332 186 l 364 271 l 16 987 l 230 987 l 432 549 m 673 1286 l 675 1282 q 615 1141 678 1196 q 444 1086 551 1086 q 273 1141 336 1086 q 213 1282 209 1196 l 214 1286 l 359 1286 q 379 1227 359 1250 q 444 1204 400 1204 q 508 1227 487 1204 q 528 1286 528 1250 l 673 1286 z "},"Џ":{"ha":970,"x_min":81,"x_max":880,"o":"m 81 987 l 279 987 l 279 152 l 682 152 l 682 987 l 880 987 l 880 0 l 588 0 l 588 -244 l 390 -244 l 390 0 l 81 0 l 81 987 z "},"А":{"ha":884,"x_min":12,"x_max":880,"o":"m 606 213 l 286 213 l 219 0 l 12 0 l 345 987 l 548 987 l 880 0 l 673 0 l 606 213 m 334 368 l 557 368 l 448 716 l 444 716 l 334 368 z "},"Б":{"ha":870,"x_min":90,"x_max":828,"o":"m 733 835 l 288 835 l 288 640 l 457 640 q 728 551 627 640 q 828 321 828 463 q 727 90 828 179 q 457 0 627 0 l 90 0 l 90 987 l 733 987 l 733 835 m 288 488 l 288 152 l 457 152 q 586 201 541 152 q 631 323 631 251 q 586 440 631 392 q 457 488 541 488 l 288 488 z "},"В":{"ha":885,"x_min":91,"x_max":831,"o":"m 91 0 l 91 987 l 414 987 q 686 919 589 987 q 784 717 784 851 q 749 595 784 649 q 646 515 713 542 q 785 435 738 498 q 831 288 831 372 q 738 73 831 146 q 473 0 644 0 l 91 0 m 289 437 l 289 152 l 473 152 q 593 186 551 152 q 634 288 634 220 q 593 398 634 359 q 471 437 553 437 l 289 437 m 289 574 l 421 574 q 543 606 500 574 q 586 701 586 639 q 543 802 586 770 q 414 835 500 835 l 289 835 l 289 574 z "},"Г":{"ha":771,"x_min":90,"x_max":733,"o":"m 733 835 l 288 835 l 288 0 l 90 0 l 90 987 l 733 987 l 733 835 z "},"Д":{"ha":994,"x_min":9,"x_max":999,"o":"m 999 -243 l 801 -243 l 801 0 l 207 0 l 207 -243 l 9 -243 l 9 152 l 67 152 q 178 255 144 152 q 222 583 212 358 l 245 987 l 882 987 l 882 152 l 999 152 l 999 -243 m 420 583 q 389 332 414 440 q 323 152 365 224 l 684 152 l 684 835 l 434 835 l 420 583 z "},"Е":{"ha":772,"x_min":91,"x_max":724,"o":"m 655 434 l 289 434 l 289 152 l 724 152 l 724 0 l 91 0 l 91 987 l 723 987 l 723 835 l 289 835 l 289 587 l 655 587 l 655 434 z "},"Ж":{"ha":1268,"x_min":4,"x_max":1263,"o":"m 799 412 l 736 412 l 736 0 l 539 0 l 539 412 l 473 412 l 251 0 l 4 0 l 315 532 l 20 987 l 265 987 l 489 584 l 539 584 l 539 987 l 736 987 l 736 584 l 784 584 l 1003 987 l 1247 987 l 956 533 l 1263 0 l 1017 0 l 799 412 z "},"З":{"ha":912,"x_min":59,"x_max":848,"o":"m 452 578 q 590 614 545 578 q 635 717 635 651 q 585 811 635 774 q 441 849 536 849 q 319 813 368 849 q 270 722 270 778 l 78 722 l 77 726 q 180 925 73 849 q 441 1002 286 1002 q 727 928 622 1002 q 832 720 832 855 q 788 595 832 652 q 667 507 744 539 q 801 420 754 478 q 848 277 848 361 q 735 63 848 140 q 441 -14 623 -14 q 172 58 286 -14 q 63 270 59 131 l 64 274 l 256 274 q 308 177 256 216 q 441 138 360 138 q 594 177 538 138 q 650 279 650 217 q 600 393 650 357 q 452 429 550 429 l 319 429 l 319 578 l 452 578 z "},"И":{"ha":970,"x_min":84,"x_max":882,"o":"m 684 987 l 882 987 l 882 0 l 684 0 l 684 660 l 680 661 l 281 0 l 84 0 l 84 987 l 281 987 l 281 328 l 286 328 l 684 987 z "},"Й":{"ha":970,"x_min":84,"x_max":882,"o":"m 684 987 l 882 987 l 882 0 l 684 0 l 684 660 l 680 661 l 281 0 l 84 0 l 84 987 l 281 987 l 281 328 l 286 328 l 684 987 m 713 1286 l 715 1282 q 655 1141 718 1196 q 484 1086 591 1086 q 313 1141 376 1086 q 253 1282 249 1196 l 254 1286 l 399 1286 q 419 1227 399 1250 q 484 1204 440 1204 q 548 1227 527 1204 q 568 1286 568 1250 l 713 1286 z "},"К":{"ha":885,"x_min":91,"x_max":886,"o":"m 361 412 l 289 412 l 289 0 l 91 0 l 91 987 l 289 987 l 289 584 l 345 584 l 615 987 l 860 987 l 518 528 l 886 0 l 634 0 l 361 412 z "},"Л":{"ha":979,"x_min":28,"x_max":889,"o":"m 889 987 l 889 0 l 691 0 l 691 835 l 410 835 l 410 538 q 324 126 410 252 q 58 0 237 0 l 28 0 l 28 152 l 56 152 q 180 235 149 152 q 212 538 212 317 l 212 987 l 889 987 z "},"М":{"ha":1208,"x_min":91,"x_max":1118,"o":"m 602 260 l 606 260 l 859 987 l 1118 987 l 1118 0 l 920 0 l 920 674 l 916 675 l 671 0 l 537 0 l 293 676 l 289 675 l 289 0 l 91 0 l 91 987 l 351 987 l 602 260 z "},"Н":{"ha":980,"x_min":91,"x_max":889,"o":"m 889 0 l 691 0 l 691 410 l 289 410 l 289 0 l 91 0 l 91 987 l 289 987 l 289 563 l 691 563 l 691 987 l 889 987 l 889 0 z "},"О":{"ha":956,"x_min":66,"x_max":890,"o":"m 890 405 q 775 104 890 222 q 477 -14 661 -14 q 180 104 294 -14 q 66 405 66 223 l 66 583 q 179 883 66 764 q 475 1002 293 1002 q 774 883 659 1002 q 890 583 890 764 l 890 405 m 692 584 q 635 773 692 699 q 475 847 577 847 q 319 773 375 847 q 263 584 263 699 l 263 405 q 319 214 263 288 q 477 140 376 140 q 635 214 578 140 q 692 405 692 288 l 692 584 z "},"П":{"ha":979,"x_min":90,"x_max":889,"o":"m 889 0 l 691 0 l 691 835 l 288 835 l 288 0 l 90 0 l 90 987 l 889 987 l 889 0 z "},"Р":{"ha":885,"x_min":91,"x_max":834,"o":"m 289 358 l 289 0 l 91 0 l 91 987 l 469 987 q 736 901 639 987 q 834 672 834 814 q 736 444 834 530 q 469 358 639 358 l 289 358 m 289 511 l 469 511 q 594 556 551 511 q 637 671 637 601 q 594 788 637 742 q 469 835 552 835 l 289 835 l 289 511 z "},"С":{"ha":884,"x_min":67,"x_max":837,"o":"m 831 327 l 833 323 q 736 75 836 165 q 463 -14 637 -14 q 176 100 286 -14 q 67 395 67 214 l 67 591 q 174 887 67 772 q 453 1002 280 1002 q 735 913 633 1002 q 834 665 837 825 l 833 661 l 640 661 q 594 803 640 756 q 453 849 549 849 q 314 778 364 849 q 264 593 264 706 l 264 395 q 317 210 264 281 q 463 138 370 138 q 596 184 552 138 q 640 327 640 231 l 831 327 z "},"Т":{"ha":797,"x_min":21,"x_max":779,"o":"m 779 835 l 497 835 l 497 0 l 299 0 l 299 835 l 21 835 l 21 987 l 779 987 l 779 835 z "},"У":{"ha":888,"x_min":16,"x_max":871,"o":"m 432 549 l 450 489 l 454 488 l 661 987 l 871 987 l 511 187 q 408 39 468 92 q 239 -14 347 -14 q 166 -7 198 -14 q 93 14 134 0 l 116 155 q 170 142 146 146 q 217 138 193 138 q 302 162 273 138 q 349 233 332 186 l 364 271 l 16 987 l 230 987 l 432 549 z "},"Ф":{"ha":1022,"x_min":40,"x_max":993,"o":"m 616 851 q 889 742 785 840 q 993 488 993 644 q 888 239 993 336 q 616 132 784 142 l 616 0 l 418 0 l 418 132 q 144 237 249 141 q 40 487 40 334 q 144 743 40 644 q 418 851 249 842 l 418 987 l 616 987 l 616 851 m 234 487 q 282 353 234 402 q 414 299 331 303 l 418 300 l 418 683 l 414 684 q 282 627 331 679 q 234 487 234 576 m 798 488 q 750 627 798 576 q 621 684 703 678 l 616 683 l 616 300 l 621 299 q 750 354 703 304 q 798 488 798 404 z "},"Х":{"ha":884,"x_min":21,"x_max":873,"o":"m 440 637 l 625 987 l 856 987 l 563 498 l 873 0 l 633 0 l 443 356 l 252 0 l 21 0 l 321 498 l 28 987 l 258 987 l 440 637 z "},"Ц":{"ha":1057,"x_min":82,"x_max":1013,"o":"m 82 987 l 280 987 l 280 153 l 683 153 l 683 987 l 881 987 l 881 153 l 1013 153 l 1013 -243 l 815 -243 l 815 0 l 82 0 l 82 987 z "},"Ч":{"ha":963,"x_min":94,"x_max":873,"o":"m 873 987 l 873 0 l 675 0 l 675 380 q 574 364 630 370 q 475 358 519 358 q 194 437 293 358 q 94 680 94 515 l 94 987 l 292 987 l 292 680 q 335 547 292 584 q 475 511 378 511 q 573 516 517 511 q 675 533 630 522 l 675 987 l 873 987 z "},"Ш":{"ha":1437,"x_min":87,"x_max":1352,"o":"m 286 987 l 286 152 l 623 152 l 623 987 l 820 987 l 820 152 l 1154 152 l 1154 987 l 1352 987 l 1352 0 l 87 0 l 87 987 l 286 987 z "},"Щ":{"ha":1543,"x_min":87,"x_max":1506,"o":"m 286 987 l 286 152 l 623 152 l 623 987 l 820 987 l 820 152 l 1154 152 l 1154 987 l 1352 987 l 1352 141 l 1506 141 l 1506 -237 l 1308 -237 l 1308 0 l 87 0 l 87 987 l 286 987 z "},"Ъ":{"ha":1000,"x_min":4,"x_max":939,"o":"m 4 987 l 398 987 l 398 640 l 568 640 q 838 551 738 640 q 939 321 939 463 q 838 90 939 179 q 568 0 737 0 l 200 0 l 200 835 l 4 835 l 4 987 m 398 488 l 398 152 l 568 152 q 696 201 651 152 q 741 323 741 251 q 696 440 741 392 q 568 488 651 488 l 398 488 z "},"Ы":{"ha":1205,"x_min":90,"x_max":1115,"o":"m 288 640 l 457 640 q 728 551 627 640 q 828 321 828 463 q 727 90 828 179 q 457 0 627 0 l 90 0 l 90 987 l 288 987 l 288 640 m 1115 0 l 917 0 l 917 987 l 1115 987 l 1115 0 m 288 488 l 288 152 l 457 152 q 586 201 541 152 q 631 323 631 251 q 586 440 631 392 q 457 488 541 488 l 288 488 z "},"Ь":{"ha":870,"x_min":90,"x_max":828,"o":"m 288 640 l 457 640 q 728 551 627 640 q 828 321 828 463 q 727 90 828 179 q 457 0 627 0 l 90 0 l 90 987 l 288 987 l 288 640 m 288 488 l 288 152 l 457 152 q 586 201 541 152 q 631 323 631 251 q 586 440 631 392 q 457 488 541 488 l 288 488 z "},"Э":{"ha":873,"x_min":58,"x_max":808,"o":"m 64 661 l 62 665 q 156 912 59 822 q 427 1002 252 1002 q 703 888 598 1002 q 808 592 808 773 l 808 396 q 703 100 808 214 q 427 -14 598 -14 q 155 74 251 -14 q 62 322 58 161 l 63 326 l 255 326 q 296 184 255 230 q 427 138 337 138 q 562 209 514 138 q 609 395 609 280 l 609 424 l 306 424 l 306 576 l 609 576 l 609 592 q 562 778 609 706 q 427 850 514 850 q 297 803 338 850 q 256 661 256 757 l 64 661 z "},"Ю":{"ha":1312,"x_min":104,"x_max":1215,"o":"m 1215 405 q 1101 104 1215 222 q 802 -14 986 -14 q 505 104 619 -14 q 391 405 391 223 l 391 410 l 302 410 l 302 0 l 104 0 l 104 987 l 302 987 l 302 562 l 391 562 l 391 583 q 505 883 391 764 q 801 1002 618 1002 q 1100 883 985 1002 q 1215 583 1215 764 l 1215 405 m 1018 584 q 960 773 1018 699 q 801 847 903 847 q 645 773 701 847 q 589 584 589 699 l 589 405 q 645 214 589 288 q 802 140 701 140 q 961 214 904 140 q 1018 405 1018 288 l 1018 584 z "},"Я":{"ha":816,"x_min":-22,"x_max":741,"o":"m 193 0 l -22 0 l 192 441 q 75 544 115 481 q 36 694 36 608 q 133 910 36 833 q 399 987 229 987 l 741 987 l 741 0 l 543 0 l 543 380 l 376 380 l 193 0 m 543 835 l 399 835 q 275 795 317 835 q 233 685 233 756 q 276 569 233 614 q 399 525 319 525 l 543 525 l 543 835 z "},"а":{"ha":746,"x_min":39,"x_max":706,"o":"m 509 0 q 490 53 498 25 q 479 110 482 81 q 398 21 448 56 q 279 -14 348 -14 q 101 45 163 -14 q 39 207 39 104 q 122 374 39 315 q 364 433 205 433 l 475 433 l 475 492 q 448 574 475 545 q 365 603 420 603 q 291 579 317 603 q 264 515 264 556 l 74 515 l 73 519 q 154 680 68 612 q 378 747 239 747 q 592 681 510 747 q 673 490 673 614 l 673 187 q 681 90 673 136 q 706 0 689 45 l 509 0 m 328 132 q 420 158 379 132 q 475 218 460 184 l 475 321 l 364 321 q 269 290 301 321 q 237 214 237 259 q 261 154 237 176 q 328 132 285 132 z "},"б":{"ha":779,"x_min":44,"x_max":736,"o":"m 407 747 q 649 643 562 747 q 736 374 736 538 l 736 359 q 645 90 736 194 q 391 -14 553 -14 q 136 90 228 -14 q 44 359 44 194 l 44 374 q 44 381 44 378 q 45 387 44 384 l 45 544 q 127 870 45 770 q 386 975 210 970 q 518 995 475 977 q 560 1056 560 1013 l 713 1056 l 714 1052 q 641 871 718 922 q 403 818 565 821 q 251 774 302 816 q 203 663 199 733 l 205 660 q 293 723 240 698 q 407 747 347 747 m 390 595 q 277 533 313 595 q 242 374 242 471 l 242 359 q 277 198 242 259 q 391 138 313 138 q 504 199 468 138 q 539 359 539 260 l 539 374 q 503 533 539 471 q 390 595 467 595 z "},"в":{"ha":784,"x_min":86,"x_max":741,"o":"m 86 0 l 86 734 l 393 734 q 621 682 539 734 q 703 529 703 631 q 668 437 703 477 q 571 376 634 397 q 697 315 654 360 q 741 210 741 270 q 663 53 741 106 q 440 0 585 0 l 86 0 m 284 306 l 284 151 l 440 151 q 517 170 492 151 q 543 227 543 189 q 518 286 543 265 q 440 306 494 306 l 284 306 m 284 435 l 398 435 q 479 452 453 435 q 505 505 505 470 q 477 564 505 545 q 393 583 450 583 l 284 583 l 284 435 z "},"г":{"ha":580,"x_min":73,"x_max":574,"o":"m 574 581 l 271 581 l 271 0 l 73 0 l 73 734 l 574 734 l 574 581 z "},"д":{"ha":926,"x_min":50,"x_max":882,"o":"m 96 152 l 96 153 l 117 153 q 193 217 171 153 q 222 433 215 281 l 237 734 l 781 734 l 781 152 l 882 152 l 882 -243 l 684 -243 l 684 0 l 248 0 l 248 -243 l 50 -243 l 50 152 l 96 152 m 420 433 q 402 273 415 343 q 368 152 390 203 l 583 152 l 583 576 l 427 576 l 420 433 z "},"е":{"ha":726,"x_min":45,"x_max":687,"o":"m 394 -14 q 138 86 230 -14 q 45 346 45 187 l 45 373 q 135 643 45 538 q 381 747 224 748 q 608 657 529 747 q 687 413 687 566 l 687 311 l 250 311 l 248 307 q 293 184 252 231 q 415 138 334 138 q 528 151 481 138 q 624 193 574 165 l 677 71 q 558 10 633 35 q 394 -14 483 -14 m 381 595 q 289 554 321 595 q 250 445 257 513 l 252 441 l 493 441 l 493 456 q 467 558 493 521 q 381 595 440 595 z "},"ж":{"ha":1126,"x_min":12,"x_max":1114,"o":"m 715 277 l 661 277 l 661 0 l 464 0 l 464 277 l 410 277 l 265 0 l 12 0 l 252 397 l 24 734 l 273 734 l 425 457 l 464 457 l 464 734 l 661 734 l 661 457 l 702 457 l 852 734 l 1103 734 l 874 397 l 1114 0 l 861 0 l 715 277 z "},"з":{"ha":773,"x_min":58,"x_max":714,"o":"m 385 438 q 473 459 443 438 q 503 519 503 481 q 474 578 503 553 q 386 603 445 603 q 298 581 332 603 q 265 523 265 559 l 75 523 l 73 527 q 157 686 69 625 q 376 747 244 747 q 612 691 524 747 q 701 533 701 635 q 668 443 701 484 q 577 378 635 402 q 679 312 644 355 q 714 208 714 269 q 619 46 714 105 q 376 -14 524 -14 q 151 45 245 -14 q 62 213 58 103 l 63 217 l 254 217 q 288 154 254 180 q 387 129 323 129 q 483 156 448 129 q 517 220 517 182 q 483 290 517 267 q 385 312 449 312 l 266 312 l 266 438 l 385 438 z "},"и":{"ha":784,"x_min":73,"x_max":711,"o":"m 514 734 l 711 734 l 711 0 l 514 0 l 514 448 l 510 448 l 271 0 l 73 0 l 73 734 l 271 734 l 271 288 l 275 287 l 514 734 z "},"й":{"ha":784,"x_min":73,"x_max":711,"o":"m 514 734 l 711 734 l 711 0 l 514 0 l 514 448 l 510 448 l 271 0 l 73 0 l 73 734 l 271 734 l 271 288 l 275 287 l 514 734 m 622 1053 l 623 1049 q 563 908 627 963 q 393 854 500 854 q 221 908 285 854 q 161 1049 157 963 l 163 1053 l 307 1053 q 328 994 307 1017 q 393 971 349 971 q 456 994 435 971 q 477 1053 477 1017 l 622 1053 z "},"к":{"ha":791,"x_min":87,"x_max":785,"o":"m 361 275 l 286 275 l 286 0 l 87 0 l 87 734 l 286 734 l 286 454 l 345 454 l 513 734 l 763 734 l 520 393 l 785 0 l 521 0 l 361 275 z "},"л":{"ha":779,"x_min":10,"x_max":711,"o":"m 711 734 l 711 0 l 514 0 l 514 581 l 338 581 l 338 421 q 271 102 338 204 q 44 0 205 0 l 12 0 l 10 156 l 31 157 q 119 212 99 157 q 140 421 140 268 l 140 734 l 711 734 z "},"м":{"ha":1056,"x_min":87,"x_max":960,"o":"m 519 231 l 524 231 l 713 734 l 960 734 l 960 0 l 763 0 l 763 438 l 759 439 l 589 0 l 456 0 l 290 429 l 286 429 l 286 0 l 87 0 l 87 734 l 333 734 l 519 231 z "},"н":{"ha":784,"x_min":73,"x_max":710,"o":"m 710 0 l 512 0 l 512 285 l 271 285 l 271 0 l 73 0 l 73 734 l 271 734 l 271 437 l 512 437 l 512 734 l 710 734 l 710 0 z "},"о":{"ha":784,"x_min":45,"x_max":738,"o":"m 45 374 q 137 643 45 538 q 391 747 229 747 q 646 643 553 747 q 738 374 738 538 l 738 359 q 646 90 738 194 q 392 -14 554 -14 q 137 90 229 -14 q 45 359 45 194 l 45 374 m 243 359 q 278 198 243 259 q 392 138 313 138 q 504 199 469 138 q 540 359 540 260 l 540 374 q 504 533 540 471 q 391 595 468 595 q 278 533 314 595 q 243 374 243 471 l 243 359 z "},"п":{"ha":784,"x_min":73,"x_max":711,"o":"m 711 0 l 513 0 l 513 581 l 271 581 l 271 0 l 73 0 l 73 734 l 711 734 l 711 0 z "},"р":{"ha":784,"x_min":76,"x_max":738,"o":"m 738 347 q 663 85 738 184 q 452 -14 587 -14 q 350 7 395 -14 q 273 70 305 28 l 273 -282 l 76 -282 l 76 734 l 254 734 l 266 647 q 344 721 298 695 q 451 747 390 747 q 663 641 587 747 q 738 361 738 534 l 738 347 m 540 361 q 505 529 540 465 q 399 593 471 593 q 323 575 355 593 q 273 523 292 557 l 273 201 q 323 154 292 170 q 401 138 355 138 q 506 194 473 138 q 540 347 540 250 l 540 361 z "},"с":{"ha":716,"x_min":42,"x_max":680,"o":"m 382 138 q 465 169 434 138 q 495 251 495 199 l 675 251 l 677 247 q 594 61 680 136 q 382 -14 509 -14 q 131 90 220 -14 q 42 356 42 194 l 42 376 q 131 643 42 538 q 381 747 219 747 q 597 670 515 747 q 677 467 680 593 l 675 463 l 495 463 q 465 557 495 519 q 381 595 435 595 q 272 533 304 595 q 240 376 240 472 l 240 356 q 272 198 240 258 q 382 138 304 138 z "},"т":{"ha":726,"x_min":33,"x_max":697,"o":"m 697 583 l 463 583 l 463 0 l 264 0 l 264 583 l 33 583 l 33 734 l 697 734 l 697 583 z "},"у":{"ha":709,"x_min":3,"x_max":706,"o":"m 340 308 l 349 267 l 353 267 l 493 734 l 706 734 l 408 -110 q 323 -242 377 -189 q 163 -296 270 -296 q 116 -292 138 -296 q 64 -281 95 -288 l 87 -136 q 106 -139 96 -138 q 125 -140 117 -140 q 200 -116 174 -140 q 241 -56 227 -92 l 264 1 l 3 734 l 216 734 l 340 308 z "},"ф":{"ha":1214,"x_min":42,"x_max":1166,"o":"m 42 361 q 117 641 42 534 q 329 747 193 747 q 427 726 384 747 q 503 664 471 704 l 503 1058 l 701 1058 l 701 661 q 777 725 733 703 q 878 747 821 747 q 1090 641 1015 747 q 1166 361 1166 534 l 1166 347 q 1090 85 1166 184 q 880 -14 1015 -14 q 778 6 822 -14 q 701 66 734 27 l 701 -282 l 503 -282 l 503 65 q 426 6 470 26 q 328 -14 382 -14 q 117 85 193 -14 q 42 347 42 184 l 42 361 m 967 361 q 933 530 967 465 q 827 595 899 595 q 751 576 782 595 q 701 524 720 558 l 701 201 q 751 154 720 170 q 828 138 782 138 q 934 194 901 138 q 967 347 967 250 l 967 361 m 240 347 q 272 194 240 250 q 378 138 304 138 q 452 154 421 138 q 503 201 484 170 l 503 527 q 453 577 484 559 q 379 595 422 595 q 273 530 307 595 q 240 361 240 465 l 240 347 z "},"х":{"ha":709,"x_min":13,"x_max":700,"o":"m 352 500 l 356 500 l 469 734 l 692 734 l 471 371 l 700 0 l 477 0 l 357 243 l 237 0 l 13 0 l 241 371 l 20 734 l 242 734 l 352 500 z "},"ц":{"ha":846,"x_min":73,"x_max":817,"o":"m 73 734 l 271 734 l 271 152 l 513 152 l 513 734 l 711 734 l 711 152 l 817 152 l 817 -243 l 620 -243 l 620 0 l 73 0 l 73 734 z "},"ч":{"ha":778,"x_min":70,"x_max":706,"o":"m 706 0 l 508 0 l 508 233 q 457 225 483 227 q 408 222 431 222 q 158 292 245 222 q 70 503 70 361 l 70 734 l 268 734 l 268 503 q 300 403 268 431 q 408 375 332 375 q 457 378 433 375 q 508 386 482 380 l 508 734 l 706 734 l 706 0 z "},"ш":{"ha":1147,"x_min":73,"x_max":1066,"o":"m 271 734 l 271 152 l 470 152 l 470 734 l 669 734 l 669 152 l 868 152 l 868 734 l 1066 734 l 1066 0 l 73 0 l 73 734 l 271 734 z "},"щ":{"ha":1258,"x_min":73,"x_max":1217,"o":"m 271 734 l 271 152 l 470 152 l 470 734 l 669 734 l 669 152 l 868 152 l 868 734 l 1066 734 l 1066 155 l 1217 155 l 1217 -244 l 1019 -244 l 1019 0 l 73 0 l 73 734 l 271 734 z "},"ъ":{"ha":883,"x_min":9,"x_max":876,"o":"m 420 496 l 558 496 q 791 428 706 496 q 876 250 876 360 q 791 69 876 138 q 558 0 706 0 l 222 0 l 222 581 l 9 581 l 9 734 l 420 734 l 420 496 m 420 345 l 420 151 l 558 151 q 648 178 618 151 q 678 248 678 205 q 648 317 678 290 q 558 345 618 345 l 420 345 z "},"ы":{"ha":1155,"x_min":101,"x_max":1022,"o":"m 300 496 l 437 496 q 670 428 585 496 q 755 250 755 360 q 670 69 755 138 q 437 0 585 0 l 101 0 l 101 734 l 300 734 l 300 496 m 1022 0 l 824 0 l 824 734 l 1022 734 l 1022 0 m 300 345 l 300 151 l 437 151 q 528 178 498 151 q 557 248 557 205 q 528 317 557 290 q 437 345 498 345 l 300 345 z "},"ь":{"ha":775,"x_min":87,"x_max":741,"o":"m 286 496 l 424 496 q 656 428 572 496 q 741 250 741 360 q 656 69 741 138 q 424 0 572 0 l 87 0 l 87 734 l 286 734 l 286 496 m 286 345 l 286 151 l 424 151 q 514 178 484 151 q 544 248 544 205 q 514 317 544 290 q 424 345 484 345 l 286 345 z "},"э":{"ha":722,"x_min":43,"x_max":682,"o":"m 342 595 q 259 564 290 595 q 228 482 228 532 l 47 482 l 46 486 q 129 672 43 597 q 342 747 215 747 q 593 643 503 747 q 682 376 682 538 l 682 356 q 593 90 682 195 q 343 -14 503 -14 q 125 63 208 -14 q 46 267 43 140 l 47 271 l 228 271 q 258 175 228 213 q 343 138 289 138 q 441 185 408 138 q 479 307 474 232 l 477 311 l 287 311 l 287 429 l 477 429 l 478 433 q 440 550 473 505 q 342 595 407 595 z "},"ю":{"ha":1127,"x_min":90,"x_max":1081,"o":"m 288 450 l 394 450 q 503 666 414 584 q 734 747 592 747 q 989 643 897 747 q 1081 374 1081 538 l 1081 359 q 989 90 1081 194 q 735 -14 897 -14 q 499 71 589 -14 q 392 297 409 156 l 288 297 l 288 0 l 90 0 l 90 734 l 288 734 l 288 450 m 586 359 q 621 198 586 259 q 735 138 656 138 q 847 199 812 138 q 883 359 883 260 l 883 374 q 847 533 883 471 q 734 595 811 595 q 622 533 657 595 q 586 374 586 471 l 586 359 z "},"я":{"ha":784,"x_min":35,"x_max":694,"o":"m 694 734 l 694 0 l 498 0 l 498 257 l 378 257 l 235 0 l 35 0 l 197 290 q 93 372 130 319 q 57 490 57 424 q 142 666 57 597 q 372 734 227 734 l 694 734 m 255 485 q 284 419 255 447 q 368 391 314 391 l 498 391 l 498 583 l 372 583 q 286 553 316 583 q 255 485 255 523 z "},"ѐ":{"ha":726,"x_min":45,"x_max":687,"o":"m 394 -14 q 138 86 230 -14 q 45 346 45 187 l 45 373 q 135 643 45 538 q 381 747 224 748 q 608 657 529 747 q 687 413 687 566 l 687 311 l 250 311 l 248 307 q 293 184 252 231 q 415 138 334 138 q 528 151 481 138 q 624 193 574 165 l 677 71 q 558 10 633 35 q 394 -14 483 -14 m 381 595 q 289 554 321 595 q 250 445 257 513 l 252 441 l 493 441 l 493 456 q 467 558 493 521 q 381 595 440 595 m 460 867 l 290 867 l 106 1044 l 107 1048 l 328 1048 l 460 867 z "},"ё":{"ha":726,"x_min":45,"x_max":687,"o":"m 394 -14 q 138 86 230 -14 q 45 346 45 187 l 45 373 q 135 643 45 538 q 381 747 224 748 q 608 657 529 747 q 687 413 687 566 l 687 311 l 250 311 l 248 307 q 293 184 252 231 q 415 138 334 138 q 528 151 481 138 q 624 193 574 165 l 677 71 q 558 10 633 35 q 394 -14 483 -14 m 381 595 q 289 554 321 595 q 250 445 257 513 l 252 441 l 493 441 l 493 456 q 467 558 493 521 q 381 595 440 595 m 625 868 l 445 868 l 445 1006 l 625 1006 l 625 868 m 286 868 l 106 868 l 106 1006 l 286 1006 l 286 868 z "},"ђ":{"ha":784,"x_min":-24,"x_max":711,"o":"m 376 818 l 269 818 l 269 641 q 354 719 304 691 q 465 747 404 747 q 645 671 580 747 q 711 435 711 595 l 711 319 l 711 319 l 711 -28 q 643 -227 711 -157 q 452 -296 574 -296 q 402 -294 425 -296 q 355 -285 379 -291 l 364 -136 q 396 -142 379 -140 q 431 -144 413 -144 q 491 -114 470 -144 q 513 -28 513 -83 l 513 437 q 485 558 513 522 q 403 593 458 593 q 324 579 357 593 q 269 537 290 564 l 269 0 l 71 0 l 71 818 l -24 818 l -24 940 l 71 940 l 71 1058 l 269 1058 l 269 940 l 376 940 l 376 818 z "},"ѓ":{"ha":580,"x_min":73,"x_max":574,"o":"m 574 581 l 271 581 l 271 0 l 73 0 l 73 734 l 574 734 l 574 581 m 326 1033 l 546 1033 l 547 1029 l 359 852 l 191 852 l 326 1033 z "},"є":{"ha":722,"x_min":42,"x_max":680,"o":"m 382 138 q 465 169 434 138 q 495 251 495 199 l 675 251 l 677 247 q 594 61 680 136 q 382 -14 509 -14 q 131 90 220 -14 q 42 356 42 194 l 42 376 q 131 643 42 538 q 381 747 219 747 q 597 670 515 747 q 677 467 680 593 l 675 463 l 495 463 q 465 557 495 519 q 381 595 435 595 q 280 546 313 595 q 241 418 248 498 l 448 418 l 448 300 l 248 300 l 246 296 q 283 181 251 224 q 382 138 316 138 z "},"ѕ":{"ha":716,"x_min":39,"x_max":665,"o":"m 473 203 q 441 259 473 236 q 324 300 410 283 q 129 378 195 326 q 62 520 62 431 q 142 681 62 614 q 355 747 222 747 q 577 681 494 747 q 658 515 661 614 l 656 511 l 465 511 q 437 583 465 555 q 355 611 408 611 q 279 587 307 611 q 252 529 252 564 q 280 474 252 495 q 397 435 309 452 q 598 356 532 408 q 665 211 665 303 q 580 49 665 112 q 356 -14 495 -14 q 124 60 210 -14 q 43 229 39 134 l 45 233 l 226 233 q 264 148 228 174 q 360 121 301 121 q 444 143 415 121 q 473 203 473 165 z "},"і":{"ha":371,"x_min":86,"x_max":284,"o":"m 284 0 l 86 0 l 86 734 l 284 734 l 284 0 m 284 909 l 86 909 l 86 1058 l 284 1058 l 284 909 z "},"ї":{"ha":381,"x_min":-69,"x_max":450,"o":"m 288 0 l 90 0 l 90 734 l 288 734 l 288 0 m 450 853 l 270 853 l 270 991 l 450 991 l 450 853 m 111 853 l -69 853 l -69 991 l 111 991 l 111 853 z "},"ј":{"ha":368,"x_min":-66,"x_max":290,"o":"m 290 734 l 290 -27 q 221 -226 290 -156 q 31 -296 153 -296 q -19 -294 3 -296 q -66 -285 -41 -291 l -57 -134 q -26 -140 -41 -138 q 7 -142 -10 -142 q 69 -114 47 -142 q 91 -27 91 -85 l 91 734 l 290 734 m 286 911 l 87 911 l 87 1058 l 286 1058 l 286 911 z "},"љ":{"ha":1201,"x_min":17,"x_max":1168,"o":"m 712 734 l 712 497 l 850 497 q 1083 429 998 497 q 1168 250 1168 360 q 1083 69 1168 138 q 850 0 998 0 l 514 0 l 514 581 l 357 581 l 357 421 q 285 103 357 207 q 51 0 213 0 l 19 0 l 17 154 l 38 154 q 129 219 99 154 q 159 421 159 284 l 159 734 l 712 734 m 712 345 l 712 151 l 850 151 q 941 179 911 151 q 970 251 970 208 q 941 318 970 292 q 850 345 911 345 l 712 345 z "},"њ":{"ha":1199,"x_min":73,"x_max":1165,"o":"m 271 451 l 512 451 l 512 734 l 710 734 l 710 496 l 848 496 q 1080 428 996 496 q 1165 250 1165 360 q 1080 69 1165 138 q 848 0 996 0 l 512 0 l 512 299 l 271 299 l 271 0 l 73 0 l 73 734 l 271 734 l 271 451 m 710 345 l 710 151 l 848 151 q 938 179 908 151 q 968 251 968 208 q 938 318 968 292 q 848 345 908 345 l 710 345 z "},"ћ":{"ha":784,"x_min":20,"x_max":711,"o":"m 475 821 l 269 821 l 269 641 q 354 719 304 691 q 465 747 404 747 q 645 671 580 747 q 711 435 711 595 l 711 0 l 513 0 l 513 437 q 485 558 513 522 q 403 593 458 593 q 324 579 357 593 q 269 537 290 564 l 269 0 l 71 0 l 71 821 l 20 821 l 20 944 l 71 944 l 71 1058 l 269 1058 l 269 944 l 475 944 l 475 821 z "},"ќ":{"ha":791,"x_min":87,"x_max":785,"o":"m 361 275 l 286 275 l 286 0 l 87 0 l 87 734 l 286 734 l 286 454 l 345 454 l 513 734 l 763 734 l 520 393 l 785 0 l 521 0 l 361 275 m 426 1032 l 646 1032 l 648 1028 l 460 852 l 291 852 l 426 1032 z "},"ѝ":{"ha":784,"x_min":73,"x_max":711,"o":"m 514 734 l 711 734 l 711 0 l 514 0 l 514 448 l 510 448 l 271 0 l 73 0 l 73 734 l 271 734 l 271 288 l 275 287 l 514 734 m 487 852 l 317 852 l 132 1029 l 134 1033 l 354 1033 l 487 852 z "},"ў":{"ha":709,"x_min":3,"x_max":706,"o":"m 340 308 l 349 267 l 353 267 l 493 734 l 706 734 l 408 -110 q 323 -242 377 -189 q 163 -296 270 -296 q 116 -292 138 -296 q 64 -281 95 -288 l 87 -136 q 106 -139 96 -138 q 125 -140 117 -140 q 200 -116 174 -140 q 241 -56 227 -92 l 264 1 l 3 734 l 216 734 l 340 308 m 585 1053 l 586 1049 q 526 908 589 963 q 355 854 463 854 q 184 908 248 854 q 124 1049 120 963 l 125 1053 l 270 1053 q 291 994 270 1017 q 355 971 311 971 q 419 994 398 971 q 439 1053 439 1017 l 585 1053 z "},"џ":{"ha":784,"x_min":73,"x_max":711,"o":"m 271 734 l 271 152 l 513 152 l 513 734 l 711 734 l 711 0 l 491 0 l 491 -243 l 294 -243 l 294 0 l 73 0 l 73 734 l 271 734 z "},"Ѡ":{"ha":1332,"x_min":67,"x_max":1270,"o":"m 744 973 q 827 994 783 987 q 920 1002 871 1002 q 1172 888 1073 1002 q 1270 597 1270 775 l 1270 391 q 1168 98 1270 211 q 907 -14 1067 -14 q 772 1 831 -14 q 668 43 713 16 q 564 1 623 16 q 430 -14 505 -14 q 169 98 270 -14 q 67 391 67 211 l 67 597 q 165 888 67 775 q 418 1002 264 1002 q 510 994 465 1002 q 593 973 554 987 l 551 829 q 492 844 525 838 q 422 849 460 849 q 308 779 351 849 q 264 598 264 709 l 264 391 q 310 208 264 279 q 430 138 355 138 q 519 152 488 138 q 570 188 551 165 l 570 375 l 442 375 l 442 512 l 895 512 l 895 375 l 768 375 l 768 188 q 818 152 786 165 q 907 138 849 138 q 1027 208 982 138 q 1072 391 1072 279 l 1072 598 q 1029 779 1072 709 q 915 849 985 849 q 844 844 877 849 q 785 829 812 838 l 744 973 z "},"ѡ":{"ha":991,"x_min":11,"x_max":970,"o":"m 341 273 l 360 173 l 364 173 l 392 273 l 445 477 l 370 734 l 567 734 l 665 273 l 675 221 l 679 221 l 680 228 q 748 462 729 332 q 764 734 766 591 l 970 734 q 903 358 954 539 q 769 0 851 176 l 585 0 l 519 222 l 515 222 l 439 0 l 260 0 l 11 734 l 218 734 l 341 273 z "},"Ѣ":{"ha":870,"x_min":4,"x_max":828,"o":"m 459 739 l 288 739 l 288 640 l 457 640 q 728 551 627 640 q 828 321 828 463 q 727 90 828 179 q 457 0 627 0 l 90 0 l 90 739 l 4 739 l 4 862 l 90 862 l 90 987 l 288 987 l 288 862 l 459 862 l 459 739 m 288 488 l 288 152 l 457 152 q 586 201 541 152 q 631 323 631 251 q 586 440 631 392 q 457 488 541 488 l 288 488 z "},"ѣ":{"ha":775,"x_min":-7,"x_max":741,"o":"m 459 749 l 286 749 l 286 496 l 424 496 q 656 428 572 496 q 741 250 741 360 q 656 69 741 138 q 424 0 572 0 l 87 0 l 87 749 l -7 749 l -7 872 l 87 872 l 87 1059 l 286 1059 l 286 872 l 459 872 l 459 749 m 286 345 l 286 151 l 424 151 q 514 178 484 151 q 544 248 544 205 q 514 317 544 290 q 424 345 484 345 l 286 345 z "},"Ѥ":{"ha":1240,"x_min":105,"x_max":1154,"o":"m 831 414 l 581 414 l 581 396 q 634 210 581 282 q 780 138 686 138 q 912 185 869 138 q 956 328 956 231 l 1148 328 l 1149 323 q 1053 76 1152 165 q 780 -14 954 -14 q 493 101 602 -14 q 384 396 384 215 l 384 414 l 303 414 l 303 0 l 105 0 l 105 987 l 303 987 l 303 567 l 384 567 l 384 592 q 490 887 384 772 q 770 1002 597 1002 q 1052 914 950 1002 q 1151 666 1154 826 l 1149 662 l 957 662 q 911 803 957 757 q 770 850 865 850 q 631 778 681 850 q 581 593 581 707 l 581 567 l 831 567 l 831 414 z "},"ѥ":{"ha":1048,"x_min":89,"x_max":968,"o":"m 744 313 l 535 313 l 533 309 q 569 185 536 232 q 671 138 602 138 q 753 169 723 138 q 784 251 784 199 l 964 251 l 966 247 q 883 61 968 136 q 671 -14 798 -14 q 432 76 519 -14 q 333 313 345 167 l 287 313 l 287 0 l 89 0 l 89 734 l 287 734 l 287 435 l 334 435 q 437 661 350 574 q 670 747 524 747 q 886 670 804 747 q 966 467 968 593 l 964 463 l 784 463 q 754 557 784 519 q 670 595 724 595 q 573 551 606 595 q 535 439 541 508 l 536 435 l 744 435 l 744 313 z "},"Ѧ":{"ha":913,"x_min":12,"x_max":911,"o":"m 616 264 l 541 264 l 541 0 l 374 0 l 374 264 l 307 264 l 219 0 l 12 0 l 361 987 l 564 987 l 911 0 l 703 0 l 616 264 m 351 401 l 571 401 l 463 726 l 459 726 l 351 401 z "},"ѧ":{"ha":777,"x_min":5,"x_max":762,"o":"m 497 184 l 445 184 l 445 0 l 315 0 l 315 184 l 269 184 l 206 0 l 5 0 l 281 734 l 485 734 l 762 0 l 561 0 l 497 184 m 311 309 l 454 309 l 403 459 l 385 536 l 380 536 l 362 459 l 311 309 z "},"Ѩ":{"ha":1301,"x_min":117,"x_max":1270,"o":"m 315 401 l 513 401 l 720 987 l 923 987 l 1270 0 l 1062 0 l 975 264 l 899 264 l 899 0 l 733 0 l 733 264 l 665 264 l 578 0 l 371 0 l 464 264 l 315 264 l 315 0 l 117 0 l 117 987 l 315 987 l 315 401 m 710 401 l 930 401 l 822 726 l 818 726 l 710 401 z "},"ѩ":{"ha":1111,"x_min":113,"x_max":1065,"o":"m 311 309 l 424 309 l 585 734 l 788 734 l 1065 0 l 864 0 l 800 184 l 748 184 l 748 0 l 618 0 l 618 184 l 572 184 l 509 0 l 113 0 l 113 734 l 311 734 l 311 309 m 614 309 l 758 309 l 706 459 l 688 536 l 684 536 l 665 459 l 614 309 m 311 184 l 311 18 l 315 18 l 377 184 l 311 184 z "},"Ѫ":{"ha":1210,"x_min":77,"x_max":1133,"o":"m 797 545 q 1048 466 962 540 q 1133 233 1133 392 l 1133 0 l 935 0 l 935 233 q 896 357 935 322 q 770 391 857 391 l 713 391 l 713 0 l 515 0 l 515 391 l 440 391 q 314 357 353 391 q 275 233 275 322 l 275 0 l 77 0 l 77 233 q 168 471 77 397 q 435 546 258 545 l 182 987 l 1051 987 l 797 545 m 616 569 l 753 833 l 479 833 l 616 569 z "},"ѫ":{"ha":1018,"x_min":75,"x_max":943,"o":"m 75 0 l 75 121 q 142 331 75 261 q 340 413 209 401 l 153 734 l 876 734 l 688 412 q 878 328 813 398 q 943 121 943 258 l 943 0 l 746 0 l 746 121 q 716 237 746 205 q 618 270 686 270 l 611 270 l 611 0 l 413 0 l 413 270 l 399 270 q 302 237 332 270 q 272 121 272 205 l 272 0 l 75 0 m 512 431 l 516 431 l 600 606 l 429 606 l 512 431 z "},"Ѭ":{"ha":1616,"x_min":104,"x_max":1518,"o":"m 883 392 l 225 392 l 225 547 l 883 547 l 883 392 m 302 0 l 104 0 l 104 987 l 302 987 l 302 0 m 1181 545 q 1432 466 1347 540 q 1518 233 1518 392 l 1518 0 l 1320 0 l 1320 233 q 1280 357 1320 322 q 1154 391 1241 391 l 1097 391 l 1097 0 l 899 0 l 899 391 l 825 391 q 698 357 737 391 q 659 233 659 322 l 659 0 l 461 0 l 461 233 q 552 471 461 397 q 820 546 643 545 l 566 987 l 1436 987 l 1181 545 m 1001 569 l 1138 833 l 864 833 l 1001 569 z "},"ѭ":{"ha":1398,"x_min":90,"x_max":1286,"o":"m 833 275 l 157 275 l 157 416 l 833 416 l 833 275 m 288 0 l 90 0 l 90 734 l 288 734 l 288 0 m 418 0 l 418 121 q 485 331 418 261 q 683 413 552 401 l 496 734 l 1219 734 l 1031 412 q 1221 328 1156 398 q 1286 121 1286 258 l 1286 0 l 1089 0 l 1089 121 q 1059 237 1089 205 q 962 270 1029 270 l 954 270 l 954 0 l 756 0 l 756 270 l 743 270 q 645 237 675 270 q 615 121 615 205 l 615 0 l 418 0 m 855 431 l 859 431 l 943 606 l 772 606 l 855 431 z "},"Ѯ":{"ha":713,"x_min":3,"x_max":642,"o":"m 263 585 q 377 619 340 585 q 414 713 414 654 q 375 799 414 768 q 258 831 336 831 l 82 831 l 82 987 l 258 987 q 517 922 422 987 q 612 729 612 857 q 571 593 612 649 q 455 507 530 536 q 594 419 546 478 q 642 277 642 361 q 549 63 642 140 q 300 -14 456 -14 l 260 -14 q 202 -32 220 -14 q 184 -79 184 -49 q 212 -145 184 -120 q 281 -188 241 -170 l 226 -304 q 61 -214 118 -279 q 3 -54 4 -149 q 67 93 3 43 q 245 143 132 143 l 289 143 q 402 179 361 143 q 444 274 444 216 q 397 388 444 349 q 258 427 349 427 l 161 427 l 161 585 l 263 585 m 380 1213 l 460 1299 l 639 1299 l 639 1287 l 448 1114 l 313 1114 l 123 1288 l 123 1299 l 302 1299 l 380 1213 z "},"ѯ":{"ha":701,"x_min":19,"x_max":625,"o":"m 274 425 q 367 449 336 425 q 397 515 397 473 q 362 573 397 551 q 258 595 327 595 l 82 595 l 82 734 l 258 734 q 504 683 414 734 q 594 531 594 631 q 562 432 594 474 q 472 367 530 391 q 585 304 546 345 q 625 206 625 263 q 539 44 625 103 q 310 -14 453 -14 l 277 -14 q 210 -32 231 -14 q 189 -79 189 -49 q 215 -145 189 -120 q 277 -188 240 -170 l 221 -294 q 76 -202 132 -266 q 19 -54 20 -139 q 78 80 19 35 q 241 125 136 125 l 279 125 q 387 149 347 125 q 427 212 427 173 q 387 281 427 257 q 269 304 346 304 l 161 304 l 161 425 l 274 425 m 332 979 l 411 1065 l 590 1065 l 590 1054 l 399 881 l 264 881 l 74 1055 l 74 1065 l 253 1065 l 332 979 z "},"Ѱ":{"ha":1006,"x_min":38,"x_max":964,"o":"m 602 394 l 606 393 q 725 465 684 404 q 766 637 766 527 l 766 987 l 964 987 l 964 637 q 867 355 964 460 q 602 233 769 250 l 602 0 l 405 0 l 405 232 q 136 352 235 246 q 38 637 38 457 l 38 987 l 235 987 l 235 637 q 279 468 235 530 q 401 393 322 406 l 405 395 l 405 987 l 602 987 l 602 394 z "},"ѱ":{"ha":1035,"x_min":46,"x_max":990,"o":"m 610 734 l 610 155 l 614 153 q 750 238 707 172 q 793 401 793 304 q 771 564 791 481 q 719 734 752 646 l 903 734 q 966 583 941 667 q 990 401 990 500 q 899 125 990 238 q 610 -9 808 13 l 610 -324 l 412 -324 l 412 -7 q 142 114 237 14 q 46 400 46 215 l 46 734 l 244 734 l 244 398 q 288 230 244 289 q 408 155 332 170 l 412 156 l 412 734 l 610 734 z "},"Ѳ":{"ha":956,"x_min":66,"x_max":890,"o":"m 890 405 q 775 104 890 222 q 477 -14 661 -14 q 180 104 294 -14 q 66 405 66 223 l 66 583 q 179 883 66 764 q 475 1002 293 1002 q 774 883 659 1002 q 890 583 890 764 l 890 405 m 603 511 q 651 525 626 511 q 692 559 676 538 l 692 584 q 635 773 692 699 q 475 847 577 847 q 319 773 375 847 q 263 584 263 699 l 263 533 q 313 574 283 559 q 380 589 342 589 q 493 550 425 589 q 603 511 562 511 m 692 419 q 643 387 671 398 q 582 375 615 375 q 464 414 526 375 q 359 454 401 454 q 301 432 330 454 q 264 380 273 410 q 325 206 269 273 q 477 140 381 140 q 635 214 578 140 q 692 405 692 288 l 692 419 z "},"ѳ":{"ha":784,"x_min":45,"x_max":738,"o":"m 45 374 q 137 643 45 538 q 391 747 229 747 q 646 643 553 747 q 738 374 738 538 l 738 359 q 646 90 738 194 q 392 -14 554 -14 q 137 90 229 -14 q 45 359 45 194 l 45 374 m 483 385 q 514 396 500 385 q 536 427 529 408 q 492 549 528 503 q 391 595 456 595 q 283 541 318 595 q 249 404 248 486 l 252 401 q 280 429 260 418 q 322 439 300 439 q 404 412 355 439 q 483 385 453 385 m 306 334 q 270 318 286 334 q 250 278 254 302 q 296 175 261 212 q 392 138 331 138 q 493 183 458 138 q 531 303 528 229 l 529 307 q 503 286 520 294 q 467 279 486 279 q 381 307 427 279 q 306 334 336 334 z "},"Ѵ":{"ha":892,"x_min":9,"x_max":903,"o":"m 430 268 l 442 213 l 446 213 l 458 266 l 595 770 q 687 943 629 885 q 833 1000 744 1000 q 872 997 854 1000 q 903 987 889 994 l 887 837 q 871 838 884 837 q 852 840 859 840 q 802 818 823 840 q 770 758 780 796 l 546 0 l 342 0 l 9 987 l 218 987 l 430 268 z "},"ѵ":{"ha":709,"x_min":11,"x_max":720,"o":"m 327 273 l 338 214 l 342 214 l 353 273 l 416 527 q 505 692 448 637 q 650 747 562 747 q 688 745 671 747 q 720 734 705 742 l 703 585 q 689 586 701 585 q 669 587 677 587 q 622 567 643 587 q 593 518 602 547 l 436 0 l 247 0 l 11 734 l 218 734 l 327 273 z "},"Ѷ":{"ha":892,"x_min":9,"x_max":903,"o":"m 430 268 l 442 213 l 446 213 l 458 266 l 595 770 q 687 943 629 885 q 833 1000 744 1000 q 872 997 854 1000 q 903 987 889 994 l 887 837 q 871 838 884 837 q 852 840 859 840 q 802 818 823 840 q 770 758 780 796 l 546 0 l 342 0 l 9 987 l 218 987 l 430 268 m 388 1082 l 387 1078 l 229 1078 l 35 1255 l 37 1259 l 225 1259 l 388 1082 m 623 1078 l 463 1078 l 300 1255 l 302 1259 l 488 1259 l 623 1078 z "},"ѷ":{"ha":709,"x_min":-32,"x_max":720,"o":"m 327 273 l 338 214 l 342 214 l 353 273 l 416 527 q 505 692 448 637 q 650 747 562 747 q 688 745 671 747 q 720 734 705 742 l 703 585 q 689 586 701 585 q 669 587 677 587 q 622 567 643 587 q 593 518 602 547 l 436 0 l 247 0 l 11 734 l 218 734 l 327 273 m 321 908 l 319 905 l 161 905 l -32 1081 l -31 1085 l 158 1085 l 321 908 m 556 905 l 396 905 l 233 1082 l 235 1085 l 421 1085 l 556 905 z "},"Ѹ":{"ha":1665,"x_min":66,"x_max":1662,"o":"m 890 405 q 775 104 890 222 q 477 -14 661 -14 q 180 104 294 -14 q 66 405 66 223 l 66 583 q 179 883 66 764 q 475 1002 293 1002 q 774 883 659 1002 q 890 583 890 764 l 890 405 m 692 584 q 635 773 692 699 q 475 847 577 847 q 319 773 375 847 q 263 584 263 699 l 263 405 q 319 214 263 288 q 477 140 376 140 q 635 214 578 140 q 692 405 692 288 l 692 584 m 1296 308 l 1304 267 l 1308 267 l 1449 734 l 1662 734 l 1364 -110 q 1279 -242 1333 -189 q 1118 -296 1225 -296 q 1072 -292 1093 -296 q 1020 -281 1050 -288 l 1043 -136 q 1062 -139 1052 -138 q 1080 -140 1072 -140 q 1156 -116 1129 -140 q 1196 -56 1182 -92 l 1219 1 l 959 734 l 1172 734 l 1296 308 z "},"ѹ":{"ha":1493,"x_min":45,"x_max":1490,"o":"m 45 374 q 137 643 45 538 q 391 747 229 747 q 646 643 553 747 q 738 374 738 538 l 738 359 q 646 90 738 194 q 392 -14 554 -14 q 137 90 229 -14 q 45 359 45 194 l 45 374 m 243 359 q 278 198 243 259 q 392 138 313 138 q 504 199 469 138 q 540 359 540 260 l 540 374 q 504 533 540 471 q 391 595 468 595 q 278 533 314 595 q 243 374 243 471 l 243 359 m 1124 308 l 1133 267 l 1137 267 l 1277 734 l 1490 734 l 1192 -110 q 1107 -242 1161 -189 q 947 -296 1054 -296 q 900 -292 922 -296 q 848 -281 879 -288 l 871 -136 q 890 -139 880 -138 q 909 -140 901 -140 q 984 -116 958 -140 q 1025 -56 1010 -92 l 1048 1 l 787 734 l 1000 734 l 1124 308 z "},"Ѻ":{"ha":956,"x_min":66,"x_max":890,"o":"m 544 762 l 412 762 l 412 1069 l 544 1069 l 544 762 m 545 -92 l 413 -92 l 413 222 l 545 222 l 545 -92 m 890 405 q 775 104 890 222 q 477 -14 661 -14 q 180 104 294 -14 q 66 405 66 223 l 66 583 q 179 883 66 764 q 475 1002 293 1002 q 774 883 659 1002 q 890 583 890 764 l 890 405 m 692 584 q 635 773 692 699 q 475 847 577 847 q 319 773 375 847 q 263 584 263 699 l 263 405 q 319 214 263 288 q 477 140 376 140 q 635 214 578 140 q 692 405 692 288 l 692 584 z "},"ѻ":{"ha":784,"x_min":45,"x_max":738,"o":"m 460 517 l 328 517 l 328 817 l 460 817 l 460 517 m 456 -83 l 324 -83 l 324 224 l 456 224 l 456 -83 m 45 374 q 137 643 45 538 q 391 747 229 747 q 646 643 553 747 q 738 374 738 538 l 738 359 q 646 90 738 194 q 392 -14 554 -14 q 137 90 229 -14 q 45 359 45 194 l 45 374 m 243 359 q 278 198 243 259 q 392 138 313 138 q 504 199 469 138 q 540 359 540 260 l 540 374 q 504 533 540 471 q 391 595 468 595 q 278 533 314 595 q 243 374 243 471 l 243 359 z "},"Ѽ":{"ha":1332,"x_min":67,"x_max":1270,"o":"m 764 973 q 838 994 799 987 q 920 1002 877 1002 q 1172 881 1073 1002 q 1270 570 1270 760 l 1270 425 q 1168 108 1270 230 q 907 -14 1067 -14 q 772 4 831 -14 q 669 54 713 22 q 564 4 623 22 q 430 -14 505 -14 q 169 108 270 -14 q 67 425 67 230 l 67 570 q 165 881 67 760 q 418 1002 264 1002 q 499 994 460 1002 q 573 973 538 987 l 531 829 q 481 844 509 838 q 422 849 454 849 q 308 771 351 849 q 264 572 264 694 l 264 425 q 310 218 264 298 q 430 138 355 138 q 519 154 488 138 q 570 197 551 171 l 570 224 l 768 224 l 768 197 q 818 154 786 171 q 907 138 849 138 q 1027 218 982 138 q 1073 425 1073 298 l 1073 572 q 1029 771 1073 694 q 915 849 985 849 q 855 844 882 849 q 806 829 828 838 l 764 973 m 989 1273 l 989 1182 l 974 1182 q 779 1223 886 1182 q 645 1263 672 1263 q 593 1246 612 1263 q 575 1194 575 1229 l 575 1182 l 485 1182 l 485 1207 q 526 1318 485 1281 q 642 1354 566 1354 q 794 1314 690 1354 q 975 1273 899 1273 l 989 1273 m 651 982 l 595 1019 l 635 1093 l 635 1192 l 758 1192 l 758 1105 l 651 982 z "},"ѽ":{"ha":1141,"x_min":57,"x_max":1090,"o":"m 646 720 q 711 741 676 733 q 784 748 745 748 q 1004 646 918 748 q 1090 384 1090 544 l 1090 353 q 1001 88 1090 191 q 772 -14 911 -14 q 661 1 710 -14 q 574 45 612 17 q 486 1 535 17 q 376 -14 437 -14 q 146 88 235 -14 q 57 353 57 191 l 57 384 q 143 646 57 544 q 363 748 229 748 q 436 741 401 748 q 502 720 471 733 l 460 575 q 418 590 441 585 q 368 595 395 595 q 286 537 317 595 q 254 385 254 478 l 254 353 q 288 198 254 258 q 376 138 321 138 q 439 152 416 138 q 475 188 461 165 l 475 229 l 673 229 l 673 188 q 708 152 686 165 q 772 138 730 138 q 860 198 826 138 q 893 353 893 258 l 893 385 q 862 537 893 478 q 779 595 830 595 q 729 590 752 595 q 688 575 706 585 l 646 720 m 911 1015 l 911 924 l 895 924 q 701 964 808 924 q 566 1005 594 1005 q 515 988 534 1005 q 496 936 496 970 l 496 924 l 406 924 l 406 949 q 447 1059 406 1023 q 564 1096 488 1096 q 716 1055 612 1096 q 897 1015 821 1015 l 911 1015 m 573 732 l 517 770 l 557 844 l 557 934 l 680 934 l 680 856 l 573 732 z "},"Ѿ":{"ha":1333,"x_min":67,"x_max":1270,"o":"m 485 1144 l 485 1058 l 364 1059 l 365 1220 l 965 1220 l 965 1058 l 844 1058 l 844 1144 l 721 1144 l 721 1058 l 598 1058 l 598 1144 l 485 1144 m 785 829 q 844 844 812 838 q 915 849 877 849 q 1029 779 985 849 q 1072 598 1072 709 l 1072 391 q 1027 208 1072 279 q 907 138 982 138 q 818 152 849 138 q 768 188 786 165 l 768 375 l 895 375 l 895 512 l 442 512 l 442 375 l 570 375 l 570 188 q 519 152 551 165 q 430 138 488 138 q 310 208 355 138 q 264 391 264 279 l 264 598 q 308 779 264 709 q 422 849 351 849 q 492 844 460 849 q 551 829 525 838 l 593 973 q 510 994 554 987 q 418 1002 465 1002 q 165 888 264 1002 q 67 597 67 775 l 67 391 q 169 98 67 211 q 430 -14 270 -14 q 564 1 505 -14 q 668 43 623 16 q 772 1 713 16 q 907 -14 831 -14 q 1168 98 1067 -14 q 1270 391 1270 211 l 1270 597 q 1172 888 1270 775 q 920 1002 1073 1002 q 827 994 871 1002 q 744 973 783 987 l 785 829 z "},"ѿ":{"ha":991,"x_min":11,"x_max":970,"o":"m 347 912 l 347 826 l 227 827 l 227 988 l 786 988 l 786 826 l 665 826 l 665 912 l 562 912 l 562 826 l 439 826 l 439 912 l 347 912 m 218 734 l 11 734 l 260 0 l 439 0 l 515 222 l 519 222 l 585 0 l 769 0 q 903 358 851 176 q 970 734 954 539 l 764 734 q 748 462 766 591 q 680 228 729 332 l 679 221 l 675 221 l 665 273 l 567 734 l 370 734 l 445 477 l 392 273 l 364 173 l 360 173 l 341 273 l 218 734 z "},"Ҁ":{"ha":866,"x_min":62,"x_max":810,"o":"m 571 -248 l 374 -248 l 374 -9 q 146 123 230 14 q 62 395 62 233 l 62 591 q 166 887 62 772 q 444 1002 271 1002 q 714 914 618 1002 q 808 665 810 826 l 806 661 l 614 661 q 573 803 614 757 q 444 849 532 849 q 308 778 355 849 q 260 593 260 707 l 260 395 q 308 209 260 281 q 444 138 355 138 l 571 138 l 571 -248 z "},"ҁ":{"ha":743,"x_min":58,"x_max":696,"o":"m 526 -249 l 328 -249 l 328 -8 q 129 113 199 14 q 58 356 58 213 l 58 376 q 147 643 58 538 q 397 747 236 747 q 614 670 532 747 q 694 467 696 593 l 692 463 l 512 463 q 481 557 512 519 q 397 595 450 595 q 289 533 321 595 q 256 376 256 471 l 256 356 q 288 198 256 259 q 398 138 321 138 l 526 138 l 526 -249 z "},"҂":{"ha":865,"x_min":73,"x_max":793,"o":"m 408 304 l 604 188 l 555 101 l 357 216 l 235 0 l 116 0 l 269 270 l 73 386 l 121 473 l 319 357 l 456 601 l 260 717 l 309 805 l 507 689 l 632 910 l 749 910 l 594 635 l 793 519 l 741 433 l 546 549 l 408 304 z "},"҃":{"ha":618,"x_min":62,"x_max":553,"o":"m 182 890 l 182 804 l 62 805 l 63 966 l 433 966 l 433 1040 l 553 1039 l 553 890 l 182 890 z "},"҄":{"ha":646,"x_min":69,"x_max":586,"o":"m 83 975 q 268 1015 160 975 q 425 1056 375 1056 q 544 1019 501 1056 q 586 909 586 983 l 586 884 l 494 884 l 494 896 q 474 948 494 930 q 422 965 454 965 q 283 924 393 965 q 85 884 174 884 l 69 884 l 69 975 l 83 975 z "},"҅":{"ha":323,"x_min":85,"x_max":252,"o":"m 85 1017 l 85 1113 l 214 1113 l 213 1005 l 252 931 l 197 885 l 85 1017 z "},"҆":{"ha":333,"x_min":73,"x_max":240,"o":"m 127 885 l 73 931 l 112 1005 l 111 1113 l 240 1113 l 240 1017 l 127 885 z "}}}
